<svg xmlns="http://www.w3.org/2000/svg" xmlns:xlink="http://www.w3.org/1999/xlink" width="1024" zoomAndPan="magnify" viewBox="0 0 768 576" height="768" preserveAspectRatio="xMidYMid meet" version="1.0"><defs><g/><clipPath id="af127f7dbf"><path d="M 0 361.164062 L 175.152344 361.164062 L 175.152344 576 L 0 576 Z M 0 361.164062 " clip-rule="nonzero"/></clipPath><clipPath id="4d36191323"><path d="M 85.5 456.242188 L 261 456.242188 L 261 576 L 85.5 576 Z M 85.5 456.242188 " clip-rule="nonzero"/></clipPath><clipPath id="1d9749f799"><path d="M 183.90625 329.488281 L 294.90625 329.488281 L 294.90625 467.488281 L 183.90625 467.488281 Z M 183.90625 329.488281 " clip-rule="nonzero"/></clipPath><clipPath id="aea8fd7e2c"><path d="M 240.675781 272.554688 L 285.675781 272.554688 L 285.675781 328.804688 L 240.675781 328.804688 Z M 240.675781 272.554688 " clip-rule="nonzero"/></clipPath><clipPath id="cc891535bb"><path d="M 87.742188 241.105469 L 183.742188 241.105469 L 183.742188 360.355469 L 87.742188 360.355469 Z M 87.742188 241.105469 " clip-rule="nonzero"/></clipPath><clipPath id="67089b1510"><path d="M 0.660156 73.195312 L 134.910156 73.195312 L 134.910156 240.445312 L 0.660156 240.445312 Z M 0.660156 73.195312 " clip-rule="nonzero"/></clipPath><clipPath id="c5d1ea3919"><path d="M 134.882812 0 L 310.382812 0 L 310.382812 146.664062 L 134.882812 146.664062 Z M 134.882812 0 " clip-rule="nonzero"/></clipPath><clipPath id="305f2584f0"><path d="M 216.511719 54.644531 L 312.511719 54.644531 L 312.511719 173.894531 L 216.511719 173.894531 Z M 216.511719 54.644531 " clip-rule="nonzero"/></clipPath></defs><rect x="-76.8" width="921.6" fill="#ffffff" y="-57.6" height="691.2" fill-opacity="1"/><rect x="-76.8" width="921.6" fill="#ffffff" y="-57.6" height="691.2" fill-opacity="1"/><rect x="-76.8" width="921.6" fill="#f2f2f2" y="-57.6" height="691.2" fill-opacity="1"/><rect x="-76.8" width="921.6" fill="#f2f2f2" y="-57.6" height="691.2" fill-opacity="1"/><g fill="#4cb8b4" fill-opacity="1"><g transform="translate(383.923081, 263.198563)"><g><path d="M 75.296875 0 L 61.203125 0 L 61.125 -40.84375 L 46.046875 -6.28125 L 35.625 -6.28125 L 20.546875 -40.84375 L 20.546875 0 L 6.28125 0 L 6.28125 -62.921875 L 23.78125 -62.921875 L 40.84375 -25.484375 L 57.890625 -62.921875 L 75.296875 -62.921875 Z M 75.296875 0 "/></g></g></g><g fill="#4cb8b4" fill-opacity="1"><g transform="translate(467.383683, 263.198563)"><g><path d="M 27.375 -48.90625 C 35.75 -48.90625 42.046875 -46.332031 46.265625 -41.1875 C 50.484375 -36.050781 52.320312 -28.992188 51.78125 -20.015625 L 17.765625 -20.015625 C 18.546875 -17.140625 19.921875 -14.925781 21.890625 -13.375 C 23.867188 -11.820312 26.296875 -11.046875 29.171875 -11.046875 C 33.597656 -11.046875 37.457031 -12.6875 40.75 -15.96875 L 48.90625 -7.984375 C 43.707031 -2.304688 36.679688 0.53125 27.828125 0.53125 C 19.984375 0.53125 13.742188 -1.707031 9.109375 -6.1875 C 4.472656 -10.675781 2.15625 -16.628906 2.15625 -24.046875 C 2.15625 -31.523438 4.472656 -37.535156 9.109375 -42.078125 C 13.742188 -46.628906 19.832031 -48.90625 27.375 -48.90625 Z M 17.5 -28.359375 L 36.890625 -28.359375 C 36.890625 -31.296875 36.035156 -33.660156 34.328125 -35.453125 C 32.617188 -37.242188 30.359375 -38.140625 27.546875 -38.140625 C 24.921875 -38.140625 22.707031 -37.253906 20.90625 -35.484375 C 19.113281 -33.722656 17.976562 -31.347656 17.5 -28.359375 Z M 17.5 -28.359375 "/></g></g></g><g fill="#4cb8b4" fill-opacity="1"><g transform="translate(523.20368, 263.198563)"><g><path d="M 54.921875 -66.59375 L 54.921875 0 L 39.40625 0 L 39.40625 -6.375 C 35.875 -1.707031 31.023438 0.625 24.859375 0.625 C 18.035156 0.625 12.5625 -1.675781 8.4375 -6.28125 C 4.3125 -10.882812 2.25 -16.925781 2.25 -24.40625 C 2.25 -31.832031 4.28125 -37.785156 8.34375 -42.265625 C 12.414062 -46.753906 17.800781 -49 24.5 -49 C 30.90625 -49 35.875 -46.664062 39.40625 -42 L 39.40625 -66.59375 Z M 20.8125 -14.890625 C 22.789062 -12.554688 25.394531 -11.390625 28.625 -11.390625 C 31.863281 -11.390625 34.46875 -12.554688 36.4375 -14.890625 C 38.414062 -17.234375 39.40625 -20.285156 39.40625 -24.046875 C 39.40625 -27.765625 38.414062 -30.789062 36.4375 -33.125 C 34.46875 -35.457031 31.863281 -36.625 28.625 -36.625 C 25.394531 -36.625 22.789062 -35.46875 20.8125 -33.15625 C 18.84375 -30.851562 17.828125 -27.816406 17.765625 -24.046875 C 17.828125 -20.285156 18.84375 -17.234375 20.8125 -14.890625 Z M 20.8125 -14.890625 "/></g></g></g><g fill="#4cb8b4" fill-opacity="1"><g transform="translate(586.562026, 263.198563)"><g><path d="M 8.109375 -68.15625 C 9.640625 -69.6875 11.601562 -70.453125 14 -70.453125 C 16.394531 -70.453125 18.351562 -69.6875 19.875 -68.15625 C 21.40625 -66.632812 22.171875 -64.675781 22.171875 -62.28125 C 22.171875 -59.894531 21.40625 -57.921875 19.875 -56.359375 C 18.351562 -54.804688 16.394531 -54.03125 14 -54.03125 C 11.601562 -54.03125 9.640625 -54.804688 8.109375 -56.359375 C 6.585938 -57.921875 5.828125 -59.894531 5.828125 -62.28125 C 5.828125 -64.675781 6.585938 -66.632812 8.109375 -68.15625 Z M 21.625 0 L 6.1875 0 L 6.1875 -48.375 L 21.625 -48.375 Z M 21.625 0 "/></g></g></g><g fill="#4cb8b4" fill-opacity="1"><g transform="translate(616.267019, 263.198563)"><g><path d="M 27.90625 -49.09375 C 34.550781 -49.09375 39.710938 -47.550781 43.390625 -44.46875 C 47.066406 -41.382812 48.9375 -37.09375 49 -31.59375 L 49 0 L 33.828125 0 L 33.828125 -5.5625 C 30.660156 -1.375 25.726562 0.71875 19.03125 0.71875 C 13.9375 0.71875 9.894531 -0.6875 6.90625 -3.5 C 3.914062 -6.3125 2.421875 -9.960938 2.421875 -14.453125 C 2.421875 -19.054688 4.019531 -22.628906 7.21875 -25.171875 C 10.425781 -27.710938 15.019531 -29.015625 21 -29.078125 L 33.75 -29.078125 L 33.75 -29.796875 C 33.75 -32.191406 32.953125 -34.0625 31.359375 -35.40625 C 29.773438 -36.75 27.429688 -37.421875 24.328125 -37.421875 C 19.953125 -37.421875 15.132812 -36.078125 9.875 -33.390625 L 5.46875 -43.625 C 13.3125 -47.269531 20.789062 -49.09375 27.90625 -49.09375 Z M 23.78125 -9.78125 C 26.238281 -9.78125 28.394531 -10.394531 30.25 -11.625 C 32.101562 -12.851562 33.269531 -14.453125 33.75 -16.421875 L 33.75 -20.734375 L 23.96875 -20.734375 C 19.300781 -20.734375 16.96875 -19 16.96875 -15.53125 C 16.96875 -13.726562 17.5625 -12.316406 18.75 -11.296875 C 19.945312 -10.285156 21.625 -9.78125 23.78125 -9.78125 Z M 23.78125 -9.78125 "/></g></g></g><g fill="#4cb8b4" fill-opacity="1"><g transform="translate(383.923081, 350.198559)"><g><path d="M 67.578125 -1.96875 L 73.234375 7.890625 C 70.835938 10.046875 67.992188 11.738281 64.703125 12.96875 C 61.421875 14.195312 58.191406 14.8125 55.015625 14.8125 C 50.710938 14.8125 46.796875 13.566406 43.265625 11.078125 C 39.734375 8.597656 36.921875 5.144531 34.828125 0.71875 C 25.429688 0.414062 17.632812 -2.785156 11.4375 -8.890625 C 5.25 -14.992188 2.15625 -22.53125 2.15625 -31.5 C 2.15625 -40.65625 5.382812 -48.253906 11.84375 -54.296875 C 18.3125 -60.335938 26.390625 -63.359375 36.078125 -63.359375 C 45.828125 -63.359375 53.929688 -60.320312 60.390625 -54.25 C 66.859375 -48.175781 70.09375 -40.59375 70.09375 -31.5 C 70.09375 -24.625 68.191406 -18.492188 64.390625 -13.109375 C 60.597656 -7.722656 55.53125 -3.863281 49.1875 -1.53125 C 51.457031 1.34375 54 2.78125 56.8125 2.78125 C 59.863281 2.78125 63.453125 1.195312 67.578125 -1.96875 Z M 23.6875 -44.640625 C 20.21875 -41.085938 18.484375 -36.675781 18.484375 -31.40625 C 18.484375 -26.144531 20.234375 -21.703125 23.734375 -18.078125 C 27.234375 -14.460938 31.40625 -12.65625 36.25 -12.65625 C 41.101562 -12.65625 45.21875 -14.460938 48.59375 -18.078125 C 51.976562 -21.703125 53.671875 -26.144531 53.671875 -31.40625 C 53.671875 -36.675781 51.976562 -41.085938 48.59375 -44.640625 C 45.21875 -48.203125 41.109375 -49.984375 36.265625 -49.984375 C 31.359375 -49.984375 27.164062 -48.203125 23.6875 -44.640625 Z M 23.6875 -44.640625 "/></g></g></g><g fill="#4cb8b4" fill-opacity="1"><g transform="translate(458.409455, 350.198559)"><g><path d="M 53.3125 -48.375 L 53.3125 0 L 37.78125 0 L 37.78125 -7.984375 C 34.488281 -2.242188 29.253906 0.625 22.078125 0.625 C 16.816406 0.625 12.613281 -1.046875 9.46875 -4.390625 C 6.320312 -7.742188 4.75 -12.234375 4.75 -17.859375 L 4.75 -48.375 L 20.28125 -48.375 L 20.28125 -22.265625 C 20.28125 -19.390625 21.015625 -17.128906 22.484375 -15.484375 C 23.953125 -13.835938 25.910156 -13.015625 28.359375 -13.015625 C 31.296875 -13.078125 33.597656 -14.164062 35.265625 -16.28125 C 36.941406 -18.40625 37.78125 -21.144531 37.78125 -24.5 L 37.78125 -48.375 Z M 53.3125 -48.375 "/></g></g></g><g fill="#4cb8b4" fill-opacity="1"><g transform="translate(519.703722, 350.198559)"><g><path d="M 27.375 -48.90625 C 35.75 -48.90625 42.046875 -46.332031 46.265625 -41.1875 C 50.484375 -36.050781 52.320312 -28.992188 51.78125 -20.015625 L 17.765625 -20.015625 C 18.546875 -17.140625 19.921875 -14.925781 21.890625 -13.375 C 23.867188 -11.820312 26.296875 -11.046875 29.171875 -11.046875 C 33.597656 -11.046875 37.457031 -12.6875 40.75 -15.96875 L 48.90625 -7.984375 C 43.707031 -2.304688 36.679688 0.53125 27.828125 0.53125 C 19.984375 0.53125 13.742188 -1.707031 9.109375 -6.1875 C 4.472656 -10.675781 2.15625 -16.628906 2.15625 -24.046875 C 2.15625 -31.523438 4.472656 -37.535156 9.109375 -42.078125 C 13.742188 -46.628906 19.832031 -48.90625 27.375 -48.90625 Z M 17.5 -28.359375 L 36.890625 -28.359375 C 36.890625 -31.296875 36.035156 -33.660156 34.328125 -35.453125 C 32.617188 -37.242188 30.359375 -38.140625 27.546875 -38.140625 C 24.921875 -38.140625 22.707031 -37.253906 20.90625 -35.484375 C 19.113281 -33.722656 17.976562 -31.347656 17.5 -28.359375 Z M 17.5 -28.359375 "/></g></g></g><g fill="#4cb8b4" fill-opacity="1"><g transform="translate(575.52372, 350.198559)"><g><path d="M 21.71875 -48.375 L 21.71875 -40.203125 C 25.125 -46.003906 30.359375 -48.96875 37.421875 -49.09375 L 37.421875 -35.09375 C 32.992188 -35.507812 29.375 -34.773438 26.5625 -32.890625 C 23.75 -31.003906 22.132812 -28.328125 21.71875 -24.859375 L 21.71875 0 L 6.1875 0 L 6.1875 -48.375 Z M 21.71875 -48.375 "/></g></g></g><g fill="#4cb8b4" fill-opacity="1"><g transform="translate(615.63883, 350.198559)"><g><path d="M 8.109375 -68.15625 C 9.640625 -69.6875 11.601562 -70.453125 14 -70.453125 C 16.394531 -70.453125 18.351562 -69.6875 19.875 -68.15625 C 21.40625 -66.632812 22.171875 -64.675781 22.171875 -62.28125 C 22.171875 -59.894531 21.40625 -57.921875 19.875 -56.359375 C 18.351562 -54.804688 16.394531 -54.03125 14 -54.03125 C 11.601562 -54.03125 9.640625 -54.804688 8.109375 -56.359375 C 6.585938 -57.921875 5.828125 -59.894531 5.828125 -62.28125 C 5.828125 -64.675781 6.585938 -66.632812 8.109375 -68.15625 Z M 21.625 0 L 6.1875 0 L 6.1875 -48.375 L 21.625 -48.375 Z M 21.625 0 "/></g></g></g><g fill="#4cb8b4" fill-opacity="1"><g transform="translate(645.343845, 350.198559)"><g><path d="M 27.375 -48.90625 C 35.75 -48.90625 42.046875 -46.332031 46.265625 -41.1875 C 50.484375 -36.050781 52.320312 -28.992188 51.78125 -20.015625 L 17.765625 -20.015625 C 18.546875 -17.140625 19.921875 -14.925781 21.890625 -13.375 C 23.867188 -11.820312 26.296875 -11.046875 29.171875 -11.046875 C 33.597656 -11.046875 37.457031 -12.6875 40.75 -15.96875 L 48.90625 -7.984375 C 43.707031 -2.304688 36.679688 0.53125 27.828125 0.53125 C 19.984375 0.53125 13.742188 -1.707031 9.109375 -6.1875 C 4.472656 -10.675781 2.15625 -16.628906 2.15625 -24.046875 C 2.15625 -31.523438 4.472656 -37.535156 9.109375 -42.078125 C 13.742188 -46.628906 19.832031 -48.90625 27.375 -48.90625 Z M 17.5 -28.359375 L 36.890625 -28.359375 C 36.890625 -31.296875 36.035156 -33.660156 34.328125 -35.453125 C 32.617188 -37.242188 30.359375 -38.140625 27.546875 -38.140625 C 24.921875 -38.140625 22.707031 -37.253906 20.90625 -35.484375 C 19.113281 -33.722656 17.976562 -31.347656 17.5 -28.359375 Z M 17.5 -28.359375 "/></g></g></g><g fill="#4cb8b4" fill-opacity="1"><g transform="translate(701.163843, 350.198559)"><g><path d="M 23.515625 -49.09375 C 30.628906 -49.09375 37.269531 -47.269531 43.4375 -43.625 L 38.140625 -33.5625 C 32.160156 -36.789062 27.078125 -38.40625 22.890625 -38.40625 C 19.710938 -38.40625 18.125 -37.300781 18.125 -35.09375 C 18.125 -33.894531 18.988281 -32.890625 20.71875 -32.078125 C 22.457031 -31.273438 24.582031 -30.546875 27.09375 -29.890625 C 29.613281 -29.234375 32.113281 -28.410156 34.59375 -27.421875 C 37.082031 -26.429688 39.191406 -24.859375 40.921875 -22.703125 C 42.660156 -20.546875 43.53125 -17.914062 43.53125 -14.8125 C 43.53125 -9.957031 41.644531 -6.171875 37.875 -3.453125 C 34.101562 -0.734375 29.195312 0.625 23.15625 0.625 C 14.601562 0.625 7.363281 -1.644531 1.4375 -6.1875 L 6.375 -16.0625 C 12.0625 -12.050781 17.773438 -10.046875 23.515625 -10.046875 C 27.046875 -10.046875 28.8125 -11.15625 28.8125 -13.375 C 28.8125 -14.625 27.957031 -15.664062 26.25 -16.5 C 24.539062 -17.34375 22.457031 -18.09375 20 -18.75 C 17.550781 -19.414062 15.097656 -20.238281 12.640625 -21.21875 C 10.191406 -22.207031 8.113281 -23.75 6.40625 -25.84375 C 4.707031 -27.9375 3.859375 -30.570312 3.859375 -33.75 C 3.859375 -38.59375 5.679688 -42.359375 9.328125 -45.046875 C 12.984375 -47.742188 17.710938 -49.09375 23.515625 -49.09375 Z M 23.515625 -49.09375 "/></g></g></g><g clip-path="url(#af127f7dbf)"><path fill="#ffcc58" d="M -0.347656 457.878906 L -0.347656 578.664062 L 87.421875 481.953125 L 175.152344 578.664062 L 175.152344 457.878906 L 87.421875 361.164062 L -0.347656 457.878906 " fill-opacity="1" fill-rule="nonzero"/></g><g clip-path="url(#4d36191323)"><path fill="#4cb8b4" d="M 85.5 552.957031 L 85.5 673.742188 L 173.269531 577.027344 L 260.996094 673.742188 L 260.996094 552.957031 L 173.269531 456.242188 L 85.5 552.957031 " fill-opacity="1" fill-rule="nonzero"/></g><g clip-path="url(#1d9749f799)"><path fill="#ff7477" d="M 183.90625 390.492188 L 183.90625 467.488281 L 239.421875 406.484375 L 294.90625 467.488281 L 294.90625 390.492188 L 239.421875 329.488281 L 183.90625 390.492188 " fill-opacity="1" fill-rule="nonzero"/></g><g clip-path="url(#aea8fd7e2c)"><path fill="#ffcc58" d="M 240.675781 297.613281 L 240.675781 328.371094 L 263.183594 303.742188 L 285.675781 328.371094 L 285.675781 297.613281 L 263.183594 272.988281 L 240.675781 297.613281 " fill-opacity="1" fill-rule="nonzero"/></g><g clip-path="url(#cc891535bb)"><path fill="#4cb8b4" d="M 87.746094 294.007812 L 87.746094 360.355469 L 135.753906 307.457031 L 183.742188 360.355469 L 183.742188 294.007812 L 135.753906 241.105469 L 87.746094 294.007812 " fill-opacity="1" fill-rule="nonzero"/></g><g clip-path="url(#67089b1510)"><path fill="#ff7477" d="M 0.660156 147.25 L 0.660156 240.445312 L 67.804688 166.390625 L 134.910156 240.445312 L 134.910156 147.25 L 67.804688 73.195312 L 0.660156 147.25 " fill-opacity="1" fill-rule="nonzero"/></g><g clip-path="url(#c5d1ea3919)"><path fill="#ffcc58" d="M 134.882812 25.878906 L 134.882812 146.664062 L 222.65625 49.953125 L 310.382812 146.664062 L 310.382812 25.878906 L 222.65625 -70.835938 L 134.882812 25.878906 " fill-opacity="1" fill-rule="nonzero"/></g><g clip-path="url(#305f2584f0)"><path fill="#4cb8b4" d="M 216.515625 107.542969 L 216.515625 173.894531 L 264.523438 120.996094 L 312.511719 173.894531 L 312.511719 107.542969 L 264.523438 54.644531 L 216.515625 107.542969 " fill-opacity="1" fill-rule="nonzero"/></g></svg>