<svg xmlns="http://www.w3.org/2000/svg" xmlns:xlink="http://www.w3.org/1999/xlink" width="1024" zoomAndPan="magnify" viewBox="0 0 768 576" height="768" preserveAspectRatio="xMidYMid meet" version="1.0"><defs><g/><clipPath id="f362ec0f3e"><path d="M 353.523438 33.386719 L 358.023438 33.386719 L 358.023438 543.386719 L 353.523438 543.386719 Z M 353.523438 33.386719 " clip-rule="nonzero"/></clipPath><clipPath id="b8cdbf6aef"><path d="M 421.847656 116.308594 L 478.097656 116.308594 L 478.097656 161.308594 L 421.847656 161.308594 Z M 421.847656 116.308594 " clip-rule="nonzero"/></clipPath><clipPath id="5038666264"><path d="M 394.152344 94.152344 L 421.902344 94.152344 L 421.902344 116.652344 L 394.152344 116.652344 Z M 394.152344 94.152344 " clip-rule="nonzero"/></clipPath><clipPath id="ff50f4562b"><path d="M 0 516 L 151.5 516 L 151.5 576 L 0 576 Z M 0 516 " clip-rule="nonzero"/></clipPath><clipPath id="53d147d8e9"><path d="M 662.769531 480 L 707.019531 480 L 707.019531 516 L 662.769531 516 Z M 662.769531 480 " clip-rule="nonzero"/></clipPath></defs><rect x="-76.8" width="921.6" fill="#ffffff" y="-57.6" height="691.2" fill-opacity="1"/><rect x="-76.8" width="921.6" fill="#4cb8b4" y="-57.6" height="691.2" fill-opacity="1"/><g fill="#ffffff" fill-opacity="1"><g transform="translate(16.972384, 94.70943)"><g><path d="M 54.953125 0 L 41.296875 0 L 41.296875 -20.875 L 19.03125 -20.875 L 19.03125 0 L 5.375 0 L 5.375 -53.71875 L 19.03125 -53.71875 L 19.03125 -31.625 L 41.296875 -31.625 L 41.296875 -53.71875 L 54.953125 -53.71875 Z M 54.953125 0 "/></g></g></g><g fill="#ffffff" fill-opacity="1"><g transform="translate(78.830009, 94.70943)"><g><path d="M 24.484375 -41.828125 C 31.234375 -41.828125 36.679688 -39.894531 40.828125 -36.03125 C 44.972656 -32.164062 47.046875 -27.0625 47.046875 -20.71875 C 47.046875 -14.375 44.972656 -9.257812 40.828125 -5.375 C 36.679688 -1.488281 31.234375 0.453125 24.484375 0.453125 C 17.679688 0.453125 12.207031 -1.488281 8.0625 -5.375 C 3.914062 -9.257812 1.84375 -14.375 1.84375 -20.71875 C 1.84375 -27.0625 3.914062 -32.164062 8.0625 -36.03125 C 12.207031 -39.894531 17.679688 -41.828125 24.484375 -41.828125 Z M 24.484375 -31.3125 C 21.722656 -31.3125 19.484375 -30.3125 17.765625 -28.3125 C 16.054688 -26.320312 15.203125 -23.738281 15.203125 -20.5625 C 15.203125 -17.34375 16.054688 -14.75 17.765625 -12.78125 C 19.484375 -10.8125 21.722656 -9.828125 24.484375 -9.828125 C 27.191406 -9.828125 29.398438 -10.8125 31.109375 -12.78125 C 32.828125 -14.75 33.6875 -17.34375 33.6875 -20.5625 C 33.6875 -23.738281 32.828125 -26.320312 31.109375 -28.3125 C 29.398438 -30.3125 27.191406 -31.3125 24.484375 -31.3125 Z M 24.484375 -31.3125 "/></g></g></g><g fill="#ffffff" fill-opacity="1"><g transform="translate(129.252469, 94.70943)"><g><path d="M 57.328125 0 L 44.203125 0 L 36.078125 -26.25 L 27.9375 0 L 14.734375 0 L -0.390625 -41.375 L 13.125 -41.375 L 21.640625 -12.734375 L 29.9375 -41.375 L 42.59375 -41.375 L 51.109375 -12.734375 L 59.484375 -41.375 L 72.453125 -41.375 Z M 57.328125 0 "/></g></g></g><g fill="#ffffff" fill-opacity="1"><g transform="translate(202.698748, 94.70943)"><g/></g></g><g fill="#ffffff" fill-opacity="1"><g transform="translate(222.039056, 94.70943)"><g><path d="M 29.390625 -11.4375 L 32 -2.21875 C 28.78125 -0.332031 25.097656 0.609375 20.953125 0.609375 C 16.859375 0.609375 13.546875 -0.523438 11.015625 -2.796875 C 8.484375 -5.078125 7.21875 -8.316406 7.21875 -12.515625 L 7.21875 -30.78125 L 1.453125 -30.78125 L 1.453125 -39.453125 L 7.21875 -39.453125 L 7.21875 -50.96875 L 20.421875 -50.96875 L 20.421875 -39.53125 L 31.234375 -39.53125 L 31.234375 -30.78125 L 20.421875 -30.78125 L 20.421875 -14.578125 C 20.421875 -12.992188 20.738281 -11.832031 21.375 -11.09375 C 22.007812 -10.351562 22.96875 -10.003906 24.25 -10.046875 C 25.476562 -10.046875 27.191406 -10.507812 29.390625 -11.4375 Z M 29.390625 -11.4375 "/></g></g></g><g fill="#ffffff" fill-opacity="1"><g transform="translate(256.958824, 94.70943)"><g><path d="M 24.484375 -41.828125 C 31.234375 -41.828125 36.679688 -39.894531 40.828125 -36.03125 C 44.972656 -32.164062 47.046875 -27.0625 47.046875 -20.71875 C 47.046875 -14.375 44.972656 -9.257812 40.828125 -5.375 C 36.679688 -1.488281 31.234375 0.453125 24.484375 0.453125 C 17.679688 0.453125 12.207031 -1.488281 8.0625 -5.375 C 3.914062 -9.257812 1.84375 -14.375 1.84375 -20.71875 C 1.84375 -27.0625 3.914062 -32.164062 8.0625 -36.03125 C 12.207031 -39.894531 17.679688 -41.828125 24.484375 -41.828125 Z M 24.484375 -31.3125 C 21.722656 -31.3125 19.484375 -30.3125 17.765625 -28.3125 C 16.054688 -26.320312 15.203125 -23.738281 15.203125 -20.5625 C 15.203125 -17.34375 16.054688 -14.75 17.765625 -12.78125 C 19.484375 -10.8125 21.722656 -9.828125 24.484375 -9.828125 C 27.191406 -9.828125 29.398438 -10.8125 31.109375 -12.78125 C 32.828125 -14.75 33.6875 -17.34375 33.6875 -20.5625 C 33.6875 -23.738281 32.828125 -26.320312 31.109375 -28.3125 C 29.398438 -30.3125 27.191406 -31.3125 24.484375 -31.3125 Z M 24.484375 -31.3125 "/></g></g></g><g fill="#ffffff" fill-opacity="1"><g transform="translate(16.972384, 168.959427)"><g><path d="M 53.71875 -53.71875 L 53.71875 -22.5625 C 53.71875 -15.445312 51.519531 -9.804688 47.125 -5.640625 C 42.726562 -1.472656 36.765625 0.609375 29.234375 0.609375 C 21.660156 0.609375 15.632812 -1.472656 11.15625 -5.640625 C 6.6875 -9.804688 4.453125 -15.445312 4.453125 -22.5625 L 4.453125 -53.71875 L 18.109375 -53.71875 L 18.109375 -22.5625 C 18.109375 -18.976562 19.144531 -16.125 21.21875 -14 C 23.289062 -11.882812 25.988281 -10.828125 29.3125 -10.828125 C 32.59375 -10.828125 35.21875 -11.875 37.1875 -13.96875 C 39.15625 -16.0625 40.140625 -18.925781 40.140625 -22.5625 L 40.140625 -53.71875 Z M 53.71875 -53.71875 "/></g></g></g><g fill="#ffffff" fill-opacity="1"><g transform="translate(76.681118, 168.959427)"><g><path d="M 20.109375 -41.984375 C 26.191406 -41.984375 31.867188 -40.421875 37.140625 -37.296875 L 32.625 -28.703125 C 27.5 -31.460938 23.148438 -32.84375 19.578125 -32.84375 C 16.859375 -32.84375 15.5 -31.898438 15.5 -30.015625 C 15.5 -28.984375 16.238281 -28.125 17.71875 -27.4375 C 19.207031 -26.75 21.023438 -26.125 23.171875 -25.5625 C 25.328125 -25 27.460938 -24.296875 29.578125 -23.453125 C 31.703125 -22.609375 33.503906 -21.265625 34.984375 -19.421875 C 36.472656 -17.578125 37.21875 -15.320312 37.21875 -12.65625 C 37.21875 -8.519531 35.601562 -5.285156 32.375 -2.953125 C 29.15625 -0.628906 24.960938 0.53125 19.796875 0.53125 C 12.484375 0.53125 6.296875 -1.410156 1.234375 -5.296875 L 5.453125 -13.734375 C 10.304688 -10.304688 15.191406 -8.59375 20.109375 -8.59375 C 23.128906 -8.59375 24.640625 -9.539062 24.640625 -11.4375 C 24.640625 -12.507812 23.910156 -13.40625 22.453125 -14.125 C 20.992188 -14.84375 19.210938 -15.484375 17.109375 -16.046875 C 15.015625 -16.609375 12.914062 -17.3125 10.8125 -18.15625 C 8.71875 -19 6.941406 -20.316406 5.484375 -22.109375 C 4.023438 -23.898438 3.296875 -26.148438 3.296875 -28.859375 C 3.296875 -33.003906 4.851562 -36.226562 7.96875 -38.53125 C 11.09375 -40.832031 15.140625 -41.984375 20.109375 -41.984375 Z M 20.109375 -41.984375 "/></g></g></g><g fill="#ffffff" fill-opacity="1"><g transform="translate(117.587073, 168.959427)"><g><path d="M 23.40625 -41.828125 C 30.570312 -41.828125 35.957031 -39.625 39.5625 -35.21875 C 43.164062 -30.820312 44.738281 -24.785156 44.28125 -17.109375 L 15.203125 -17.109375 C 15.859375 -14.660156 17.03125 -12.769531 18.71875 -11.4375 C 20.414062 -10.101562 22.488281 -9.4375 24.9375 -9.4375 C 28.726562 -9.4375 32.03125 -10.84375 34.84375 -13.65625 L 41.828125 -6.828125 C 37.378906 -1.972656 31.367188 0.453125 23.796875 0.453125 C 17.085938 0.453125 11.75 -1.460938 7.78125 -5.296875 C 3.820312 -9.128906 1.84375 -14.21875 1.84375 -20.5625 C 1.84375 -26.957031 3.820312 -32.097656 7.78125 -35.984375 C 11.75 -39.878906 16.957031 -41.828125 23.40625 -41.828125 Z M 14.96875 -24.25 L 31.546875 -24.25 C 31.546875 -26.757812 30.816406 -28.78125 29.359375 -30.3125 C 27.898438 -31.851562 25.96875 -32.625 23.5625 -32.625 C 21.3125 -32.625 19.414062 -31.867188 17.875 -30.359375 C 16.34375 -28.847656 15.375 -26.8125 14.96875 -24.25 Z M 14.96875 -24.25 "/></g></g></g><g fill="#ffffff" fill-opacity="1"><g transform="translate(16.972384, 243.209424)"><g><path d="M 64.390625 0 L 52.34375 0 L 52.265625 -34.921875 L 39.375 -5.375 L 30.46875 -5.375 L 17.578125 -34.921875 L 17.578125 0 L 5.375 0 L 5.375 -53.796875 L 20.34375 -53.796875 L 34.921875 -21.796875 L 49.5 -53.796875 L 64.390625 -53.796875 Z M 64.390625 0 "/></g></g></g><g fill="#ffffff" fill-opacity="1"><g transform="translate(88.346515, 243.209424)"><g><path d="M 23.40625 -41.828125 C 30.570312 -41.828125 35.957031 -39.625 39.5625 -35.21875 C 43.164062 -30.820312 44.738281 -24.785156 44.28125 -17.109375 L 15.203125 -17.109375 C 15.859375 -14.660156 17.03125 -12.769531 18.71875 -11.4375 C 20.414062 -10.101562 22.488281 -9.4375 24.9375 -9.4375 C 28.726562 -9.4375 32.03125 -10.84375 34.84375 -13.65625 L 41.828125 -6.828125 C 37.378906 -1.972656 31.367188 0.453125 23.796875 0.453125 C 17.085938 0.453125 11.75 -1.460938 7.78125 -5.296875 C 3.820312 -9.128906 1.84375 -14.21875 1.84375 -20.5625 C 1.84375 -26.957031 3.820312 -32.097656 7.78125 -35.984375 C 11.75 -39.878906 16.957031 -41.828125 23.40625 -41.828125 Z M 14.96875 -24.25 L 31.546875 -24.25 C 31.546875 -26.757812 30.816406 -28.78125 29.359375 -30.3125 C 27.898438 -31.851562 25.96875 -32.625 23.5625 -32.625 C 21.3125 -32.625 19.414062 -31.867188 17.875 -30.359375 C 16.34375 -28.847656 15.375 -26.8125 14.96875 -24.25 Z M 14.96875 -24.25 "/></g></g></g><g fill="#ffffff" fill-opacity="1"><g transform="translate(136.082864, 243.209424)"><g><path d="M 46.96875 -56.953125 L 46.96875 0 L 33.6875 0 L 33.6875 -5.453125 C 30.675781 -1.460938 26.535156 0.53125 21.265625 0.53125 C 15.429688 0.53125 10.75 -1.4375 7.21875 -5.375 C 3.6875 -9.3125 1.921875 -14.476562 1.921875 -20.875 C 1.921875 -27.21875 3.660156 -32.304688 7.140625 -36.140625 C 10.617188 -39.984375 15.222656 -41.90625 20.953125 -41.90625 C 26.429688 -41.90625 30.675781 -39.910156 33.6875 -35.921875 L 33.6875 -56.953125 Z M 17.796875 -12.734375 C 19.492188 -10.742188 21.722656 -9.75 24.484375 -9.75 C 27.242188 -9.75 29.46875 -10.742188 31.15625 -12.734375 C 32.84375 -14.734375 33.6875 -17.34375 33.6875 -20.5625 C 33.6875 -23.738281 32.84375 -26.320312 31.15625 -28.3125 C 29.46875 -30.3125 27.242188 -31.3125 24.484375 -31.3125 C 21.722656 -31.3125 19.492188 -30.328125 17.796875 -28.359375 C 16.109375 -26.390625 15.242188 -23.789062 15.203125 -20.5625 C 15.242188 -17.34375 16.109375 -14.734375 17.796875 -12.734375 Z M 17.796875 -12.734375 "/></g></g></g><g fill="#ffffff" fill-opacity="1"><g transform="translate(190.265887, 243.209424)"><g><path d="M 6.9375 -58.28125 C 8.25 -59.59375 9.925781 -60.25 11.96875 -60.25 C 14.019531 -60.25 15.695312 -59.59375 17 -58.28125 C 18.300781 -56.976562 18.953125 -55.300781 18.953125 -53.25 C 18.953125 -51.207031 18.300781 -49.519531 17 -48.1875 C 15.695312 -46.863281 14.019531 -46.203125 11.96875 -46.203125 C 9.925781 -46.203125 8.25 -46.863281 6.9375 -48.1875 C 5.632812 -49.519531 4.984375 -51.207031 4.984375 -53.25 C 4.984375 -55.300781 5.632812 -56.976562 6.9375 -58.28125 Z M 18.5 0 L 5.296875 0 L 5.296875 -41.375 L 18.5 -41.375 Z M 18.5 0 "/></g></g></g><g fill="#ffffff" fill-opacity="1"><g transform="translate(215.669138, 243.209424)"><g><path d="M 23.875 -41.984375 C 29.550781 -41.984375 33.960938 -40.664062 37.109375 -38.03125 C 40.253906 -35.394531 41.851562 -31.722656 41.90625 -27.015625 L 41.90625 0 L 28.9375 0 L 28.9375 -4.765625 C 26.21875 -1.179688 21.992188 0.609375 16.265625 0.609375 C 11.921875 0.609375 8.46875 -0.585938 5.90625 -2.984375 C 3.351562 -5.390625 2.078125 -8.515625 2.078125 -12.359375 C 2.078125 -16.296875 3.441406 -19.351562 6.171875 -21.53125 C 8.910156 -23.707031 12.835938 -24.816406 17.953125 -24.859375 L 28.859375 -24.859375 L 28.859375 -25.484375 C 28.859375 -27.523438 28.179688 -29.117188 26.828125 -30.265625 C 25.472656 -31.421875 23.460938 -32 20.796875 -32 C 17.066406 -32 12.945312 -30.847656 8.4375 -28.546875 L 4.6875 -37.296875 C 11.382812 -40.421875 17.78125 -41.984375 23.875 -41.984375 Z M 20.34375 -8.359375 C 22.4375 -8.359375 24.273438 -8.882812 25.859375 -9.9375 C 27.453125 -10.988281 28.453125 -12.359375 28.859375 -14.046875 L 28.859375 -17.734375 L 20.5 -17.734375 C 16.5 -17.734375 14.5 -16.25 14.5 -13.28125 C 14.5 -11.738281 15.007812 -10.53125 16.03125 -9.65625 C 17.0625 -8.789062 18.5 -8.359375 20.34375 -8.359375 Z M 20.34375 -8.359375 "/></g></g></g><g fill="#ffffff" fill-opacity="1"><g transform="translate(16.972384, 317.459421)"><g><path d="M 57.796875 -1.6875 L 62.625 6.75 C 60.582031 8.59375 58.148438 10.035156 55.328125 11.078125 C 52.515625 12.128906 49.753906 12.65625 47.046875 12.65625 C 43.359375 12.65625 40.003906 11.59375 36.984375 9.46875 C 33.972656 7.351562 31.570312 4.398438 29.78125 0.609375 C 21.75 0.359375 15.082031 -2.375 9.78125 -7.59375 C 4.488281 -12.8125 1.84375 -19.257812 1.84375 -26.9375 C 1.84375 -34.769531 4.601562 -41.269531 10.125 -46.4375 C 15.65625 -51.601562 22.566406 -54.1875 30.859375 -54.1875 C 39.191406 -54.1875 46.117188 -51.585938 51.640625 -46.390625 C 57.171875 -41.203125 59.9375 -34.71875 59.9375 -26.9375 C 59.9375 -21.050781 58.3125 -15.804688 55.0625 -11.203125 C 51.8125 -6.597656 47.476562 -3.300781 42.0625 -1.3125 C 44 1.144531 46.171875 2.375 48.578125 2.375 C 51.191406 2.375 54.265625 1.019531 57.796875 -1.6875 Z M 20.265625 -38.171875 C 17.296875 -35.128906 15.8125 -31.359375 15.8125 -26.859375 C 15.8125 -22.359375 17.304688 -18.5625 20.296875 -15.46875 C 23.296875 -12.375 26.863281 -10.828125 31 -10.828125 C 35.144531 -10.828125 38.660156 -12.375 41.546875 -15.46875 C 44.441406 -18.5625 45.890625 -22.359375 45.890625 -26.859375 C 45.890625 -31.359375 44.441406 -35.128906 41.546875 -38.171875 C 38.660156 -41.222656 35.144531 -42.75 31 -42.75 C 26.8125 -42.75 23.234375 -41.222656 20.265625 -38.171875 Z M 20.265625 -38.171875 "/></g></g></g><g fill="#ffffff" fill-opacity="1"><g transform="translate(80.671913, 317.459421)"><g><path d="M 45.59375 -41.375 L 45.59375 0 L 32.3125 0 L 32.3125 -6.828125 C 29.5 -1.921875 25.019531 0.53125 18.875 0.53125 C 14.375 0.53125 10.78125 -0.898438 8.09375 -3.765625 C 5.40625 -6.628906 4.0625 -10.460938 4.0625 -15.265625 L 4.0625 -41.375 L 17.34375 -41.375 L 17.34375 -19.03125 C 17.34375 -16.570312 17.96875 -14.640625 19.21875 -13.234375 C 20.476562 -11.828125 22.15625 -11.125 24.25 -11.125 C 26.757812 -11.175781 28.726562 -12.109375 30.15625 -13.921875 C 31.59375 -15.742188 32.3125 -18.085938 32.3125 -20.953125 L 32.3125 -41.375 Z M 45.59375 -41.375 "/></g></g></g><g fill="#ffffff" fill-opacity="1"><g transform="translate(133.089777, 317.459421)"><g><path d="M 23.40625 -41.828125 C 30.570312 -41.828125 35.957031 -39.625 39.5625 -35.21875 C 43.164062 -30.820312 44.738281 -24.785156 44.28125 -17.109375 L 15.203125 -17.109375 C 15.859375 -14.660156 17.03125 -12.769531 18.71875 -11.4375 C 20.414062 -10.101562 22.488281 -9.4375 24.9375 -9.4375 C 28.726562 -9.4375 32.03125 -10.84375 34.84375 -13.65625 L 41.828125 -6.828125 C 37.378906 -1.972656 31.367188 0.453125 23.796875 0.453125 C 17.085938 0.453125 11.75 -1.460938 7.78125 -5.296875 C 3.820312 -9.128906 1.84375 -14.21875 1.84375 -20.5625 C 1.84375 -26.957031 3.820312 -32.097656 7.78125 -35.984375 C 11.75 -39.878906 16.957031 -41.828125 23.40625 -41.828125 Z M 14.96875 -24.25 L 31.546875 -24.25 C 31.546875 -26.757812 30.816406 -28.78125 29.359375 -30.3125 C 27.898438 -31.851562 25.96875 -32.625 23.5625 -32.625 C 21.3125 -32.625 19.414062 -31.867188 17.875 -30.359375 C 16.34375 -28.847656 15.375 -26.8125 14.96875 -24.25 Z M 14.96875 -24.25 "/></g></g></g><g fill="#ffffff" fill-opacity="1"><g transform="translate(180.826126, 317.459421)"><g><path d="M 18.578125 -41.375 L 18.578125 -34.390625 C 21.492188 -39.347656 25.96875 -41.878906 32 -41.984375 L 32 -30.015625 C 28.21875 -30.367188 25.125 -29.738281 22.71875 -28.125 C 20.3125 -26.519531 18.929688 -24.234375 18.578125 -21.265625 L 18.578125 0 L 5.296875 0 L 5.296875 -41.375 Z M 18.578125 -41.375 "/></g></g></g><g fill="#ffffff" fill-opacity="1"><g transform="translate(215.131907, 317.459421)"><g><path d="M 6.9375 -58.28125 C 8.25 -59.59375 9.925781 -60.25 11.96875 -60.25 C 14.019531 -60.25 15.695312 -59.59375 17 -58.28125 C 18.300781 -56.976562 18.953125 -55.300781 18.953125 -53.25 C 18.953125 -51.207031 18.300781 -49.519531 17 -48.1875 C 15.695312 -46.863281 14.019531 -46.203125 11.96875 -46.203125 C 9.925781 -46.203125 8.25 -46.863281 6.9375 -48.1875 C 5.632812 -49.519531 4.984375 -51.207031 4.984375 -53.25 C 4.984375 -55.300781 5.632812 -56.976562 6.9375 -58.28125 Z M 18.5 0 L 5.296875 0 L 5.296875 -41.375 L 18.5 -41.375 Z M 18.5 0 "/></g></g></g><g fill="#ffffff" fill-opacity="1"><g transform="translate(240.535157, 317.459421)"><g><path d="M 23.40625 -41.828125 C 30.570312 -41.828125 35.957031 -39.625 39.5625 -35.21875 C 43.164062 -30.820312 44.738281 -24.785156 44.28125 -17.109375 L 15.203125 -17.109375 C 15.859375 -14.660156 17.03125 -12.769531 18.71875 -11.4375 C 20.414062 -10.101562 22.488281 -9.4375 24.9375 -9.4375 C 28.726562 -9.4375 32.03125 -10.84375 34.84375 -13.65625 L 41.828125 -6.828125 C 37.378906 -1.972656 31.367188 0.453125 23.796875 0.453125 C 17.085938 0.453125 11.75 -1.460938 7.78125 -5.296875 C 3.820312 -9.128906 1.84375 -14.21875 1.84375 -20.5625 C 1.84375 -26.957031 3.820312 -32.097656 7.78125 -35.984375 C 11.75 -39.878906 16.957031 -41.828125 23.40625 -41.828125 Z M 14.96875 -24.25 L 31.546875 -24.25 C 31.546875 -26.757812 30.816406 -28.78125 29.359375 -30.3125 C 27.898438 -31.851562 25.96875 -32.625 23.5625 -32.625 C 21.3125 -32.625 19.414062 -31.867188 17.875 -30.359375 C 16.34375 -28.847656 15.375 -26.8125 14.96875 -24.25 Z M 14.96875 -24.25 "/></g></g></g><g fill="#ffffff" fill-opacity="1"><g transform="translate(288.271506, 317.459421)"><g><path d="M 20.109375 -41.984375 C 26.191406 -41.984375 31.867188 -40.421875 37.140625 -37.296875 L 32.625 -28.703125 C 27.5 -31.460938 23.148438 -32.84375 19.578125 -32.84375 C 16.859375 -32.84375 15.5 -31.898438 15.5 -30.015625 C 15.5 -28.984375 16.238281 -28.125 17.71875 -27.4375 C 19.207031 -26.75 21.023438 -26.125 23.171875 -25.5625 C 25.328125 -25 27.460938 -24.296875 29.578125 -23.453125 C 31.703125 -22.609375 33.503906 -21.265625 34.984375 -19.421875 C 36.472656 -17.578125 37.21875 -15.320312 37.21875 -12.65625 C 37.21875 -8.519531 35.601562 -5.285156 32.375 -2.953125 C 29.15625 -0.628906 24.960938 0.53125 19.796875 0.53125 C 12.484375 0.53125 6.296875 -1.410156 1.234375 -5.296875 L 5.453125 -13.734375 C 10.304688 -10.304688 15.191406 -8.59375 20.109375 -8.59375 C 23.128906 -8.59375 24.640625 -9.539062 24.640625 -11.4375 C 24.640625 -12.507812 23.910156 -13.40625 22.453125 -14.125 C 20.992188 -14.84375 19.210938 -15.484375 17.109375 -16.046875 C 15.015625 -16.609375 12.914062 -17.3125 10.8125 -18.15625 C 8.71875 -19 6.941406 -20.316406 5.484375 -22.109375 C 4.023438 -23.898438 3.296875 -26.148438 3.296875 -28.859375 C 3.296875 -33.003906 4.851562 -36.226562 7.96875 -38.53125 C 11.09375 -40.832031 15.140625 -41.984375 20.109375 -41.984375 Z M 20.109375 -41.984375 "/></g></g></g><g clip-path="url(#f362ec0f3e)"><path fill="#ffcc58" d="M 610.785156 33.386719 L 610.785156 543.386719 L 100.785156 543.386719 L 100.785156 33.386719 Z M 610.785156 33.386719 " fill-opacity="1" fill-rule="nonzero"/></g><g fill="#ff7477" fill-opacity="1"><g transform="translate(421.846158, 229.37251)"><g><path d="M 12.03125 -17.109375 C 15.15625 -17.109375 17.738281 -16.101562 19.78125 -14.09375 C 21.832031 -12.09375 22.859375 -9.550781 22.859375 -6.46875 C 22.859375 -4.601562 22.46875 -3.101562 21.6875 -1.96875 C 20.90625 -0.832031 19.882812 -0.265625 18.625 -0.265625 C 17.914062 -0.265625 17.320312 -0.453125 16.84375 -0.828125 C 16.375 -1.210938 16.109375 -1.757812 16.046875 -2.46875 L 16.015625 -3.265625 C 15.535156 -2.421875 14.878906 -1.769531 14.046875 -1.3125 C 13.210938 -0.851562 12.289062 -0.625 11.28125 -0.625 C 9.65625 -0.625 8.28125 -1.171875 7.15625 -2.265625 C 6.039062 -3.359375 5.484375 -4.757812 5.484375 -6.46875 C 5.484375 -8.164062 6.007812 -9.582031 7.0625 -10.71875 C 8.113281 -11.851562 9.460938 -12.421875 11.109375 -12.421875 C 12.191406 -12.421875 13.144531 -12.171875 13.96875 -11.671875 C 14.800781 -11.171875 15.351562 -10.613281 15.625 -10 L 15.625 -12.21875 L 17.421875 -12.21875 L 17.421875 -3.1875 C 17.421875 -2.675781 17.546875 -2.28125 17.796875 -2 C 18.054688 -1.726562 18.390625 -1.59375 18.796875 -1.59375 C 19.535156 -1.59375 20.15625 -2.039062 20.65625 -2.9375 C 21.15625 -3.84375 21.40625 -5.003906 21.40625 -6.421875 C 21.40625 -9.078125 20.535156 -11.269531 18.796875 -13 C 17.066406 -14.738281 14.8125 -15.609375 12.03125 -15.609375 C 9.3125 -15.609375 7.03125 -14.722656 5.1875 -12.953125 C 3.351562 -11.191406 2.4375 -9.015625 2.4375 -6.421875 C 2.4375 -3.878906 3.316406 -1.773438 5.078125 -0.109375 C 6.847656 1.546875 9.0625 2.375 11.71875 2.375 C 12.457031 2.375 13.25 2.253906 14.09375 2.015625 C 14.9375 1.785156 15.65625 1.457031 16.25 1.03125 L 16.9375 2.390625 C 16.269531 2.835938 15.445312 3.195312 14.46875 3.46875 C 13.488281 3.75 12.570312 3.890625 11.71875 3.890625 C 8.644531 3.890625 6.082031 2.910156 4.03125 0.953125 C 1.988281 -1.003906 0.96875 -3.460938 0.96875 -6.421875 C 0.96875 -9.460938 2.023438 -12.003906 4.140625 -14.046875 C 6.253906 -16.085938 8.882812 -17.109375 12.03125 -17.109375 Z M 11.421875 -10.609375 C 10.242188 -10.609375 9.28125 -10.21875 8.53125 -9.4375 C 7.789062 -8.664062 7.421875 -7.710938 7.421875 -6.578125 C 7.421875 -5.378906 7.796875 -4.378906 8.546875 -3.578125 C 9.304688 -2.785156 10.273438 -2.390625 11.453125 -2.390625 C 12.660156 -2.390625 13.640625 -2.785156 14.390625 -3.578125 C 15.148438 -4.367188 15.53125 -5.359375 15.53125 -6.546875 C 15.53125 -7.703125 15.144531 -8.664062 14.375 -9.4375 C 13.613281 -10.21875 12.628906 -10.609375 11.421875 -10.609375 Z M 11.421875 -10.609375 "/></g></g></g><g fill="#ff7477" fill-opacity="1"><g transform="translate(446.131782, 229.37251)"><g><path d="M 18.59375 -12.796875 C 20.082031 -12.796875 21.242188 -12.359375 22.078125 -11.484375 C 22.910156 -10.609375 23.328125 -9.394531 23.328125 -7.84375 L 23.328125 0 L 21.453125 0 L 21.453125 -7.34375 C 21.453125 -8.46875 21.132812 -9.347656 20.5 -9.984375 C 19.875 -10.617188 19.015625 -10.9375 17.921875 -10.9375 C 16.617188 -10.90625 15.597656 -10.460938 14.859375 -9.609375 C 14.128906 -8.753906 13.765625 -7.632812 13.765625 -6.25 L 13.765625 0 L 11.859375 0 L 11.859375 -7.34375 C 11.859375 -8.46875 11.546875 -9.347656 10.921875 -9.984375 C 10.304688 -10.617188 9.441406 -10.9375 8.328125 -10.9375 C 7.046875 -10.90625 6.03125 -10.460938 5.28125 -9.609375 C 4.53125 -8.753906 4.15625 -7.632812 4.15625 -6.25 L 4.15625 0 L 2.296875 0 L 2.296875 -12.734375 L 4.15625 -12.734375 L 4.15625 -9.859375 C 4.976562 -11.785156 6.597656 -12.765625 9.015625 -12.796875 C 10.203125 -12.796875 11.191406 -12.503906 11.984375 -11.921875 C 12.773438 -11.347656 13.304688 -10.53125 13.578125 -9.46875 C 14.347656 -11.65625 16.019531 -12.765625 18.59375 -12.796875 Z M 18.59375 -12.796875 "/></g></g></g><g fill="#ff7477" fill-opacity="1"><g transform="translate(471.817567, 229.37251)"><g><path d="M 7.3125 -12.78125 C 9.332031 -12.789062 10.851562 -12.148438 11.875 -10.859375 C 12.894531 -9.578125 13.359375 -7.832031 13.265625 -5.625 L 2.875 -5.625 C 3.03125 -4.382812 3.523438 -3.394531 4.359375 -2.65625 C 5.203125 -1.925781 6.242188 -1.5625 7.484375 -1.5625 C 9.097656 -1.5625 10.410156 -2.097656 11.421875 -3.171875 L 12.46875 -2.046875 C 11.195312 -0.628906 9.488281 0.078125 7.34375 0.078125 C 5.476562 0.078125 3.957031 -0.515625 2.78125 -1.703125 C 1.601562 -2.898438 1.015625 -4.445312 1.015625 -6.34375 C 1.015625 -8.25 1.601562 -9.796875 2.78125 -10.984375 C 3.957031 -12.179688 5.46875 -12.78125 7.3125 -12.78125 Z M 2.875 -7.171875 L 11.578125 -7.171875 C 11.503906 -8.398438 11.082031 -9.367188 10.3125 -10.078125 C 9.550781 -10.796875 8.550781 -11.15625 7.3125 -11.15625 C 6.101562 -11.15625 5.097656 -10.789062 4.296875 -10.0625 C 3.492188 -9.34375 3.019531 -8.378906 2.875 -7.171875 Z M 2.875 -7.171875 "/></g></g></g><g fill="#ff7477" fill-opacity="1"><g transform="translate(486.495232, 229.37251)"><g><path d="M 13.984375 -17.921875 L 13.984375 0 L 12.109375 0 L 12.109375 -2.734375 C 11.109375 -0.847656 9.457031 0.09375 7.15625 0.09375 C 5.34375 0.09375 3.863281 -0.507812 2.71875 -1.71875 C 1.582031 -2.925781 1.015625 -4.476562 1.015625 -6.375 C 1.015625 -8.28125 1.582031 -9.832031 2.71875 -11.03125 C 3.851562 -12.226562 5.320312 -12.828125 7.125 -12.828125 C 8.25 -12.828125 9.242188 -12.582031 10.109375 -12.09375 C 10.972656 -11.601562 11.640625 -10.898438 12.109375 -9.984375 L 12.109375 -17.921875 Z M 7.515625 -1.59375 C 8.847656 -1.59375 9.945312 -2.035156 10.8125 -2.921875 C 11.675781 -3.804688 12.109375 -4.941406 12.109375 -6.328125 C 12.109375 -7.710938 11.675781 -8.851562 10.8125 -9.75 C 9.945312 -10.65625 8.847656 -11.109375 7.515625 -11.109375 C 6.160156 -11.109375 5.050781 -10.65625 4.1875 -9.75 C 3.332031 -8.851562 2.90625 -7.710938 2.90625 -6.328125 C 2.90625 -4.941406 3.332031 -3.804688 4.1875 -2.921875 C 5.050781 -2.035156 6.160156 -1.59375 7.515625 -1.59375 Z M 7.515625 -1.59375 "/></g></g></g><g fill="#ff7477" fill-opacity="1"><g transform="translate(503.369694, 229.37251)"><g><path d="M 2.328125 -17.3125 C 2.566406 -17.5625 2.863281 -17.6875 3.21875 -17.6875 C 3.570312 -17.6875 3.863281 -17.5625 4.09375 -17.3125 C 4.320312 -17.0625 4.4375 -16.75 4.4375 -16.375 C 4.4375 -16.007812 4.320312 -15.703125 4.09375 -15.453125 C 3.863281 -15.203125 3.570312 -15.078125 3.21875 -15.078125 C 2.863281 -15.078125 2.566406 -15.203125 2.328125 -15.453125 C 2.097656 -15.703125 1.984375 -16.007812 1.984375 -16.375 C 1.984375 -16.75 2.097656 -17.0625 2.328125 -17.3125 Z M 4.15625 0 L 2.296875 0 L 2.296875 -12.734375 L 4.15625 -12.734375 Z M 4.15625 0 "/></g></g></g><g fill="#ff7477" fill-opacity="1"><g transform="translate(510.298233, 229.37251)"><g><path d="M 10.1875 0 L 10.1875 -1.953125 C 9.175781 -0.585938 7.625 0.09375 5.53125 0.09375 C 4.238281 0.09375 3.191406 -0.269531 2.390625 -1 C 1.597656 -1.738281 1.203125 -2.671875 1.203125 -3.796875 C 1.203125 -4.898438 1.617188 -5.78125 2.453125 -6.4375 C 3.296875 -7.09375 4.46875 -7.425781 5.96875 -7.4375 L 10.140625 -7.4375 L 10.140625 -8.1875 C 10.140625 -9.132812 9.847656 -9.863281 9.265625 -10.375 C 8.691406 -10.894531 7.847656 -11.15625 6.734375 -11.15625 C 5.453125 -11.15625 4.109375 -10.671875 2.703125 -9.703125 L 1.90625 -11.09375 C 2.8125 -11.6875 3.644531 -12.117188 4.40625 -12.390625 C 5.175781 -12.660156 6.078125 -12.796875 7.109375 -12.796875 C 8.660156 -12.796875 9.859375 -12.410156 10.703125 -11.640625 C 11.554688 -10.867188 11.988281 -9.789062 12 -8.40625 L 12.03125 0 Z M 5.890625 -1.546875 C 6.972656 -1.546875 7.894531 -1.796875 8.65625 -2.296875 C 9.425781 -2.804688 9.929688 -3.503906 10.171875 -4.390625 L 10.171875 -5.921875 L 6.203125 -5.921875 C 4.046875 -5.921875 2.96875 -5.234375 2.96875 -3.859375 C 2.96875 -3.148438 3.234375 -2.585938 3.765625 -2.171875 C 4.296875 -1.753906 5.003906 -1.546875 5.890625 -1.546875 Z M 5.890625 -1.546875 "/></g></g></g><g fill="#ffffff" fill-opacity="1"><g transform="translate(524.701623, 229.37251)"><g/></g></g><g fill="#ffffff" fill-opacity="1"><g transform="translate(531.799147, 229.37251)"><g><path d="M 5.671875 -12.796875 C 7.253906 -12.796875 8.609375 -12.410156 9.734375 -11.640625 L 9.015625 -10.140625 C 7.921875 -10.835938 6.769531 -11.1875 5.5625 -11.1875 C 4.800781 -11.1875 4.191406 -11.046875 3.734375 -10.765625 C 3.273438 -10.484375 3.046875 -10.0625 3.046875 -9.5 C 3.046875 -8.976562 3.289062 -8.5625 3.78125 -8.25 C 4.269531 -7.9375 4.859375 -7.679688 5.546875 -7.484375 C 6.242188 -7.296875 6.9375 -7.078125 7.625 -6.828125 C 8.320312 -6.578125 8.914062 -6.175781 9.40625 -5.625 C 9.894531 -5.082031 10.140625 -4.390625 10.140625 -3.546875 C 10.140625 -2.359375 9.691406 -1.457031 8.796875 -0.84375 C 7.910156 -0.226562 6.804688 0.078125 5.484375 0.078125 C 3.472656 0.078125 1.847656 -0.519531 0.609375 -1.71875 L 1.328125 -3.140625 C 1.859375 -2.640625 2.503906 -2.242188 3.265625 -1.953125 C 4.035156 -1.660156 4.800781 -1.515625 5.5625 -1.515625 C 6.34375 -1.515625 6.988281 -1.664062 7.5 -1.96875 C 8.007812 -2.28125 8.269531 -2.734375 8.28125 -3.328125 C 8.300781 -3.890625 8.066406 -4.335938 7.578125 -4.671875 C 7.097656 -5.015625 6.507812 -5.285156 5.8125 -5.484375 C 5.125 -5.691406 4.429688 -5.910156 3.734375 -6.140625 C 3.046875 -6.378906 2.457031 -6.765625 1.96875 -7.296875 C 1.488281 -7.828125 1.25 -8.507812 1.25 -9.34375 C 1.25 -10.488281 1.671875 -11.347656 2.515625 -11.921875 C 3.367188 -12.503906 4.421875 -12.796875 5.671875 -12.796875 Z M 5.671875 -12.796875 "/></g></g></g><g fill="#ffffff" fill-opacity="1"><g transform="translate(543.217835, 229.37251)"><g><path d="M 7.3125 -12.78125 C 9.363281 -12.789062 11 -12.160156 12.21875 -10.890625 L 11.1875 -9.5625 C 10.15625 -10.550781 8.890625 -11.046875 7.390625 -11.046875 C 6.066406 -11.046875 4.984375 -10.609375 4.140625 -9.734375 C 3.296875 -8.867188 2.875 -7.742188 2.875 -6.359375 C 2.875 -4.972656 3.296875 -3.835938 4.140625 -2.953125 C 4.984375 -2.078125 6.066406 -1.640625 7.390625 -1.640625 C 9.097656 -1.640625 10.410156 -2.1875 11.328125 -3.28125 L 12.421875 -2.125 C 11.210938 -0.65625 9.507812 0.078125 7.3125 0.078125 C 5.46875 0.078125 3.957031 -0.515625 2.78125 -1.703125 C 1.601562 -2.898438 1.015625 -4.453125 1.015625 -6.359375 C 1.015625 -8.234375 1.601562 -9.769531 2.78125 -10.96875 C 3.96875 -12.175781 5.476562 -12.78125 7.3125 -12.78125 Z M 7.3125 -12.78125 "/></g></g></g><g fill="#ffffff" fill-opacity="1"><g transform="translate(557.243704, 229.37251)"><g><path d="M 4.171875 -12.734375 L 4.171875 -9.90625 C 5.046875 -11.800781 6.570312 -12.765625 8.75 -12.796875 L 8.75 -10.890625 C 7.425781 -10.910156 6.359375 -10.546875 5.546875 -9.796875 C 4.742188 -9.046875 4.285156 -8.035156 4.171875 -6.765625 L 4.171875 0 L 2.296875 0 L 2.296875 -12.734375 Z M 4.171875 -12.734375 "/></g></g></g><g fill="#ffffff" fill-opacity="1"><g transform="translate(566.707009, 229.37251)"><g><path d="M 7.3125 -12.78125 C 9.332031 -12.789062 10.851562 -12.148438 11.875 -10.859375 C 12.894531 -9.578125 13.359375 -7.832031 13.265625 -5.625 L 2.875 -5.625 C 3.03125 -4.382812 3.523438 -3.394531 4.359375 -2.65625 C 5.203125 -1.925781 6.242188 -1.5625 7.484375 -1.5625 C 9.097656 -1.5625 10.410156 -2.097656 11.421875 -3.171875 L 12.46875 -2.046875 C 11.195312 -0.628906 9.488281 0.078125 7.34375 0.078125 C 5.476562 0.078125 3.957031 -0.515625 2.78125 -1.703125 C 1.601562 -2.898438 1.015625 -4.445312 1.015625 -6.34375 C 1.015625 -8.25 1.601562 -9.796875 2.78125 -10.984375 C 3.957031 -12.179688 5.46875 -12.78125 7.3125 -12.78125 Z M 2.875 -7.171875 L 11.578125 -7.171875 C 11.503906 -8.398438 11.082031 -9.367188 10.3125 -10.078125 C 9.550781 -10.796875 8.550781 -11.15625 7.3125 -11.15625 C 6.101562 -11.15625 5.097656 -10.789062 4.296875 -10.0625 C 3.492188 -9.34375 3.019531 -8.378906 2.875 -7.171875 Z M 2.875 -7.171875 "/></g></g></g><g fill="#ffffff" fill-opacity="1"><g transform="translate(581.384677, 229.37251)"><g><path d="M 7.3125 -12.78125 C 9.332031 -12.789062 10.851562 -12.148438 11.875 -10.859375 C 12.894531 -9.578125 13.359375 -7.832031 13.265625 -5.625 L 2.875 -5.625 C 3.03125 -4.382812 3.523438 -3.394531 4.359375 -2.65625 C 5.203125 -1.925781 6.242188 -1.5625 7.484375 -1.5625 C 9.097656 -1.5625 10.410156 -2.097656 11.421875 -3.171875 L 12.46875 -2.046875 C 11.195312 -0.628906 9.488281 0.078125 7.34375 0.078125 C 5.476562 0.078125 3.957031 -0.515625 2.78125 -1.703125 C 1.601562 -2.898438 1.015625 -4.445312 1.015625 -6.34375 C 1.015625 -8.25 1.601562 -9.796875 2.78125 -10.984375 C 3.957031 -12.179688 5.46875 -12.78125 7.3125 -12.78125 Z M 2.875 -7.171875 L 11.578125 -7.171875 C 11.503906 -8.398438 11.082031 -9.367188 10.3125 -10.078125 C 9.550781 -10.796875 8.550781 -11.15625 7.3125 -11.15625 C 6.101562 -11.15625 5.097656 -10.789062 4.296875 -10.0625 C 3.492188 -9.34375 3.019531 -8.378906 2.875 -7.171875 Z M 2.875 -7.171875 "/></g></g></g><g fill="#ffffff" fill-opacity="1"><g transform="translate(596.062342, 229.37251)"><g><path d="M 9.109375 -12.796875 C 10.617188 -12.796875 11.800781 -12.359375 12.65625 -11.484375 C 13.507812 -10.609375 13.9375 -9.394531 13.9375 -7.84375 L 13.9375 0 L 12.046875 0 L 12.046875 -7.34375 C 12.046875 -8.46875 11.726562 -9.34375 11.09375 -9.96875 C 10.457031 -10.601562 9.578125 -10.921875 8.453125 -10.921875 C 7.210938 -10.898438 6.21875 -10.519531 5.46875 -9.78125 C 4.71875 -9.039062 4.285156 -8.0625 4.171875 -6.84375 L 4.171875 0 L 2.296875 0 L 2.296875 -12.734375 L 4.171875 -12.734375 L 4.171875 -9.921875 C 5.046875 -11.804688 6.691406 -12.765625 9.109375 -12.796875 Z M 9.109375 -12.796875 "/></g></g></g><g fill="#ffffff" fill-opacity="1"><g transform="translate(612.38157, 229.37251)"><g/></g></g><g fill="#ffffff" fill-opacity="1"><g transform="translate(619.479093, 229.37251)"><g><path d="M 10.1875 0 L 10.1875 -1.953125 C 9.175781 -0.585938 7.625 0.09375 5.53125 0.09375 C 4.238281 0.09375 3.191406 -0.269531 2.390625 -1 C 1.597656 -1.738281 1.203125 -2.671875 1.203125 -3.796875 C 1.203125 -4.898438 1.617188 -5.78125 2.453125 -6.4375 C 3.296875 -7.09375 4.46875 -7.425781 5.96875 -7.4375 L 10.140625 -7.4375 L 10.140625 -8.1875 C 10.140625 -9.132812 9.847656 -9.863281 9.265625 -10.375 C 8.691406 -10.894531 7.847656 -11.15625 6.734375 -11.15625 C 5.453125 -11.15625 4.109375 -10.671875 2.703125 -9.703125 L 1.90625 -11.09375 C 2.8125 -11.6875 3.644531 -12.117188 4.40625 -12.390625 C 5.175781 -12.660156 6.078125 -12.796875 7.109375 -12.796875 C 8.660156 -12.796875 9.859375 -12.410156 10.703125 -11.640625 C 11.554688 -10.867188 11.988281 -9.789062 12 -8.40625 L 12.03125 0 Z M 5.890625 -1.546875 C 6.972656 -1.546875 7.894531 -1.796875 8.65625 -2.296875 C 9.425781 -2.804688 9.929688 -3.503906 10.171875 -4.390625 L 10.171875 -5.921875 L 6.203125 -5.921875 C 4.046875 -5.921875 2.96875 -5.234375 2.96875 -3.859375 C 2.96875 -3.148438 3.234375 -2.585938 3.765625 -2.171875 C 4.296875 -1.753906 5.003906 -1.546875 5.890625 -1.546875 Z M 5.890625 -1.546875 "/></g></g></g><g fill="#ffffff" fill-opacity="1"><g transform="translate(633.891209, 229.37251)"><g><path d="M 9.109375 -12.796875 C 10.617188 -12.796875 11.800781 -12.359375 12.65625 -11.484375 C 13.507812 -10.609375 13.9375 -9.394531 13.9375 -7.84375 L 13.9375 0 L 12.046875 0 L 12.046875 -7.34375 C 12.046875 -8.46875 11.726562 -9.34375 11.09375 -9.96875 C 10.457031 -10.601562 9.578125 -10.921875 8.453125 -10.921875 C 7.210938 -10.898438 6.21875 -10.519531 5.46875 -9.78125 C 4.71875 -9.039062 4.285156 -8.0625 4.171875 -6.84375 L 4.171875 0 L 2.296875 0 L 2.296875 -12.734375 L 4.171875 -12.734375 L 4.171875 -9.921875 C 5.046875 -11.804688 6.691406 -12.765625 9.109375 -12.796875 Z M 9.109375 -12.796875 "/></g></g></g><g fill="#ffffff" fill-opacity="1"><g transform="translate(650.210437, 229.37251)"><g><path d="M 13.984375 -17.921875 L 13.984375 0 L 12.109375 0 L 12.109375 -2.734375 C 11.109375 -0.847656 9.457031 0.09375 7.15625 0.09375 C 5.34375 0.09375 3.863281 -0.507812 2.71875 -1.71875 C 1.582031 -2.925781 1.015625 -4.476562 1.015625 -6.375 C 1.015625 -8.28125 1.582031 -9.832031 2.71875 -11.03125 C 3.851562 -12.226562 5.320312 -12.828125 7.125 -12.828125 C 8.25 -12.828125 9.242188 -12.582031 10.109375 -12.09375 C 10.972656 -11.601562 11.640625 -10.898438 12.109375 -9.984375 L 12.109375 -17.921875 Z M 7.515625 -1.59375 C 8.847656 -1.59375 9.945312 -2.035156 10.8125 -2.921875 C 11.675781 -3.804688 12.109375 -4.941406 12.109375 -6.328125 C 12.109375 -7.710938 11.675781 -8.851562 10.8125 -9.75 C 9.945312 -10.65625 8.847656 -11.109375 7.515625 -11.109375 C 6.160156 -11.109375 5.050781 -10.65625 4.1875 -9.75 C 3.332031 -8.851562 2.90625 -7.710938 2.90625 -6.328125 C 2.90625 -4.941406 3.332031 -3.804688 4.1875 -2.921875 C 5.050781 -2.035156 6.160156 -1.59375 7.515625 -1.59375 Z M 7.515625 -1.59375 "/></g></g></g><g fill="#ffffff" fill-opacity="1"><g transform="translate(421.846158, 265.372509)"><g><path d="M 4.96875 -17.921875 L 6.6875 -17.921875 C 4.820312 -15.023438 3.890625 -11.539062 3.890625 -7.46875 C 3.890625 -3.351562 4.820312 0.132812 6.6875 3 L 4.96875 3 C 3.0625 0.207031 2.109375 -3.28125 2.109375 -7.46875 C 2.109375 -11.625 3.0625 -15.109375 4.96875 -17.921875 Z M 4.96875 -17.921875 "/></g></g></g><g fill="#ffffff" fill-opacity="1"><g transform="translate(429.643764, 265.372509)"><g><path d="M 18.59375 -12.796875 C 20.082031 -12.796875 21.242188 -12.359375 22.078125 -11.484375 C 22.910156 -10.609375 23.328125 -9.394531 23.328125 -7.84375 L 23.328125 0 L 21.453125 0 L 21.453125 -7.34375 C 21.453125 -8.46875 21.132812 -9.347656 20.5 -9.984375 C 19.875 -10.617188 19.015625 -10.9375 17.921875 -10.9375 C 16.617188 -10.90625 15.597656 -10.460938 14.859375 -9.609375 C 14.128906 -8.753906 13.765625 -7.632812 13.765625 -6.25 L 13.765625 0 L 11.859375 0 L 11.859375 -7.34375 C 11.859375 -8.46875 11.546875 -9.347656 10.921875 -9.984375 C 10.304688 -10.617188 9.441406 -10.9375 8.328125 -10.9375 C 7.046875 -10.90625 6.03125 -10.460938 5.28125 -9.609375 C 4.53125 -8.753906 4.15625 -7.632812 4.15625 -6.25 L 4.15625 0 L 2.296875 0 L 2.296875 -12.734375 L 4.15625 -12.734375 L 4.15625 -9.859375 C 4.976562 -11.785156 6.597656 -12.765625 9.015625 -12.796875 C 10.203125 -12.796875 11.191406 -12.503906 11.984375 -11.921875 C 12.773438 -11.347656 13.304688 -10.53125 13.578125 -9.46875 C 14.347656 -11.65625 16.019531 -12.765625 18.59375 -12.796875 Z M 18.59375 -12.796875 "/></g></g></g><g fill="#ffffff" fill-opacity="1"><g transform="translate(455.329549, 265.372509)"><g><path d="M 10.1875 0 L 10.1875 -1.953125 C 9.175781 -0.585938 7.625 0.09375 5.53125 0.09375 C 4.238281 0.09375 3.191406 -0.269531 2.390625 -1 C 1.597656 -1.738281 1.203125 -2.671875 1.203125 -3.796875 C 1.203125 -4.898438 1.617188 -5.78125 2.453125 -6.4375 C 3.296875 -7.09375 4.46875 -7.425781 5.96875 -7.4375 L 10.140625 -7.4375 L 10.140625 -8.1875 C 10.140625 -9.132812 9.847656 -9.863281 9.265625 -10.375 C 8.691406 -10.894531 7.847656 -11.15625 6.734375 -11.15625 C 5.453125 -11.15625 4.109375 -10.671875 2.703125 -9.703125 L 1.90625 -11.09375 C 2.8125 -11.6875 3.644531 -12.117188 4.40625 -12.390625 C 5.175781 -12.660156 6.078125 -12.796875 7.109375 -12.796875 C 8.660156 -12.796875 9.859375 -12.410156 10.703125 -11.640625 C 11.554688 -10.867188 11.988281 -9.789062 12 -8.40625 L 12.03125 0 Z M 5.890625 -1.546875 C 6.972656 -1.546875 7.894531 -1.796875 8.65625 -2.296875 C 9.425781 -2.804688 9.929688 -3.503906 10.171875 -4.390625 L 10.171875 -5.921875 L 6.203125 -5.921875 C 4.046875 -5.921875 2.96875 -5.234375 2.96875 -3.859375 C 2.96875 -3.148438 3.234375 -2.585938 3.765625 -2.171875 C 4.296875 -1.753906 5.003906 -1.546875 5.890625 -1.546875 Z M 5.890625 -1.546875 "/></g></g></g><g fill="#ffffff" fill-opacity="1"><g transform="translate(469.741665, 265.372509)"><g><path d="M 6.375 -7.90625 L 9.8125 -12.734375 L 11.890625 -12.734375 L 7.640625 -6.546875 L 12.203125 0 L 10 0 L 6.375 -5.1875 L 2.640625 0 L 0.5 0 L 5.140625 -6.546875 L 0.828125 -12.734375 L 3 -12.734375 Z M 6.375 -7.90625 "/></g></g></g><g fill="#ffffff" fill-opacity="1"><g transform="translate(482.995033, 265.372509)"><g><path d="M 7.21875 -6.625 L 1.546875 -6.625 L 1.546875 -8.015625 L 7.21875 -8.015625 Z M 7.21875 -6.625 "/></g></g></g><g fill="#ffffff" fill-opacity="1"><g transform="translate(492.24107, 265.372509)"><g><path d="M 16.234375 0 L 14.28125 0 L 10.53125 -10.34375 L 6.8125 0 L 4.859375 0 L 0.09375 -12.734375 L 2.078125 -12.734375 L 5.84375 -1.953125 L 9.546875 -12.734375 L 11.515625 -12.734375 L 15.265625 -1.953125 L 18.984375 -12.734375 L 20.9375 -12.734375 Z M 16.234375 0 "/></g></g></g><g fill="#ffffff" fill-opacity="1"><g transform="translate(513.581542, 265.372509)"><g><path d="M 2.328125 -17.3125 C 2.566406 -17.5625 2.863281 -17.6875 3.21875 -17.6875 C 3.570312 -17.6875 3.863281 -17.5625 4.09375 -17.3125 C 4.320312 -17.0625 4.4375 -16.75 4.4375 -16.375 C 4.4375 -16.007812 4.320312 -15.703125 4.09375 -15.453125 C 3.863281 -15.203125 3.570312 -15.078125 3.21875 -15.078125 C 2.863281 -15.078125 2.566406 -15.203125 2.328125 -15.453125 C 2.097656 -15.703125 1.984375 -16.007812 1.984375 -16.375 C 1.984375 -16.75 2.097656 -17.0625 2.328125 -17.3125 Z M 4.15625 0 L 2.296875 0 L 2.296875 -12.734375 L 4.15625 -12.734375 Z M 4.15625 0 "/></g></g></g><g fill="#ffffff" fill-opacity="1"><g transform="translate(520.510086, 265.372509)"><g><path d="M 13.984375 -17.921875 L 13.984375 0 L 12.109375 0 L 12.109375 -2.734375 C 11.109375 -0.847656 9.457031 0.09375 7.15625 0.09375 C 5.34375 0.09375 3.863281 -0.507812 2.71875 -1.71875 C 1.582031 -2.925781 1.015625 -4.476562 1.015625 -6.375 C 1.015625 -8.28125 1.582031 -9.832031 2.71875 -11.03125 C 3.851562 -12.226562 5.320312 -12.828125 7.125 -12.828125 C 8.25 -12.828125 9.242188 -12.582031 10.109375 -12.09375 C 10.972656 -11.601562 11.640625 -10.898438 12.109375 -9.984375 L 12.109375 -17.921875 Z M 7.515625 -1.59375 C 8.847656 -1.59375 9.945312 -2.035156 10.8125 -2.921875 C 11.675781 -3.804688 12.109375 -4.941406 12.109375 -6.328125 C 12.109375 -7.710938 11.675781 -8.851562 10.8125 -9.75 C 9.945312 -10.65625 8.847656 -11.109375 7.515625 -11.109375 C 6.160156 -11.109375 5.050781 -10.65625 4.1875 -9.75 C 3.332031 -8.851562 2.90625 -7.710938 2.90625 -6.328125 C 2.90625 -4.941406 3.332031 -3.804688 4.1875 -2.921875 C 5.050781 -2.035156 6.160156 -1.59375 7.515625 -1.59375 Z M 7.515625 -1.59375 "/></g></g></g><g fill="#ffffff" fill-opacity="1"><g transform="translate(537.384548, 265.372509)"><g><path d="M 8.328125 -2.390625 L 8.859375 -0.875 C 7.941406 -0.238281 6.984375 0.0820312 5.984375 0.09375 C 5.003906 0.09375 4.21875 -0.207031 3.625 -0.8125 C 3.039062 -1.414062 2.75 -2.320312 2.75 -3.53125 L 2.75 -10.796875 L 0.921875 -10.796875 L 0.921875 -12.3125 L 2.75 -12.3125 L 2.75 -15.671875 L 4.609375 -15.671875 L 4.609375 -12.3125 L 8.640625 -12.34375 L 8.640625 -10.796875 L 4.609375 -10.796875 L 4.609375 -3.859375 C 4.609375 -2.441406 5.175781 -1.734375 6.3125 -1.734375 C 6.96875 -1.734375 7.640625 -1.953125 8.328125 -2.390625 Z M 8.328125 -2.390625 "/></g></g></g><g fill="#ffffff" fill-opacity="1"><g transform="translate(547.282382, 265.372509)"><g><path d="M 9.25 -12.796875 C 10.757812 -12.796875 11.941406 -12.359375 12.796875 -11.484375 C 13.648438 -10.609375 14.078125 -9.394531 14.078125 -7.84375 L 14.078125 0 L 12.203125 0 L 12.203125 -7.34375 C 12.203125 -8.46875 11.882812 -9.34375 11.25 -9.96875 C 10.613281 -10.601562 9.726562 -10.921875 8.59375 -10.921875 C 7.257812 -10.898438 6.207031 -10.460938 5.4375 -9.609375 C 4.675781 -8.753906 4.296875 -7.632812 4.296875 -6.25 L 4.296875 0 L 2.421875 0 L 2.421875 -17.921875 L 4.296875 -17.921875 L 4.296875 -9.875 C 5.140625 -11.789062 6.789062 -12.765625 9.25 -12.796875 Z M 9.25 -12.796875 "/></g></g></g><g fill="#ffffff" fill-opacity="1"><g transform="translate(563.746459, 265.372509)"><g><path d="M 2.421875 -9.5 C 2.742188 -9.5 3.015625 -9.375 3.234375 -9.125 C 3.460938 -8.882812 3.578125 -8.585938 3.578125 -8.234375 C 3.578125 -7.878906 3.460938 -7.582031 3.234375 -7.34375 C 3.015625 -7.101562 2.742188 -6.984375 2.421875 -6.984375 C 2.078125 -6.984375 1.789062 -7.101562 1.5625 -7.34375 C 1.34375 -7.582031 1.234375 -7.878906 1.234375 -8.234375 C 1.234375 -8.585938 1.34375 -8.882812 1.5625 -9.125 C 1.789062 -9.375 2.078125 -9.5 2.421875 -9.5 Z M 2.421875 -2.3125 C 2.742188 -2.3125 3.015625 -2.191406 3.234375 -1.953125 C 3.460938 -1.710938 3.578125 -1.414062 3.578125 -1.0625 C 3.578125 -0.707031 3.460938 -0.410156 3.234375 -0.171875 C 3.015625 0.0664062 2.742188 0.1875 2.421875 0.1875 C 2.078125 0.1875 1.789062 0.0664062 1.5625 -0.171875 C 1.34375 -0.410156 1.234375 -0.707031 1.234375 -1.0625 C 1.234375 -1.414062 1.34375 -1.710938 1.5625 -1.953125 C 1.789062 -2.191406 2.078125 -2.3125 2.421875 -2.3125 Z M 2.421875 -2.3125 "/></g></g></g><g fill="#ffffff" fill-opacity="1"><g transform="translate(568.961016, 265.372509)"><g/></g></g><g fill="#ffcc58" fill-opacity="1"><g transform="translate(576.053187, 265.372509)"><g><path d="M 8.234375 -16.984375 C 9.890625 -16.984375 11.484375 -16.582031 13.015625 -15.78125 L 12.25 -14.234375 C 11.070312 -14.921875 9.773438 -15.265625 8.359375 -15.265625 C 6.566406 -15.265625 5.222656 -14.585938 4.328125 -13.234375 C 3.441406 -11.878906 3.0625 -10.046875 3.1875 -7.734375 C 3.5625 -8.734375 4.1875 -9.5 5.0625 -10.03125 C 5.9375 -10.5625 6.992188 -10.828125 8.234375 -10.828125 C 9.890625 -10.828125 11.195312 -10.347656 12.15625 -9.390625 C 13.113281 -8.429688 13.59375 -7.132812 13.59375 -5.5 C 13.59375 -3.78125 13.070312 -2.414062 12.03125 -1.40625 C 11 -0.40625 9.613281 0.09375 7.875 0.09375 C 5.8125 0.09375 4.195312 -0.617188 3.03125 -2.046875 C 1.863281 -3.484375 1.28125 -5.5 1.28125 -8.09375 C 1.28125 -10.78125 1.90625 -12.929688 3.15625 -14.546875 C 4.40625 -16.171875 6.097656 -16.984375 8.234375 -16.984375 Z M 7.90625 -9.171875 C 6.613281 -9.171875 5.578125 -8.800781 4.796875 -8.0625 C 4.015625 -7.320312 3.628906 -6.429688 3.640625 -5.390625 C 3.628906 -4.453125 3.976562 -3.597656 4.6875 -2.828125 C 5.40625 -2.066406 6.425781 -1.6875 7.75 -1.6875 C 8.957031 -1.6875 9.929688 -2.03125 10.671875 -2.71875 C 11.410156 -3.414062 11.78125 -4.351562 11.78125 -5.53125 C 11.78125 -6.65625 11.429688 -7.539062 10.734375 -8.1875 C 10.035156 -8.84375 9.09375 -9.171875 7.90625 -9.171875 Z M 7.90625 -9.171875 "/></g></g></g><g fill="#ffcc58" fill-opacity="1"><g transform="translate(591.117103, 265.372509)"><g><path d="M 3.09375 -14.75 C 4.300781 -16.21875 6.023438 -16.953125 8.265625 -16.953125 C 10.503906 -16.953125 12.226562 -16.21875 13.4375 -14.75 C 14.644531 -13.289062 15.25 -11.191406 15.25 -8.453125 C 15.25 -5.710938 14.644531 -3.609375 13.4375 -2.140625 C 12.226562 -0.679688 10.503906 0.046875 8.265625 0.046875 C 6.023438 0.046875 4.300781 -0.679688 3.09375 -2.140625 C 1.882812 -3.609375 1.28125 -5.710938 1.28125 -8.453125 C 1.28125 -11.191406 1.882812 -13.289062 3.09375 -14.75 Z M 13.28125 -8.453125 C 13.28125 -13.023438 11.601562 -15.3125 8.25 -15.3125 C 4.90625 -15.3125 3.234375 -13.023438 3.234375 -8.453125 C 3.234375 -3.878906 4.90625 -1.59375 8.25 -1.59375 C 11.601562 -1.59375 13.28125 -3.878906 13.28125 -8.453125 Z M 13.28125 -8.453125 "/></g></g></g><g fill="#ffcc58" fill-opacity="1"><g transform="translate(608.112266, 265.372509)"><g><path d="M 3.09375 -14.75 C 4.300781 -16.21875 6.023438 -16.953125 8.265625 -16.953125 C 10.503906 -16.953125 12.226562 -16.21875 13.4375 -14.75 C 14.644531 -13.289062 15.25 -11.191406 15.25 -8.453125 C 15.25 -5.710938 14.644531 -3.609375 13.4375 -2.140625 C 12.226562 -0.679688 10.503906 0.046875 8.265625 0.046875 C 6.023438 0.046875 4.300781 -0.679688 3.09375 -2.140625 C 1.882812 -3.609375 1.28125 -5.710938 1.28125 -8.453125 C 1.28125 -11.191406 1.882812 -13.289062 3.09375 -14.75 Z M 13.28125 -8.453125 C 13.28125 -13.023438 11.601562 -15.3125 8.25 -15.3125 C 4.90625 -15.3125 3.234375 -13.023438 3.234375 -8.453125 C 3.234375 -3.878906 4.90625 -1.59375 8.25 -1.59375 C 11.601562 -1.59375 13.28125 -3.878906 13.28125 -8.453125 Z M 13.28125 -8.453125 "/></g></g></g><g fill="#ffcc58" fill-opacity="1"><g transform="translate(625.107431, 265.372509)"><g><path d="M 9.203125 -12.796875 C 11.003906 -12.796875 12.472656 -12.191406 13.609375 -10.984375 C 14.742188 -9.773438 15.3125 -8.222656 15.3125 -6.328125 C 15.3125 -4.441406 14.75 -2.898438 13.625 -1.703125 C 12.507812 -0.515625 11.050781 0.078125 9.25 0.078125 C 6.945312 0.078125 5.296875 -0.859375 4.296875 -2.734375 L 4.296875 4.6875 L 2.421875 4.6875 L 2.421875 -12.734375 L 4.296875 -12.734375 L 4.296875 -9.984375 C 5.296875 -11.859375 6.929688 -12.796875 9.203125 -12.796875 Z M 8.859375 -1.640625 C 10.179688 -1.640625 11.269531 -2.082031 12.125 -2.96875 C 12.976562 -3.851562 13.40625 -4.988281 13.40625 -6.375 C 13.40625 -7.75 12.976562 -8.878906 12.125 -9.765625 C 11.269531 -10.660156 10.179688 -11.109375 8.859375 -11.109375 C 7.523438 -11.109375 6.429688 -10.664062 5.578125 -9.78125 C 4.722656 -8.894531 4.296875 -7.757812 4.296875 -6.375 C 4.296875 -4.988281 4.722656 -3.851562 5.578125 -2.96875 C 6.429688 -2.082031 7.523438 -1.640625 8.859375 -1.640625 Z M 8.859375 -1.640625 "/></g></g></g><g fill="#ffcc58" fill-opacity="1"><g transform="translate(641.909475, 265.372509)"><g><path d="M 6.375 -7.90625 L 9.8125 -12.734375 L 11.890625 -12.734375 L 7.640625 -6.546875 L 12.203125 0 L 10 0 L 6.375 -5.1875 L 2.640625 0 L 0.5 0 L 5.140625 -6.546875 L 0.828125 -12.734375 L 3 -12.734375 Z M 6.375 -7.90625 "/></g></g></g><g fill="#ffffff" fill-opacity="1"><g transform="translate(655.154746, 265.372509)"><g><path d="M 2.125 -17.921875 L 3.84375 -17.921875 C 5.757812 -15.109375 6.71875 -11.625 6.71875 -7.46875 C 6.71875 -3.28125 5.757812 0.207031 3.84375 3 L 2.125 3 C 3.988281 0.132812 4.921875 -3.351562 4.921875 -7.46875 C 4.921875 -11.539062 3.988281 -15.023438 2.125 -17.921875 Z M 2.125 -17.921875 "/></g></g></g><g fill="#ffffff" fill-opacity="1"><g transform="translate(663.314454, 265.372509)"><g/></g></g><g fill="#ffffff" fill-opacity="1"><g transform="translate(670.411979, 265.372509)"><g><path d="M 4.546875 -14.515625 L 4.546875 -9.828125 C 4.546875 -9.117188 4.4375 -8.582031 4.21875 -8.21875 C 4 -7.863281 3.640625 -7.601562 3.140625 -7.4375 C 3.640625 -7.289062 4 -7.035156 4.21875 -6.671875 C 4.4375 -6.316406 4.546875 -5.785156 4.546875 -5.078125 L 4.546875 -0.359375 C 4.546875 0.265625 4.726562 0.71875 5.09375 1 C 5.46875 1.28125 6.085938 1.421875 6.953125 1.421875 L 6.953125 3.046875 L 6.28125 3.046875 C 5.050781 3.046875 4.164062 2.820312 3.625 2.375 C 3.09375 1.9375 2.828125 1.203125 2.828125 0.171875 L 2.828125 -5.171875 C 2.828125 -6.140625 2.441406 -6.625 1.671875 -6.625 L 1.03125 -6.625 L 1.03125 -8.28125 L 1.671875 -8.28125 C 2.441406 -8.28125 2.828125 -8.753906 2.828125 -9.703125 L 2.828125 -15.078125 C 2.828125 -16.109375 3.09375 -16.84375 3.625 -17.28125 C 4.164062 -17.726562 5.050781 -17.953125 6.28125 -17.953125 L 6.953125 -17.953125 L 6.953125 -16.328125 C 6.097656 -16.328125 5.484375 -16.179688 5.109375 -15.890625 C 4.734375 -15.597656 4.546875 -15.140625 4.546875 -14.515625 Z M 4.546875 -14.515625 "/></g></g></g><g fill="#ffffff" fill-opacity="1"><g transform="translate(421.846158, 301.372507)"><g/></g></g><g fill="#ff7477" fill-opacity="1"><g transform="translate(428.936002, 301.372507)"><g><path d="M 9.203125 -12.796875 C 11.003906 -12.796875 12.472656 -12.191406 13.609375 -10.984375 C 14.742188 -9.773438 15.3125 -8.222656 15.3125 -6.328125 C 15.3125 -4.441406 14.75 -2.898438 13.625 -1.703125 C 12.507812 -0.515625 11.050781 0.078125 9.25 0.078125 C 6.945312 0.078125 5.296875 -0.859375 4.296875 -2.734375 L 4.296875 0 L 2.421875 0 L 2.421875 -17.921875 L 4.296875 -17.921875 L 4.296875 -9.984375 C 5.296875 -11.859375 6.929688 -12.796875 9.203125 -12.796875 Z M 8.859375 -1.640625 C 10.179688 -1.640625 11.269531 -2.082031 12.125 -2.96875 C 12.976562 -3.851562 13.40625 -4.988281 13.40625 -6.375 C 13.40625 -7.75 12.976562 -8.878906 12.125 -9.765625 C 11.269531 -10.660156 10.179688 -11.109375 8.859375 -11.109375 C 7.523438 -11.109375 6.429688 -10.664062 5.578125 -9.78125 C 4.722656 -8.894531 4.296875 -7.757812 4.296875 -6.375 C 4.296875 -4.988281 4.722656 -3.851562 5.578125 -2.96875 C 6.429688 -2.082031 7.523438 -1.640625 8.859375 -1.640625 Z M 8.859375 -1.640625 "/></g></g></g><g fill="#ff7477" fill-opacity="1"><g transform="translate(445.738046, 301.372507)"><g><path d="M 2.828125 -10.984375 C 4.035156 -12.179688 5.582031 -12.78125 7.46875 -12.78125 C 9.351562 -12.78125 10.894531 -12.179688 12.09375 -10.984375 C 13.300781 -9.796875 13.90625 -8.257812 13.90625 -6.375 C 13.90625 -4.476562 13.300781 -2.925781 12.09375 -1.71875 C 10.894531 -0.519531 9.351562 0.078125 7.46875 0.078125 C 5.582031 0.078125 4.035156 -0.519531 2.828125 -1.71875 C 1.617188 -2.925781 1.015625 -4.476562 1.015625 -6.375 C 1.015625 -8.257812 1.617188 -9.796875 2.828125 -10.984375 Z M 10.75 -9.75 C 9.894531 -10.625 8.796875 -11.0625 7.453125 -11.0625 C 6.117188 -11.0625 5.023438 -10.625 4.171875 -9.75 C 3.328125 -8.875 2.90625 -7.742188 2.90625 -6.359375 C 2.90625 -4.953125 3.328125 -3.8125 4.171875 -2.9375 C 5.023438 -2.0625 6.117188 -1.625 7.453125 -1.625 C 8.796875 -1.625 9.894531 -2.0625 10.75 -2.9375 C 11.601562 -3.8125 12.03125 -4.953125 12.03125 -6.359375 C 12.03125 -7.742188 11.601562 -8.875 10.75 -9.75 Z M 10.75 -9.75 "/></g></g></g><g fill="#ff7477" fill-opacity="1"><g transform="translate(461.13993, 301.372507)"><g><path d="M 13.984375 -17.921875 L 13.984375 0 L 12.109375 0 L 12.109375 -2.734375 C 11.109375 -0.847656 9.457031 0.09375 7.15625 0.09375 C 5.34375 0.09375 3.863281 -0.507812 2.71875 -1.71875 C 1.582031 -2.925781 1.015625 -4.476562 1.015625 -6.375 C 1.015625 -8.28125 1.582031 -9.832031 2.71875 -11.03125 C 3.851562 -12.226562 5.320312 -12.828125 7.125 -12.828125 C 8.25 -12.828125 9.242188 -12.582031 10.109375 -12.09375 C 10.972656 -11.601562 11.640625 -10.898438 12.109375 -9.984375 L 12.109375 -17.921875 Z M 7.515625 -1.59375 C 8.847656 -1.59375 9.945312 -2.035156 10.8125 -2.921875 C 11.675781 -3.804688 12.109375 -4.941406 12.109375 -6.328125 C 12.109375 -7.710938 11.675781 -8.851562 10.8125 -9.75 C 9.945312 -10.65625 8.847656 -11.109375 7.515625 -11.109375 C 6.160156 -11.109375 5.050781 -10.65625 4.1875 -9.75 C 3.332031 -8.851562 2.90625 -7.710938 2.90625 -6.328125 C 2.90625 -4.941406 3.332031 -3.804688 4.1875 -2.921875 C 5.050781 -2.035156 6.160156 -1.59375 7.515625 -1.59375 Z M 7.515625 -1.59375 "/></g></g></g><g fill="#ff7477" fill-opacity="1"><g transform="translate(478.014394, 301.372507)"><g><path d="M 12.203125 -12.734375 L 6.359375 1.8125 C 5.546875 3.789062 4.269531 4.78125 2.53125 4.78125 C 1.519531 4.78125 0.628906 4.46875 -0.140625 3.84375 L 0.65625 2.265625 C 1.21875 2.671875 1.8125 2.875 2.4375 2.875 C 3.46875 2.875 4.242188 2.28125 4.765625 1.09375 L 5.296875 -0.09375 L 0.03125 -12.734375 L 2 -12.734375 L 6.234375 -2.21875 L 10.265625 -12.734375 Z M 12.203125 -12.734375 "/></g></g></g><g fill="#ffffff" fill-opacity="1"><g transform="translate(490.611781, 301.372507)"><g/></g></g><g fill="#ffffff" fill-opacity="1"><g transform="translate(497.709305, 301.372507)"><g><path d="M 4.546875 -14.515625 L 4.546875 -9.828125 C 4.546875 -9.117188 4.4375 -8.582031 4.21875 -8.21875 C 4 -7.863281 3.640625 -7.601562 3.140625 -7.4375 C 3.640625 -7.289062 4 -7.035156 4.21875 -6.671875 C 4.4375 -6.316406 4.546875 -5.785156 4.546875 -5.078125 L 4.546875 -0.359375 C 4.546875 0.265625 4.726562 0.71875 5.09375 1 C 5.46875 1.28125 6.085938 1.421875 6.953125 1.421875 L 6.953125 3.046875 L 6.28125 3.046875 C 5.050781 3.046875 4.164062 2.820312 3.625 2.375 C 3.09375 1.9375 2.828125 1.203125 2.828125 0.171875 L 2.828125 -5.171875 C 2.828125 -6.140625 2.441406 -6.625 1.671875 -6.625 L 1.03125 -6.625 L 1.03125 -8.28125 L 1.671875 -8.28125 C 2.441406 -8.28125 2.828125 -8.753906 2.828125 -9.703125 L 2.828125 -15.078125 C 2.828125 -16.109375 3.09375 -16.84375 3.625 -17.28125 C 4.164062 -17.726562 5.050781 -17.953125 6.28125 -17.953125 L 6.953125 -17.953125 L 6.953125 -16.328125 C 6.097656 -16.328125 5.484375 -16.179688 5.109375 -15.890625 C 4.734375 -15.597656 4.546875 -15.140625 4.546875 -14.515625 Z M 4.546875 -14.515625 "/></g></g></g><g fill="#ffffff" fill-opacity="1"><g transform="translate(421.846158, 337.372506)"><g/></g></g><g fill="#ffffff" fill-opacity="1"><g transform="translate(428.943683, 337.372506)"><g/></g></g><g fill="#ffffff" fill-opacity="1"><g transform="translate(436.037564, 337.372506)"><g><path d="M 9.203125 -12.796875 C 11.003906 -12.796875 12.472656 -12.191406 13.609375 -10.984375 C 14.742188 -9.773438 15.3125 -8.222656 15.3125 -6.328125 C 15.3125 -4.441406 14.75 -2.898438 13.625 -1.703125 C 12.507812 -0.515625 11.050781 0.078125 9.25 0.078125 C 6.945312 0.078125 5.296875 -0.859375 4.296875 -2.734375 L 4.296875 0 L 2.421875 0 L 2.421875 -17.921875 L 4.296875 -17.921875 L 4.296875 -9.984375 C 5.296875 -11.859375 6.929688 -12.796875 9.203125 -12.796875 Z M 8.859375 -1.640625 C 10.179688 -1.640625 11.269531 -2.082031 12.125 -2.96875 C 12.976562 -3.851562 13.40625 -4.988281 13.40625 -6.375 C 13.40625 -7.75 12.976562 -8.878906 12.125 -9.765625 C 11.269531 -10.660156 10.179688 -11.109375 8.859375 -11.109375 C 7.523438 -11.109375 6.429688 -10.664062 5.578125 -9.78125 C 4.722656 -8.894531 4.296875 -7.757812 4.296875 -6.375 C 4.296875 -4.988281 4.722656 -3.851562 5.578125 -2.96875 C 6.429688 -2.082031 7.523438 -1.640625 8.859375 -1.640625 Z M 8.859375 -1.640625 "/></g></g></g><g fill="#ffffff" fill-opacity="1"><g transform="translate(452.839609, 337.372506)"><g><path d="M 10.1875 0 L 10.1875 -1.953125 C 9.175781 -0.585938 7.625 0.09375 5.53125 0.09375 C 4.238281 0.09375 3.191406 -0.269531 2.390625 -1 C 1.597656 -1.738281 1.203125 -2.671875 1.203125 -3.796875 C 1.203125 -4.898438 1.617188 -5.78125 2.453125 -6.4375 C 3.296875 -7.09375 4.46875 -7.425781 5.96875 -7.4375 L 10.140625 -7.4375 L 10.140625 -8.1875 C 10.140625 -9.132812 9.847656 -9.863281 9.265625 -10.375 C 8.691406 -10.894531 7.847656 -11.15625 6.734375 -11.15625 C 5.453125 -11.15625 4.109375 -10.671875 2.703125 -9.703125 L 1.90625 -11.09375 C 2.8125 -11.6875 3.644531 -12.117188 4.40625 -12.390625 C 5.175781 -12.660156 6.078125 -12.796875 7.109375 -12.796875 C 8.660156 -12.796875 9.859375 -12.410156 10.703125 -11.640625 C 11.554688 -10.867188 11.988281 -9.789062 12 -8.40625 L 12.03125 0 Z M 5.890625 -1.546875 C 6.972656 -1.546875 7.894531 -1.796875 8.65625 -2.296875 C 9.425781 -2.804688 9.929688 -3.503906 10.171875 -4.390625 L 10.171875 -5.921875 L 6.203125 -5.921875 C 4.046875 -5.921875 2.96875 -5.234375 2.96875 -3.859375 C 2.96875 -3.148438 3.234375 -2.585938 3.765625 -2.171875 C 4.296875 -1.753906 5.003906 -1.546875 5.890625 -1.546875 Z M 5.890625 -1.546875 "/></g></g></g><g fill="#ffffff" fill-opacity="1"><g transform="translate(467.251727, 337.372506)"><g><path d="M 7.3125 -12.78125 C 9.363281 -12.789062 11 -12.160156 12.21875 -10.890625 L 11.1875 -9.5625 C 10.15625 -10.550781 8.890625 -11.046875 7.390625 -11.046875 C 6.066406 -11.046875 4.984375 -10.609375 4.140625 -9.734375 C 3.296875 -8.867188 2.875 -7.742188 2.875 -6.359375 C 2.875 -4.972656 3.296875 -3.835938 4.140625 -2.953125 C 4.984375 -2.078125 6.066406 -1.640625 7.390625 -1.640625 C 9.097656 -1.640625 10.410156 -2.1875 11.328125 -3.28125 L 12.421875 -2.125 C 11.210938 -0.65625 9.507812 0.078125 7.3125 0.078125 C 5.46875 0.078125 3.957031 -0.515625 2.78125 -1.703125 C 1.601562 -2.898438 1.015625 -4.453125 1.015625 -6.359375 C 1.015625 -8.234375 1.601562 -9.769531 2.78125 -10.96875 C 3.96875 -12.175781 5.476562 -12.78125 7.3125 -12.78125 Z M 7.3125 -12.78125 "/></g></g></g><g fill="#ffffff" fill-opacity="1"><g transform="translate(481.277596, 337.372506)"><g><path d="M 6.984375 -6.421875 L 4.296875 -3.640625 L 4.296875 0 L 2.421875 0 L 2.421875 -17.921875 L 4.296875 -17.921875 L 4.296875 -6.203125 L 10.84375 -12.734375 L 13.0625 -12.734375 L 8.3125 -7.796875 L 13.578125 0 L 11.328125 0 Z M 6.984375 -6.421875 "/></g></g></g><g fill="#ffffff" fill-opacity="1"><g transform="translate(495.593159, 337.372506)"><g><path d="M 13.375 -12.734375 L 13.375 -1.328125 C 13.375 0.523438 12.789062 2 11.625 3.09375 C 10.457031 4.1875 8.910156 4.734375 6.984375 4.734375 C 5.097656 4.710938 3.359375 4.101562 1.765625 2.90625 L 2.640625 1.453125 C 3.910156 2.515625 5.332031 3.050781 6.90625 3.0625 C 8.289062 3.0625 9.398438 2.664062 10.234375 1.875 C 11.078125 1.09375 11.5 0.0390625 11.5 -1.28125 L 11.5 -3.21875 C 10.5625 -1.445312 9 -0.5625 6.8125 -0.5625 C 5.101562 -0.5625 3.707031 -1.128906 2.625 -2.265625 C 1.550781 -3.410156 1.015625 -4.894531 1.015625 -6.71875 C 1.015625 -8.488281 1.546875 -9.941406 2.609375 -11.078125 C 3.671875 -12.210938 5.054688 -12.785156 6.765625 -12.796875 C 8.953125 -12.796875 10.53125 -11.910156 11.5 -10.140625 L 11.5 -12.734375 Z M 4.015625 -3.421875 C 4.828125 -2.578125 5.867188 -2.15625 7.140625 -2.15625 C 8.421875 -2.15625 9.46875 -2.578125 10.28125 -3.421875 C 11.09375 -4.265625 11.5 -5.335938 11.5 -6.640625 C 11.5 -7.960938 11.09375 -9.046875 10.28125 -9.890625 C 9.46875 -10.734375 8.421875 -11.15625 7.140625 -11.15625 C 5.867188 -11.15625 4.828125 -10.734375 4.015625 -9.890625 C 3.203125 -9.046875 2.789062 -7.960938 2.78125 -6.640625 C 2.789062 -5.335938 3.203125 -4.265625 4.015625 -3.421875 Z M 4.015625 -3.421875 "/></g></g></g><g fill="#ffffff" fill-opacity="1"><g transform="translate(511.429572, 337.372506)"><g><path d="M 4.171875 -12.734375 L 4.171875 -9.90625 C 5.046875 -11.800781 6.570312 -12.765625 8.75 -12.796875 L 8.75 -10.890625 C 7.425781 -10.910156 6.359375 -10.546875 5.546875 -9.796875 C 4.742188 -9.046875 4.285156 -8.035156 4.171875 -6.765625 L 4.171875 0 L 2.296875 0 L 2.296875 -12.734375 Z M 4.171875 -12.734375 "/></g></g></g><g fill="#ffffff" fill-opacity="1"><g transform="translate(520.892875, 337.372506)"><g><path d="M 2.828125 -10.984375 C 4.035156 -12.179688 5.582031 -12.78125 7.46875 -12.78125 C 9.351562 -12.78125 10.894531 -12.179688 12.09375 -10.984375 C 13.300781 -9.796875 13.90625 -8.257812 13.90625 -6.375 C 13.90625 -4.476562 13.300781 -2.925781 12.09375 -1.71875 C 10.894531 -0.519531 9.351562 0.078125 7.46875 0.078125 C 5.582031 0.078125 4.035156 -0.519531 2.828125 -1.71875 C 1.617188 -2.925781 1.015625 -4.476562 1.015625 -6.375 C 1.015625 -8.257812 1.617188 -9.796875 2.828125 -10.984375 Z M 10.75 -9.75 C 9.894531 -10.625 8.796875 -11.0625 7.453125 -11.0625 C 6.117188 -11.0625 5.023438 -10.625 4.171875 -9.75 C 3.328125 -8.875 2.90625 -7.742188 2.90625 -6.359375 C 2.90625 -4.953125 3.328125 -3.8125 4.171875 -2.9375 C 5.023438 -2.0625 6.117188 -1.625 7.453125 -1.625 C 8.796875 -1.625 9.894531 -2.0625 10.75 -2.9375 C 11.601562 -3.8125 12.03125 -4.953125 12.03125 -6.359375 C 12.03125 -7.742188 11.601562 -8.875 10.75 -9.75 Z M 10.75 -9.75 "/></g></g></g><g fill="#ffffff" fill-opacity="1"><g transform="translate(536.294762, 337.372506)"><g><path d="M 13.328125 -12.734375 L 13.328125 0 L 11.453125 0 L 11.453125 -2.875 C 10.628906 -0.9375 9.019531 0.046875 6.625 0.078125 C 5.132812 0.078125 3.96875 -0.363281 3.125 -1.25 C 2.28125 -2.132812 1.859375 -3.34375 1.859375 -4.875 L 1.859375 -12.734375 L 3.75 -12.734375 L 3.75 -5.390625 C 3.75 -4.265625 4.0625 -3.382812 4.6875 -2.75 C 5.3125 -2.125 6.171875 -1.8125 7.265625 -1.8125 C 8.578125 -1.820312 9.601562 -2.257812 10.34375 -3.125 C 11.082031 -3.988281 11.453125 -5.101562 11.453125 -6.46875 L 11.453125 -12.734375 Z M 13.328125 -12.734375 "/></g></g></g><g fill="#ffffff" fill-opacity="1"><g transform="translate(552.396725, 337.372506)"><g><path d="M 9.109375 -12.796875 C 10.617188 -12.796875 11.800781 -12.359375 12.65625 -11.484375 C 13.507812 -10.609375 13.9375 -9.394531 13.9375 -7.84375 L 13.9375 0 L 12.046875 0 L 12.046875 -7.34375 C 12.046875 -8.46875 11.726562 -9.34375 11.09375 -9.96875 C 10.457031 -10.601562 9.578125 -10.921875 8.453125 -10.921875 C 7.210938 -10.898438 6.21875 -10.519531 5.46875 -9.78125 C 4.71875 -9.039062 4.285156 -8.0625 4.171875 -6.84375 L 4.171875 0 L 2.296875 0 L 2.296875 -12.734375 L 4.171875 -12.734375 L 4.171875 -9.921875 C 5.046875 -11.804688 6.691406 -12.765625 9.109375 -12.796875 Z M 9.109375 -12.796875 "/></g></g></g><g fill="#ffffff" fill-opacity="1"><g transform="translate(568.715953, 337.372506)"><g><path d="M 13.984375 -17.921875 L 13.984375 0 L 12.109375 0 L 12.109375 -2.734375 C 11.109375 -0.847656 9.457031 0.09375 7.15625 0.09375 C 5.34375 0.09375 3.863281 -0.507812 2.71875 -1.71875 C 1.582031 -2.925781 1.015625 -4.476562 1.015625 -6.375 C 1.015625 -8.28125 1.582031 -9.832031 2.71875 -11.03125 C 3.851562 -12.226562 5.320312 -12.828125 7.125 -12.828125 C 8.25 -12.828125 9.242188 -12.582031 10.109375 -12.09375 C 10.972656 -11.601562 11.640625 -10.898438 12.109375 -9.984375 L 12.109375 -17.921875 Z M 7.515625 -1.59375 C 8.847656 -1.59375 9.945312 -2.035156 10.8125 -2.921875 C 11.675781 -3.804688 12.109375 -4.941406 12.109375 -6.328125 C 12.109375 -7.710938 11.675781 -8.851562 10.8125 -9.75 C 9.945312 -10.65625 8.847656 -11.109375 7.515625 -11.109375 C 6.160156 -11.109375 5.050781 -10.65625 4.1875 -9.75 C 3.332031 -8.851562 2.90625 -7.710938 2.90625 -6.328125 C 2.90625 -4.941406 3.332031 -3.804688 4.1875 -2.921875 C 5.050781 -2.035156 6.160156 -1.59375 7.515625 -1.59375 Z M 7.515625 -1.59375 "/></g></g></g><g fill="#ffffff" fill-opacity="1"><g transform="translate(585.590414, 337.372506)"><g><path d="M 7.21875 -6.625 L 1.546875 -6.625 L 1.546875 -8.015625 L 7.21875 -8.015625 Z M 7.21875 -6.625 "/></g></g></g><g fill="#ffffff" fill-opacity="1"><g transform="translate(594.836451, 337.372506)"><g><path d="M 7.3125 -12.78125 C 9.363281 -12.789062 11 -12.160156 12.21875 -10.890625 L 11.1875 -9.5625 C 10.15625 -10.550781 8.890625 -11.046875 7.390625 -11.046875 C 6.066406 -11.046875 4.984375 -10.609375 4.140625 -9.734375 C 3.296875 -8.867188 2.875 -7.742188 2.875 -6.359375 C 2.875 -4.972656 3.296875 -3.835938 4.140625 -2.953125 C 4.984375 -2.078125 6.066406 -1.640625 7.390625 -1.640625 C 9.097656 -1.640625 10.410156 -2.1875 11.328125 -3.28125 L 12.421875 -2.125 C 11.210938 -0.65625 9.507812 0.078125 7.3125 0.078125 C 5.46875 0.078125 3.957031 -0.515625 2.78125 -1.703125 C 1.601562 -2.898438 1.015625 -4.453125 1.015625 -6.359375 C 1.015625 -8.234375 1.601562 -9.769531 2.78125 -10.96875 C 3.96875 -12.175781 5.476562 -12.78125 7.3125 -12.78125 Z M 7.3125 -12.78125 "/></g></g></g><g fill="#ffffff" fill-opacity="1"><g transform="translate(608.862318, 337.372506)"><g><path d="M 2.828125 -10.984375 C 4.035156 -12.179688 5.582031 -12.78125 7.46875 -12.78125 C 9.351562 -12.78125 10.894531 -12.179688 12.09375 -10.984375 C 13.300781 -9.796875 13.90625 -8.257812 13.90625 -6.375 C 13.90625 -4.476562 13.300781 -2.925781 12.09375 -1.71875 C 10.894531 -0.519531 9.351562 0.078125 7.46875 0.078125 C 5.582031 0.078125 4.035156 -0.519531 2.828125 -1.71875 C 1.617188 -2.925781 1.015625 -4.476562 1.015625 -6.375 C 1.015625 -8.257812 1.617188 -9.796875 2.828125 -10.984375 Z M 10.75 -9.75 C 9.894531 -10.625 8.796875 -11.0625 7.453125 -11.0625 C 6.117188 -11.0625 5.023438 -10.625 4.171875 -9.75 C 3.328125 -8.875 2.90625 -7.742188 2.90625 -6.359375 C 2.90625 -4.953125 3.328125 -3.8125 4.171875 -2.9375 C 5.023438 -2.0625 6.117188 -1.625 7.453125 -1.625 C 8.796875 -1.625 9.894531 -2.0625 10.75 -2.9375 C 11.601562 -3.8125 12.03125 -4.953125 12.03125 -6.359375 C 12.03125 -7.742188 11.601562 -8.875 10.75 -9.75 Z M 10.75 -9.75 "/></g></g></g><g fill="#ffffff" fill-opacity="1"><g transform="translate(624.264199, 337.372506)"><g><path d="M 4.296875 0 L 2.421875 0 L 2.421875 -17.921875 L 4.296875 -17.921875 Z M 4.296875 0 "/></g></g></g><g fill="#ffffff" fill-opacity="1"><g transform="translate(631.458287, 337.372506)"><g><path d="M 2.828125 -10.984375 C 4.035156 -12.179688 5.582031 -12.78125 7.46875 -12.78125 C 9.351562 -12.78125 10.894531 -12.179688 12.09375 -10.984375 C 13.300781 -9.796875 13.90625 -8.257812 13.90625 -6.375 C 13.90625 -4.476562 13.300781 -2.925781 12.09375 -1.71875 C 10.894531 -0.519531 9.351562 0.078125 7.46875 0.078125 C 5.582031 0.078125 4.035156 -0.519531 2.828125 -1.71875 C 1.617188 -2.925781 1.015625 -4.476562 1.015625 -6.375 C 1.015625 -8.257812 1.617188 -9.796875 2.828125 -10.984375 Z M 10.75 -9.75 C 9.894531 -10.625 8.796875 -11.0625 7.453125 -11.0625 C 6.117188 -11.0625 5.023438 -10.625 4.171875 -9.75 C 3.328125 -8.875 2.90625 -7.742188 2.90625 -6.359375 C 2.90625 -4.953125 3.328125 -3.8125 4.171875 -2.9375 C 5.023438 -2.0625 6.117188 -1.625 7.453125 -1.625 C 8.796875 -1.625 9.894531 -2.0625 10.75 -2.9375 C 11.601562 -3.8125 12.03125 -4.953125 12.03125 -6.359375 C 12.03125 -7.742188 11.601562 -8.875 10.75 -9.75 Z M 10.75 -9.75 "/></g></g></g><g fill="#ffffff" fill-opacity="1"><g transform="translate(646.86018, 337.372506)"><g><path d="M 4.171875 -12.734375 L 4.171875 -9.90625 C 5.046875 -11.800781 6.570312 -12.765625 8.75 -12.796875 L 8.75 -10.890625 C 7.425781 -10.910156 6.359375 -10.546875 5.546875 -9.796875 C 4.742188 -9.046875 4.285156 -8.035156 4.171875 -6.765625 L 4.171875 0 L 2.296875 0 L 2.296875 -12.734375 Z M 4.171875 -12.734375 "/></g></g></g><g fill="#ffffff" fill-opacity="1"><g transform="translate(656.323482, 337.372506)"><g><path d="M 2.421875 -9.5 C 2.742188 -9.5 3.015625 -9.375 3.234375 -9.125 C 3.460938 -8.882812 3.578125 -8.585938 3.578125 -8.234375 C 3.578125 -7.878906 3.460938 -7.582031 3.234375 -7.34375 C 3.015625 -7.101562 2.742188 -6.984375 2.421875 -6.984375 C 2.078125 -6.984375 1.789062 -7.101562 1.5625 -7.34375 C 1.34375 -7.582031 1.234375 -7.878906 1.234375 -8.234375 C 1.234375 -8.585938 1.34375 -8.882812 1.5625 -9.125 C 1.789062 -9.375 2.078125 -9.5 2.421875 -9.5 Z M 2.421875 -2.3125 C 2.742188 -2.3125 3.015625 -2.191406 3.234375 -1.953125 C 3.460938 -1.710938 3.578125 -1.414062 3.578125 -1.0625 C 3.578125 -0.707031 3.460938 -0.410156 3.234375 -0.171875 C 3.015625 0.0664062 2.742188 0.1875 2.421875 0.1875 C 2.078125 0.1875 1.789062 0.0664062 1.5625 -0.171875 C 1.34375 -0.410156 1.234375 -0.707031 1.234375 -1.0625 C 1.234375 -1.414062 1.34375 -1.710938 1.5625 -1.953125 C 1.789062 -2.191406 2.078125 -2.3125 2.421875 -2.3125 Z M 2.421875 -2.3125 "/></g></g></g><g fill="#ffffff" fill-opacity="1"><g transform="translate(421.846158, 373.372504)"><g><path d="M 4.296875 0 L 2.421875 0 L 2.421875 -17.921875 L 4.296875 -17.921875 Z M 4.296875 0 "/></g></g></g><g fill="#ffffff" fill-opacity="1"><g transform="translate(429.040248, 373.372504)"><g><path d="M 2.328125 -17.3125 C 2.566406 -17.5625 2.863281 -17.6875 3.21875 -17.6875 C 3.570312 -17.6875 3.863281 -17.5625 4.09375 -17.3125 C 4.320312 -17.0625 4.4375 -16.75 4.4375 -16.375 C 4.4375 -16.007812 4.320312 -15.703125 4.09375 -15.453125 C 3.863281 -15.203125 3.570312 -15.078125 3.21875 -15.078125 C 2.863281 -15.078125 2.566406 -15.203125 2.328125 -15.453125 C 2.097656 -15.703125 1.984375 -16.007812 1.984375 -16.375 C 1.984375 -16.75 2.097656 -17.0625 2.328125 -17.3125 Z M 4.15625 0 L 2.296875 0 L 2.296875 -12.734375 L 4.15625 -12.734375 Z M 4.15625 0 "/></g></g></g><g fill="#ffffff" fill-opacity="1"><g transform="translate(435.968789, 373.372504)"><g><path d="M 13.375 -12.734375 L 13.375 -1.328125 C 13.375 0.523438 12.789062 2 11.625 3.09375 C 10.457031 4.1875 8.910156 4.734375 6.984375 4.734375 C 5.097656 4.710938 3.359375 4.101562 1.765625 2.90625 L 2.640625 1.453125 C 3.910156 2.515625 5.332031 3.050781 6.90625 3.0625 C 8.289062 3.0625 9.398438 2.664062 10.234375 1.875 C 11.078125 1.09375 11.5 0.0390625 11.5 -1.28125 L 11.5 -3.21875 C 10.5625 -1.445312 9 -0.5625 6.8125 -0.5625 C 5.101562 -0.5625 3.707031 -1.128906 2.625 -2.265625 C 1.550781 -3.410156 1.015625 -4.894531 1.015625 -6.71875 C 1.015625 -8.488281 1.546875 -9.941406 2.609375 -11.078125 C 3.671875 -12.210938 5.054688 -12.785156 6.765625 -12.796875 C 8.953125 -12.796875 10.53125 -11.910156 11.5 -10.140625 L 11.5 -12.734375 Z M 4.015625 -3.421875 C 4.828125 -2.578125 5.867188 -2.15625 7.140625 -2.15625 C 8.421875 -2.15625 9.46875 -2.578125 10.28125 -3.421875 C 11.09375 -4.265625 11.5 -5.335938 11.5 -6.640625 C 11.5 -7.960938 11.09375 -9.046875 10.28125 -9.890625 C 9.46875 -10.734375 8.421875 -11.15625 7.140625 -11.15625 C 5.867188 -11.15625 4.828125 -10.734375 4.015625 -9.890625 C 3.203125 -9.046875 2.789062 -7.960938 2.78125 -6.640625 C 2.789062 -5.335938 3.203125 -4.265625 4.015625 -3.421875 Z M 4.015625 -3.421875 "/></g></g></g><g fill="#ffffff" fill-opacity="1"><g transform="translate(451.805204, 373.372504)"><g><path d="M 9.25 -12.796875 C 10.757812 -12.796875 11.941406 -12.359375 12.796875 -11.484375 C 13.648438 -10.609375 14.078125 -9.394531 14.078125 -7.84375 L 14.078125 0 L 12.203125 0 L 12.203125 -7.34375 C 12.203125 -8.46875 11.882812 -9.34375 11.25 -9.96875 C 10.613281 -10.601562 9.726562 -10.921875 8.59375 -10.921875 C 7.257812 -10.898438 6.207031 -10.460938 5.4375 -9.609375 C 4.675781 -8.753906 4.296875 -7.632812 4.296875 -6.25 L 4.296875 0 L 2.421875 0 L 2.421875 -17.921875 L 4.296875 -17.921875 L 4.296875 -9.875 C 5.140625 -11.789062 6.789062 -12.765625 9.25 -12.796875 Z M 9.25 -12.796875 "/></g></g></g><g fill="#ffffff" fill-opacity="1"><g transform="translate(468.269281, 373.372504)"><g><path d="M 8.328125 -2.390625 L 8.859375 -0.875 C 7.941406 -0.238281 6.984375 0.0820312 5.984375 0.09375 C 5.003906 0.09375 4.21875 -0.207031 3.625 -0.8125 C 3.039062 -1.414062 2.75 -2.320312 2.75 -3.53125 L 2.75 -10.796875 L 0.921875 -10.796875 L 0.921875 -12.3125 L 2.75 -12.3125 L 2.75 -15.671875 L 4.609375 -15.671875 L 4.609375 -12.3125 L 8.640625 -12.34375 L 8.640625 -10.796875 L 4.609375 -10.796875 L 4.609375 -3.859375 C 4.609375 -2.441406 5.175781 -1.734375 6.3125 -1.734375 C 6.96875 -1.734375 7.640625 -1.953125 8.328125 -2.390625 Z M 8.328125 -2.390625 "/></g></g></g><g fill="#ffffff" fill-opacity="1"><g transform="translate(478.167115, 373.372504)"><g><path d="M 9.203125 -12.796875 C 11.003906 -12.796875 12.472656 -12.191406 13.609375 -10.984375 C 14.742188 -9.773438 15.3125 -8.222656 15.3125 -6.328125 C 15.3125 -4.441406 14.75 -2.898438 13.625 -1.703125 C 12.507812 -0.515625 11.050781 0.078125 9.25 0.078125 C 6.945312 0.078125 5.296875 -0.859375 4.296875 -2.734375 L 4.296875 0 L 2.421875 0 L 2.421875 -17.921875 L 4.296875 -17.921875 L 4.296875 -9.984375 C 5.296875 -11.859375 6.929688 -12.796875 9.203125 -12.796875 Z M 8.859375 -1.640625 C 10.179688 -1.640625 11.269531 -2.082031 12.125 -2.96875 C 12.976562 -3.851562 13.40625 -4.988281 13.40625 -6.375 C 13.40625 -7.75 12.976562 -8.878906 12.125 -9.765625 C 11.269531 -10.660156 10.179688 -11.109375 8.859375 -11.109375 C 7.523438 -11.109375 6.429688 -10.664062 5.578125 -9.78125 C 4.722656 -8.894531 4.296875 -7.757812 4.296875 -6.375 C 4.296875 -4.988281 4.722656 -3.851562 5.578125 -2.96875 C 6.429688 -2.082031 7.523438 -1.640625 8.859375 -1.640625 Z M 8.859375 -1.640625 "/></g></g></g><g fill="#ffffff" fill-opacity="1"><g transform="translate(494.969158, 373.372504)"><g><path d="M 4.296875 0 L 2.421875 0 L 2.421875 -17.921875 L 4.296875 -17.921875 Z M 4.296875 0 "/></g></g></g><g fill="#ffffff" fill-opacity="1"><g transform="translate(502.163246, 373.372504)"><g><path d="M 13.328125 -12.734375 L 13.328125 0 L 11.453125 0 L 11.453125 -2.875 C 10.628906 -0.9375 9.019531 0.046875 6.625 0.078125 C 5.132812 0.078125 3.96875 -0.363281 3.125 -1.25 C 2.28125 -2.132812 1.859375 -3.34375 1.859375 -4.875 L 1.859375 -12.734375 L 3.75 -12.734375 L 3.75 -5.390625 C 3.75 -4.265625 4.0625 -3.382812 4.6875 -2.75 C 5.3125 -2.125 6.171875 -1.8125 7.265625 -1.8125 C 8.578125 -1.820312 9.601562 -2.257812 10.34375 -3.125 C 11.082031 -3.988281 11.453125 -5.101562 11.453125 -6.46875 L 11.453125 -12.734375 Z M 13.328125 -12.734375 "/></g></g></g><g fill="#ffffff" fill-opacity="1"><g transform="translate(518.265214, 373.372504)"><g><path d="M 7.3125 -12.78125 C 9.332031 -12.789062 10.851562 -12.148438 11.875 -10.859375 C 12.894531 -9.578125 13.359375 -7.832031 13.265625 -5.625 L 2.875 -5.625 C 3.03125 -4.382812 3.523438 -3.394531 4.359375 -2.65625 C 5.203125 -1.925781 6.242188 -1.5625 7.484375 -1.5625 C 9.097656 -1.5625 10.410156 -2.097656 11.421875 -3.171875 L 12.46875 -2.046875 C 11.195312 -0.628906 9.488281 0.078125 7.34375 0.078125 C 5.476562 0.078125 3.957031 -0.515625 2.78125 -1.703125 C 1.601562 -2.898438 1.015625 -4.445312 1.015625 -6.34375 C 1.015625 -8.25 1.601562 -9.796875 2.78125 -10.984375 C 3.957031 -12.179688 5.46875 -12.78125 7.3125 -12.78125 Z M 2.875 -7.171875 L 11.578125 -7.171875 C 11.503906 -8.398438 11.082031 -9.367188 10.3125 -10.078125 C 9.550781 -10.796875 8.550781 -11.15625 7.3125 -11.15625 C 6.101562 -11.15625 5.097656 -10.789062 4.296875 -10.0625 C 3.492188 -9.34375 3.019531 -8.378906 2.875 -7.171875 Z M 2.875 -7.171875 "/></g></g></g><g fill="#ffffff" fill-opacity="1"><g transform="translate(532.94288, 373.372504)"><g><path d="M 2.421875 -6.984375 C 2.078125 -6.984375 1.789062 -7.101562 1.5625 -7.34375 C 1.34375 -7.582031 1.234375 -7.878906 1.234375 -8.234375 C 1.234375 -8.585938 1.34375 -8.882812 1.5625 -9.125 C 1.789062 -9.375 2.078125 -9.5 2.421875 -9.5 C 2.742188 -9.5 3.015625 -9.375 3.234375 -9.125 C 3.460938 -8.882812 3.578125 -8.585938 3.578125 -8.234375 C 3.578125 -7.878906 3.460938 -7.582031 3.234375 -7.34375 C 3.015625 -7.101562 2.742188 -6.984375 2.421875 -6.984375 Z M 1.609375 -1.921875 C 1.828125 -2.148438 2.097656 -2.265625 2.421875 -2.265625 C 2.742188 -2.265625 3.015625 -2.148438 3.234375 -1.921875 C 3.460938 -1.703125 3.578125 -1.40625 3.578125 -1.03125 C 3.578125 -0.71875 3.457031 -0.375 3.21875 0 L 2.078125 1.734375 L 1.015625 1.734375 L 1.8125 -0.03125 C 1.457031 -0.238281 1.28125 -0.582031 1.28125 -1.0625 C 1.28125 -1.414062 1.390625 -1.703125 1.609375 -1.921875 Z M 1.609375 -1.921875 "/></g></g></g><g fill="#ffffff" fill-opacity="1"><g transform="translate(421.846158, 409.372503)"><g/></g></g><g fill="#ffffff" fill-opacity="1"><g transform="translate(428.936002, 409.372503)"><g><path d="M 8.09375 -8.28125 L 8.09375 -6.625 L 7.46875 -6.625 C 6.695312 -6.625 6.3125 -6.140625 6.3125 -5.171875 L 6.3125 0.171875 C 6.3125 1.203125 6.039062 1.9375 5.5 2.375 C 4.957031 2.820312 4.070312 3.046875 2.84375 3.046875 L 2.171875 3.046875 L 2.171875 1.421875 C 3.046875 1.421875 3.664062 1.28125 4.03125 1 C 4.40625 0.71875 4.59375 0.265625 4.59375 -0.359375 L 4.59375 -5.078125 C 4.59375 -5.785156 4.695312 -6.316406 4.90625 -6.671875 C 5.125 -7.035156 5.484375 -7.289062 5.984375 -7.4375 C 5.484375 -7.601562 5.125 -7.863281 4.90625 -8.21875 C 4.695312 -8.582031 4.59375 -9.117188 4.59375 -9.828125 L 4.59375 -14.515625 C 4.59375 -15.140625 4.398438 -15.597656 4.015625 -15.890625 C 3.640625 -16.179688 3.023438 -16.328125 2.171875 -16.328125 L 2.171875 -17.953125 L 2.84375 -17.953125 C 4.070312 -17.953125 4.957031 -17.726562 5.5 -17.28125 C 6.039062 -16.84375 6.3125 -16.109375 6.3125 -15.078125 L 6.3125 -9.703125 C 6.3125 -8.753906 6.695312 -8.28125 7.46875 -8.28125 Z M 8.09375 -8.28125 "/></g></g></g><g fill="#ffffff" fill-opacity="1"><g transform="translate(421.846158, 445.372501)"><g><path d="M 8.09375 -8.28125 L 8.09375 -6.625 L 7.46875 -6.625 C 6.695312 -6.625 6.3125 -6.140625 6.3125 -5.171875 L 6.3125 0.171875 C 6.3125 1.203125 6.039062 1.9375 5.5 2.375 C 4.957031 2.820312 4.070312 3.046875 2.84375 3.046875 L 2.171875 3.046875 L 2.171875 1.421875 C 3.046875 1.421875 3.664062 1.28125 4.03125 1 C 4.40625 0.71875 4.59375 0.265625 4.59375 -0.359375 L 4.59375 -5.078125 C 4.59375 -5.785156 4.695312 -6.316406 4.90625 -6.671875 C 5.125 -7.035156 5.484375 -7.289062 5.984375 -7.4375 C 5.484375 -7.601562 5.125 -7.863281 4.90625 -8.21875 C 4.695312 -8.582031 4.59375 -9.117188 4.59375 -9.828125 L 4.59375 -14.515625 C 4.59375 -15.140625 4.398438 -15.597656 4.015625 -15.890625 C 3.640625 -16.179688 3.023438 -16.328125 2.171875 -16.328125 L 2.171875 -17.953125 L 2.84375 -17.953125 C 4.070312 -17.953125 4.957031 -17.726562 5.5 -17.28125 C 6.039062 -16.84375 6.3125 -16.109375 6.3125 -15.078125 L 6.3125 -9.703125 C 6.3125 -8.753906 6.695312 -8.28125 7.46875 -8.28125 Z M 8.09375 -8.28125 "/></g></g></g><g clip-path="url(#b8cdbf6aef)"><path fill="#ffcc58" d="M 453.328125 116.308594 L 421.847656 116.308594 L 446.613281 138.8125 L 421.847656 161.308594 L 453.328125 161.308594 L 478.097656 138.8125 L 453.328125 116.308594 " fill-opacity="1" fill-rule="nonzero"/></g><g clip-path="url(#5038666264)"><path fill="#f2f2f2" d="M 409.589844 94.15625 L 394.152344 94.15625 L 406.46875 105.40625 L 394.152344 116.652344 L 409.589844 116.652344 L 421.902344 105.40625 L 409.589844 94.15625 " fill-opacity="1" fill-rule="nonzero"/></g><g clip-path="url(#ff50f4562b)"><path fill="#ff7477" d="M 84.519531 516.003906 L 0 516.003906 L 66.980469 576.765625 L 0 637.496094 L 84.519531 637.496094 L 151.5 576.765625 L 84.519531 516.003906 " fill-opacity="1" fill-rule="nonzero"/></g><g clip-path="url(#53d147d8e9)"><path fill="#f2f2f2" d="M 687.417969 480 L 662.769531 480 L 682.371094 498.003906 L 662.769531 516 L 687.417969 516 L 707.019531 498.003906 L 687.417969 480 " fill-opacity="1" fill-rule="nonzero"/></g></svg>