<svg xmlns="http://www.w3.org/2000/svg" xmlns:xlink="http://www.w3.org/1999/xlink" width="1920" zoomAndPan="magnify" viewBox="0 0 1440 809.999993" height="1080" preserveAspectRatio="xMidYMid meet" version="1.0"><defs><g/><clipPath id="4306a81b6a"><path d="M 52.550781 51.320312 L 1389.800781 51.320312 L 1389.800781 758.570312 L 52.550781 758.570312 Z M 52.550781 51.320312 " clip-rule="nonzero"/></clipPath><clipPath id="ac7ce55ed9"><path d="M 134.296875 80.847656 L 151.546875 80.847656 L 151.546875 98.097656 L 134.296875 98.097656 Z M 134.296875 80.847656 " clip-rule="nonzero"/></clipPath><clipPath id="632985fc46"><path d="M 113.8125 80.847656 L 131.0625 80.847656 L 131.0625 98.097656 L 113.8125 98.097656 Z M 113.8125 80.847656 " clip-rule="nonzero"/></clipPath><clipPath id="dc297777bd"><path d="M 93.332031 80.847656 L 110.582031 80.847656 L 110.582031 98.097656 L 93.332031 98.097656 Z M 93.332031 80.847656 " clip-rule="nonzero"/></clipPath></defs><rect x="-144" width="1728" fill="#ffffff" y="-80.999999" height="971.999992" fill-opacity="1"/><rect x="-144" width="1728" fill="#ffffff" y="-80.999999" height="971.999992" fill-opacity="1"/><rect x="-144" width="1728" fill="#ffd558" y="-80.999999" height="971.999992" fill-opacity="1"/><g clip-path="url(#4306a81b6a)"><path fill="#ffffff" d="M 1360.832031 758.570312 L 81.523438 758.570312 C 65.5625 758.570312 52.554688 745.5625 52.554688 729.601562 L 52.554688 80.285156 C 52.554688 64.324219 65.5625 51.320312 81.523438 51.320312 L 1360.832031 51.320312 C 1376.792969 51.320312 1389.796875 64.324219 1389.796875 80.285156 L 1389.796875 729.601562 C 1389.796875 745.5625 1376.792969 758.570312 1360.832031 758.570312 " fill-opacity="1" fill-rule="nonzero"/></g><path stroke-linecap="round" transform="matrix(0.749941, 0, 0, 0.75, 52.551424, 126.482651)" fill="none" stroke-linejoin="miter" d="M 0.499183 0.00229835 L 1782.650265 0.00229835 " stroke="#000000" stroke-width="1" stroke-opacity="1" stroke-miterlimit="4"/><g clip-path="url(#ac7ce55ed9)"><path fill="#edeced" d="M 142.921875 98.097656 C 147.683594 98.097656 151.546875 94.234375 151.546875 89.472656 C 151.546875 84.710938 147.683594 80.847656 142.921875 80.847656 C 138.15625 80.847656 134.296875 84.710938 134.296875 89.472656 C 134.296875 94.234375 138.15625 98.097656 142.921875 98.097656 " fill-opacity="1" fill-rule="nonzero"/></g><g clip-path="url(#632985fc46)"><path fill="#ffd558" d="M 122.4375 98.097656 C 127.203125 98.097656 131.0625 94.234375 131.0625 89.472656 C 131.0625 84.710938 127.203125 80.847656 122.4375 80.847656 C 117.675781 80.847656 113.8125 84.710938 113.8125 89.472656 C 113.8125 94.234375 117.675781 98.097656 122.4375 98.097656 " fill-opacity="1" fill-rule="nonzero"/></g><g clip-path="url(#dc297777bd)"><path fill="#171717" d="M 101.957031 98.097656 C 106.71875 98.097656 110.582031 94.234375 110.582031 89.472656 C 110.582031 84.710938 106.71875 80.847656 101.957031 80.847656 C 97.191406 80.847656 93.332031 84.710938 93.332031 89.472656 C 93.332031 94.234375 97.191406 98.097656 101.957031 98.097656 " fill-opacity="1" fill-rule="nonzero"/></g><path fill="#171717" d="M 1144.164062 463.121094 C 1089.894531 461.941406 1035.621094 460.46875 981.351562 459.289062 C 982.828125 444.84375 986.660156 426.273438 994.625 405.640625 C 1007.898438 372.328125 1027.070312 349.335938 1040.339844 336.070312 C 1033.851562 332.53125 1004.0625 316.320312 995.804688 283.007812 C 986.367188 244.09375 1009.667969 197.222656 1044.175781 189.265625 C 1059.511719 185.726562 1073.671875 190.738281 1081.929688 194.570312 C 1087.535156 191.035156 1104.34375 181.894531 1123.8125 186.023438 C 1153.011719 191.917969 1168.054688 223.164062 1170.707031 246.160156 C 1175.722656 288.3125 1140.625 316.023438 1138.558594 317.496094 C 1135.316406 326.929688 1132.070312 336.660156 1128.53125 346.09375 C 1139.148438 355.230469 1160.386719 376.453125 1171.886719 410.355469 C 1179.261719 432.167969 1179.558594 451.625 1178.96875 464.007812 C 1170.117188 463.710938 1160.976562 463.710938 1152.125 463.417969 M 1152.125 463.417969 C 1149.472656 463.417969 1146.816406 463.417969 1144.164062 463.121094 " fill-opacity="1" fill-rule="nonzero"/><path fill="#e6ae7e" d="M 1081.042969 450.742188 C 1068.953125 450.445312 1056.859375 450.152344 1044.765625 449.855469 C 1047.714844 440.425781 1050.960938 428.335938 1053.320312 414.1875 C 1054.5 405.933594 1055.382812 398.269531 1055.679688 391.195312 C 1033.851562 380.289062 1019.105469 354.050781 1017.039062 320.738281 C 1013.207031 321.035156 1010.550781 320.152344 1009.078125 319.265625 C 997.277344 313.074219 999.34375 288.902344 1007.898438 285.660156 C 1010.257812 284.777344 1013.796875 285.070312 1019.398438 288.609375 C 1020.285156 283.300781 1021.464844 277.703125 1023.234375 272.394531 C 1025.300781 272.691406 1054.792969 277.703125 1072.195312 257.65625 C 1078.980469 249.992188 1081.339844 241.441406 1082.519531 236.136719 C 1083.109375 239.96875 1085.761719 253.234375 1097.265625 262.960938 C 1116.144531 278.585938 1140.328125 270.035156 1141.507812 269.445312 C 1142.984375 275.636719 1143.867188 281.828125 1144.753906 287.722656 C 1150.0625 284.777344 1153.601562 284.480469 1155.960938 285.367188 C 1165.105469 289.199219 1167.464844 313.074219 1154.488281 319.265625 C 1152.71875 320.152344 1149.765625 321.035156 1145.046875 320.738281 C 1142.097656 352.578125 1128.234375 377.929688 1108.769531 389.425781 C 1108.476562 396.796875 1108.476562 405.050781 1109.359375 414.484375 C 1110.835938 430.402344 1114.078125 443.078125 1117.027344 451.625 C 1107.589844 451.332031 1098.445312 451.035156 1089.007812 451.035156 M 1089.007812 451.035156 C 1086.351562 451.035156 1083.699219 451.035156 1081.042969 450.742188 " fill-opacity="1" fill-rule="nonzero"/><path fill="#e6ae7e" d="M 1214.65625 469.3125 C 1227.632812 484.050781 1240.609375 500.265625 1253 518.542969 C 1325.851562 625.550781 1340.597656 739.632812 1341.777344 814.214844 C 1365.375 849.292969 1389.855469 888.796875 1382.777344 894.984375 C 1381.300781 896.460938 1378.058594 896.164062 1366.257812 890.269531 C 1351.511719 882.898438 1329.683594 869.929688 1306.382812 846.933594 C 1301.664062 863.445312 1298.421875 871.402344 1296.0625 871.109375 C 1293.40625 870.8125 1292.816406 858.136719 1293.996094 833.375 C 1275.710938 790.632812 1257.71875 746.707031 1240.019531 701.898438 C 1227.042969 668.882812 1214.359375 636.457031 1202.269531 604.324219 C 1206.398438 559.222656 1210.527344 514.414062 1214.65625 469.3125 Z M 936.226562 471.375 C 922.953125 486.707031 909.679688 502.035156 896.40625 517.363281 C 894.046875 480.808594 891.394531 444.257812 889.035156 407.996094 C 903.484375 306 899.355469 286.25 894.046875 284.777344 C 893.164062 284.480469 892.277344 284.777344 892.277344 284.777344 C 882.25 286.25 879.890625 319.5625 879.003906 337.542969 C 874.285156 337.835938 860.128906 339.015625 848.921875 349.628906 C 835.058594 362.894531 831.519531 385.59375 840.660156 406.226562 C 836.828125 416.25 770.167969 594.597656 830.339844 641.761719 C 847.445312 655.027344 867.207031 654.734375 867.207031 654.734375 C 899.355469 654.144531 930.03125 623.191406 946.84375 575.730469 C 949.792969 543.011719 953.035156 510.582031 955.988281 477.863281 Z M 936.226562 471.375 " fill-opacity="1" fill-rule="nonzero"/><path fill="#ff814b" d="M 1221.734375 864.621094 C 1247.101562 988.136719 1272.171875 1111.949219 1297.535156 1235.464844 C 1252.410156 1255.214844 1184.277344 1278.503906 1098.445312 1284.695312 C 980.46875 1293.242188 886.671875 1264.945312 834.761719 1244.898438 C 875.171875 1076.28125 915.875 906.777344 956.28125 737.570312 C 953.921875 703.078125 951.855469 668.589844 949.496094 633.804688 C 943.597656 623.78125 933.570312 603.441406 932.390625 576.027344 C 931.507812 557.453125 935.339844 542.125 938.585938 532.398438 C 937.699219 512.058594 937.109375 491.71875 936.226562 471.082031 C 948.90625 460.765625 968.375 447.5 994.625 437.769531 C 1016.746094 429.515625 1036.507812 426.273438 1051.253906 425.09375 C 1056.5625 436.003906 1067.183594 443.371094 1078.980469 443.960938 C 1092.253906 444.550781 1104.933594 436.886719 1110.539062 424.210938 C 1124.105469 423.621094 1153.308594 424.800781 1182.800781 442.191406 C 1197.253906 450.742188 1207.578125 461.058594 1214.65625 469.019531 C 1214.65625 487.296875 1214.65625 505.570312 1214.65625 523.847656 C 1218.488281 534.460938 1224.09375 553.621094 1222.324219 578.382812 C 1220.554688 602.261719 1212.296875 619.949219 1206.988281 629.675781 C 1203.449219 666.230469 1199.613281 702.785156 1196.074219 739.339844 C 1200.5 761.152344 1204.921875 782.671875 1209.347656 804.484375 M 1209.347656 804.484375 C 1213.476562 824.53125 1217.605469 844.578125 1221.734375 864.621094 " fill-opacity="1" fill-rule="nonzero"/><path fill="#ffd558" d="M 1276.890625 1625.46875 C 1278.660156 1629.007812 1280.722656 1636.082031 1279.542969 1645.808594 C 1232.058594 1646.398438 1184.570312 1646.988281 1137.085938 1647.871094 C 1133.839844 1640.796875 1130.59375 1634.3125 1127.054688 1627.53125 C 1124.402344 1634.605469 1121.453125 1641.09375 1118.796875 1647.871094 C 1109.359375 1648.167969 1099.625 1648.167969 1090.1875 1648.460938 C 1090.777344 1639.027344 1093.136719 1605.71875 1094.023438 1592.15625 C 1094.023438 1591.863281 1094.023438 1589.800781 1094.316406 1588.914062 C 1095.203125 1572.703125 1096.675781 1552.65625 1098.152344 1529.074219 C 1100.214844 1532.90625 1103.164062 1537.621094 1106.703125 1543.222656 C 1106.703125 1543.222656 1107.882812 1544.992188 1109.066406 1546.464844 C 1118.796875 1560.910156 1150.355469 1601.886719 1196.074219 1604.242188 C 1202.5625 1604.539062 1213.179688 1603.949219 1226.75 1598.9375 C 1249.753906 1598.347656 1269.515625 1608.371094 1276.890625 1625.46875 Z M 863.371094 1625.46875 C 861.601562 1629.007812 859.539062 1636.082031 860.71875 1645.808594 C 908.203125 1646.398438 955.691406 1646.988281 1003.179688 1647.871094 C 1006.421875 1640.796875 1009.667969 1634.3125 1013.207031 1627.53125 C 1015.859375 1634.605469 1018.808594 1641.09375 1021.464844 1647.871094 C 1030.902344 1648.167969 1040.636719 1648.167969 1050.074219 1648.460938 C 1047.125 1620.753906 1046.535156 1600.117188 1045.945312 1588.914062 C 1045.355469 1575.355469 1044.472656 1555.605469 1042.40625 1529.074219 C 1040.636719 1532.316406 1037.6875 1537.328125 1033.558594 1543.222656 C 1024.710938 1555.898438 991.96875 1602.179688 944.1875 1604.242188 C 937.699219 1604.539062 927.082031 1603.949219 913.515625 1598.9375 C 890.507812 1598.347656 870.453125 1608.371094 863.371094 1625.46875 Z M 1006.128906 287.132812 C 1007.898438 285.957031 1009.371094 285.660156 1010.257812 285.367188 C 1009.960938 281.238281 1008.191406 245.863281 1035.621094 222.871094 C 1054.5 206.953125 1076.03125 206.066406 1080.160156 206.066406 C 1084.878906 206.066406 1102.28125 206.066406 1119.386719 216.976562 C 1152.714844 238.496094 1152.714844 282.125 1152.421875 285.367188 C 1153.011719 285.367188 1154.488281 285.070312 1155.960938 285.660156 C 1157.140625 286.25 1158.027344 286.839844 1158.320312 287.132812 C 1167.757812 245.570312 1154.78125 205.476562 1126.464844 186.90625 C 1104.640625 172.460938 1078.980469 174.527344 1076.914062 174.820312 C 1074.851562 175.117188 1052.433594 177.472656 1033.261719 193.390625 C 993.738281 226.113281 1002.882812 286.25 1003.472656 290.082031 C 1003.769531 289.492188 1004.652344 288.019531 1006.128906 287.132812 Z M 1006.128906 287.132812 " fill-opacity="1" fill-rule="nonzero"/><path fill="#171717" d="M 1058.628906 307.476562 C 1058.628906 311.011719 1056.269531 313.664062 1053.613281 313.664062 C 1050.960938 313.664062 1048.601562 311.011719 1048.601562 307.476562 C 1048.601562 303.9375 1050.960938 301.285156 1053.613281 301.285156 C 1056.269531 301.285156 1058.628906 304.230469 1058.628906 307.476562 Z M 1110.539062 302.757812 C 1107.882812 302.757812 1105.523438 305.410156 1105.523438 308.949219 C 1105.523438 312.484375 1107.882812 315.140625 1110.539062 315.140625 C 1113.195312 315.140625 1115.554688 312.484375 1115.554688 308.949219 C 1115.554688 305.410156 1113.195312 302.757812 1110.539062 302.757812 Z M 1110.539062 302.757812 " fill-opacity="1" fill-rule="nonzero"/><path fill="#171717" d="M 1005.539062 307.179688 C 1003.769531 303.054688 1004.359375 296.863281 1007.011719 293.03125 C 1009.078125 290.378906 1012.910156 289.789062 1014.679688 293.03125 C 1015.859375 294.800781 1012.910156 296.566406 1011.730469 294.800781 C 1010.550781 292.734375 1009.078125 299.808594 1009.078125 300.105469 C 1009.078125 302.167969 1009.371094 303.9375 1009.667969 306 C 1010.257812 308.652344 1006.421875 309.832031 1005.539062 307.179688 Z M 882.542969 338.722656 C 882.25 335.773438 877.234375 335.480469 877.53125 338.722656 C 877.824219 342.257812 877.53125 369.675781 869.566406 367.90625 C 872.8125 359.355469 871.925781 344.617188 871.632812 339.902344 C 871.632812 336.953125 866.617188 336.660156 866.914062 339.902344 C 866.914062 344.324219 868.683594 369.675781 861.011719 370.558594 C 864.257812 362.304688 863.371094 348.746094 862.488281 343.734375 C 861.898438 341.082031 857.769531 341.671875 857.769531 344.324219 C 858.0625 348.746094 860.128906 372.917969 851.871094 372.621094 C 851.871094 372.328125 851.871094 372.328125 852.164062 372.035156 C 853.640625 364.367188 853.640625 356.703125 853.050781 349.039062 C 852.753906 346.09375 847.742188 345.796875 848.035156 349.039062 C 848.332031 352.578125 850.691406 375.570312 844.496094 374.980469 C 842.136719 374.6875 841.546875 378.519531 843.90625 379.109375 C 846.855469 379.699219 848.625 378.519531 850.101562 377.042969 C 853.933594 377.929688 856.589844 376.75 858.652344 374.390625 C 860.421875 374.980469 861.601562 374.980469 863.078125 374.6875 C 862.488281 375.277344 861.898438 375.867188 861.601562 376.453125 C 859.539062 378.519531 857.179688 380.582031 856 383.234375 C 855.113281 385.003906 856.882812 387.066406 858.652344 385.886719 C 861.308594 384.414062 863.078125 381.761719 864.847656 379.402344 C 866.914062 377.042969 868.976562 374.6875 871.042969 372.328125 C 873.402344 372.328125 875.464844 370.558594 876.941406 368.199219 C 876.941406 369.085938 876.941406 369.96875 876.941406 370.855469 C 876.941406 374.097656 881.660156 374.097656 881.953125 370.855469 C 882.25 361.714844 882.839844 352.871094 882.542969 343.734375 C 882.542969 341.671875 882.542969 339.902344 882.542969 338.722656 Z M 869.273438 378.8125 C 868.683594 379.992188 868.09375 381.171875 867.503906 382.351562 C 866.324219 385.003906 870.15625 387.363281 871.632812 384.710938 C 872.222656 383.53125 872.8125 382.351562 873.402344 381.171875 C 874.582031 378.519531 870.453125 376.160156 869.273438 378.8125 Z M 1363.898438 869.632812 C 1362.425781 868.160156 1359.769531 870.222656 1360.949219 871.992188 C 1366.847656 880.246094 1372.746094 888.207031 1378.941406 895.871094 C 1380.710938 897.933594 1384.25 894.984375 1382.777344 892.921875 C 1376.582031 884.964844 1370.386719 877.296875 1363.898438 869.632812 Z M 1380.121094 887.617188 C 1381.890625 889.386719 1384.839844 887.027344 1383.660156 884.964844 C 1380.121094 878.476562 1374.8125 872.875 1370.09375 867.277344 C 1368.617188 865.507812 1365.667969 867.867188 1367.144531 869.632812 C 1370.976562 875.53125 1375.109375 882.308594 1380.121094 887.617188 Z M 1359.476562 875.234375 C 1357.410156 873.171875 1354.460938 876.121094 1356.230469 878.476562 C 1360.066406 882.898438 1364.195312 887.617188 1368.324219 892.039062 C 1370.386719 894.394531 1373.632812 890.859375 1371.863281 888.5 C 1368.027344 883.785156 1363.605469 879.363281 1359.476562 875.234375 Z M 1348.855469 861.378906 C 1347.382812 860.496094 1345.613281 861.96875 1345.90625 863.738281 C 1346.203125 865.210938 1347.085938 866.097656 1347.972656 867.277344 C 1350.035156 869.632812 1353.28125 866.390625 1351.511719 863.738281 C 1350.625 862.558594 1350.035156 861.96875 1348.855469 861.378906 Z M 1355.9375 859.316406 C 1355.050781 857.84375 1354.460938 856.664062 1353.28125 855.777344 C 1351.804688 854.601562 1349.445312 855.777344 1350.035156 857.546875 C 1350.332031 859.023438 1351.214844 860.199219 1352.101562 861.675781 C 1353.578125 864.03125 1357.410156 861.96875 1355.9375 859.316406 Z M 1358.589844 857.84375 C 1360.65625 859.90625 1364.195312 856.664062 1361.835938 854.601562 C 1360.949219 853.714844 1360.65625 853.421875 1359.476562 852.832031 C 1357.707031 851.945312 1355.9375 853.714844 1356.820312 855.484375 C 1357.410156 856.367188 1357.707031 856.664062 1358.589844 857.84375 Z M 1342.664062 800.949219 C 1322.605469 803.011719 1303.433594 808.023438 1284.558594 815.097656 C 1281.609375 816.277344 1282.789062 820.996094 1285.738281 819.816406 C 1304.320312 812.738281 1323.492188 808.023438 1343.253906 804.78125 C 1345.316406 804.484375 1345.023438 800.652344 1342.664062 800.949219 Z M 1342.367188 799.476562 C 1344.726562 799.476562 1344.726562 795.9375 1342.367188 795.9375 C 1320.835938 795.347656 1300.484375 800.0625 1281.019531 808.613281 C 1278.070312 809.792969 1280.722656 813.917969 1283.378906 812.738281 C 1302.253906 804.78125 1322.015625 800.652344 1342.367188 799.476562 Z M 1016.15625 342.554688 C 1007.898438 345.503906 998.460938 341.964844 996.394531 332.828125 C 994.035156 323.394531 1001.703125 315.140625 1010.847656 314.550781 C 1013.207031 314.550781 1013.207031 311.011719 1010.847656 311.011719 C 999.050781 310.71875 989.609375 320.445312 991.378906 332.53125 C 993.148438 344.914062 1006.128906 351.691406 1017.628906 347.566406 C 1020.582031 346.09375 1019.105469 341.375 1016.15625 342.554688 Z M 1150.945312 295.976562 C 1153.308594 294.210938 1155.371094 297.453125 1155.667969 299.222656 C 1156.257812 301.578125 1155.371094 303.640625 1155.371094 306 C 1155.078125 308.652344 1159.207031 308.949219 1159.796875 306.589844 C 1160.976562 302.464844 1161.269531 296.863281 1158.027344 293.621094 C 1155.371094 290.964844 1151.242188 290.964844 1148.585938 293.621094 C 1147.113281 295.09375 1149.472656 297.15625 1150.945312 295.976562 Z M 1169.527344 337.835938 C 1171.59375 324.867188 1163.628906 311.011719 1149.472656 311.308594 C 1147.113281 311.308594 1147.113281 314.550781 1149.472656 314.84375 C 1172.476562 316.320312 1167.167969 357.292969 1147.40625 346.976562 C 1145.34375 345.796875 1142.6875 348.746094 1144.753906 350.515625 C 1154.78125 359.355469 1167.757812 349.039062 1169.527344 337.835938 Z M 1291.34375 645.007812 C 1280.722656 648.839844 1271.285156 654.4375 1263.027344 662.105469 C 1260.667969 664.167969 1264.207031 667.410156 1266.566406 665.640625 C 1274.53125 658.859375 1283.378906 653.261719 1293.113281 648.839844 C 1295.175781 647.953125 1293.703125 644.121094 1291.34375 645.007812 Z M 986.957031 1293.539062 C 977.519531 1291.476562 967.195312 1291.769531 957.757812 1291.179688 C 954.808594 1290.886719 954.808594 1295.601562 957.757812 1295.898438 C 967.195312 1296.78125 976.929688 1298.550781 986.367188 1297.960938 C 988.726562 1297.664062 989.609375 1294.128906 986.957031 1293.539062 Z M 970.734375 1297.960938 C 968.375 1298.253906 965.71875 1298.253906 963.359375 1298.84375 C 961 1299.730469 961.589844 1302.675781 963.949219 1302.972656 C 966.308594 1303.265625 968.964844 1302.675781 971.324219 1302.382812 C 973.683594 1302.085938 973.09375 1297.960938 970.734375 1297.960938 Z M 1176.902344 1285.578125 C 1165.398438 1287.054688 1153.601562 1289.117188 1142.097656 1291.769531 C 1139.148438 1292.359375 1140.328125 1296.78125 1143.277344 1296.191406 C 1154.78125 1294.421875 1166.285156 1292.0625 1177.789062 1289.117188 C 1180.148438 1288.527344 1179.261719 1285.285156 1176.902344 1285.578125 Z M 1171.59375 1294.71875 C 1169.234375 1295.011719 1166.578125 1295.308594 1164.21875 1296.191406 C 1161.859375 1296.78125 1162.15625 1300.613281 1164.808594 1300.613281 C 1167.464844 1300.316406 1170.117188 1299.730469 1172.773438 1299.140625 C 1175.429688 1298.253906 1174.246094 1294.128906 1171.59375 1294.71875 Z M 1106.113281 390.015625 C 1089.304688 395.027344 1075.144531 397.386719 1058.332031 391.488281 C 1055.972656 390.605469 1055.089844 394.140625 1057.449219 395.027344 C 1072.785156 401.511719 1093.136719 402.691406 1107.882812 393.550781 C 1109.359375 392.375 1108.179688 389.132812 1106.113281 390.015625 Z M 1076.914062 338.722656 C 1080.75 339.3125 1085.171875 338.425781 1089.007812 338.132812 C 1091.367188 338.132812 1091.367188 334.59375 1089.007812 334.59375 C 1085.761719 334.59375 1081.929688 334.003906 1078.683594 334.300781 C 1080.75 319.855469 1082.8125 305.117188 1083.402344 290.671875 C 1083.402344 288.3125 1079.570312 287.429688 1078.980469 290.082031 C 1076.621094 305.117188 1075.441406 321.328125 1074.554688 336.660156 C 1074.261719 338.132812 1075.734375 338.722656 1076.914062 338.722656 Z M 1066.296875 292.441406 C 1055.382812 286.839844 1042.703125 287.722656 1033.261719 295.976562 C 1030.902344 298.042969 1034.148438 301.285156 1036.507812 299.222656 C 1044.472656 293.03125 1055.089844 291.261719 1064.230469 295.386719 C 1066.59375 296.273438 1068.65625 293.324219 1066.296875 292.441406 Z M 1099.332031 294.503906 C 1097.265625 295.976562 1099.035156 298.925781 1101.394531 297.746094 C 1110.539062 292.734375 1121.15625 293.621094 1128.824219 300.398438 C 1131.1875 302.464844 1134.726562 298.925781 1132.367188 296.863281 C 1122.925781 288.609375 1109.949219 287.429688 1099.332031 294.503906 Z M 1101.691406 346.679688 C 1103.164062 345.796875 1105.523438 346.679688 1105.523438 348.746094 C 1107.589844 364.367188 1095.792969 378.222656 1079.863281 377.632812 C 1064.527344 377.042969 1054.792969 363.191406 1056.5625 348.449219 C 1056.5625 347.566406 1057.449219 346.976562 1058.332031 346.976562 C 1058.921875 346.386719 1059.511719 345.796875 1060.988281 346.09375 C 1074.554688 347.859375 1088.125 347.859375 1101.691406 346.679688 Z M 1100.804688 351.101562 C 1087.535156 352.871094 1074.261719 352.871094 1060.988281 351.101562 C 1060.988281 362.601562 1068.953125 373.210938 1081.339844 372.917969 C 1093.433594 372.621094 1101.101562 362.304688 1100.804688 351.101562 Z M 894.933594 522.078125 C 896.113281 536.820312 895.523438 550.96875 894.046875 565.707031 C 893.753906 568.363281 898.175781 568.949219 898.765625 566.296875 C 901.421875 551.558594 901.421875 536.820312 899.652344 522.078125 C 899.0625 519.132812 894.636719 519.132812 894.933594 522.078125 Z M 1034.441406 330.761719 C 1034.738281 332.238281 1034.738281 334.003906 1035.328125 335.480469 C 1036.210938 337.542969 1039.457031 337.542969 1039.457031 334.890625 C 1039.457031 333.121094 1039.160156 331.351562 1038.867188 329.582031 C 1038.277344 326.339844 1034.148438 327.816406 1034.441406 330.761719 Z M 1040.636719 331.648438 C 1040.929688 332.53125 1041.226562 333.121094 1041.519531 334.003906 C 1042.40625 336.070312 1045.945312 334.890625 1045.652344 332.828125 C 1045.652344 331.941406 1045.355469 331.058594 1045.355469 330.171875 C 1044.472656 327.226562 1039.75 328.699219 1040.636719 331.648438 Z M 1117.914062 329.878906 C 1117.324219 331.351562 1117.027344 332.828125 1116.734375 334.59375 C 1116.4375 336.953125 1119.976562 337.542969 1120.863281 335.773438 C 1121.746094 334.300781 1122.042969 332.828125 1122.632812 331.351562 C 1123.515625 328.109375 1118.796875 326.929688 1117.914062 329.878906 Z M 1126.464844 331.351562 C 1126.171875 332.53125 1125.875 333.417969 1125.582031 334.59375 C 1125.285156 336.953125 1128.53125 337.25 1129.710938 335.773438 C 1130.300781 334.890625 1130.890625 333.710938 1131.1875 332.53125 C 1132.367188 329.878906 1127.644531 328.40625 1126.464844 331.351562 Z M 1126.464844 331.351562 " fill-opacity="1" fill-rule="nonzero"/><path fill="#171717" d="M 1094.023438 508.816406 C 1096.675781 511.171875 1096.972656 516.183594 1095.496094 518.835938 C 1094.316406 520.605469 1091.957031 522.078125 1090.1875 521.195312 C 1088.714844 520.605469 1087.828125 519.132812 1087.535156 517.65625 C 1087.238281 516.183594 1087.535156 514.414062 1087.828125 512.941406 C 1088.125 509.992188 1090.777344 505.867188 1094.023438 508.816406 Z M 1087.535156 568.363281 C 1087.238281 569.835938 1086.945312 571.605469 1087.238281 573.078125 C 1087.535156 574.550781 1088.417969 576.320312 1089.894531 576.617188 C 1091.957031 577.5 1094.316406 576.027344 1095.203125 574.257812 C 1096.675781 571.308594 1096.382812 566.296875 1093.726562 564.234375 C 1090.777344 561.582031 1088.125 565.707031 1087.535156 568.363281 Z M 1087.535156 619.949219 C 1087.238281 621.421875 1086.945312 623.191406 1087.238281 624.664062 C 1087.535156 626.140625 1088.417969 627.910156 1089.894531 628.203125 C 1091.957031 629.085938 1094.316406 627.613281 1095.203125 625.84375 C 1096.675781 622.898438 1096.382812 617.886719 1093.726562 615.824219 C 1090.777344 613.167969 1088.125 617.296875 1087.535156 619.949219 Z M 1087.535156 684.210938 C 1087.238281 685.6875 1086.945312 687.457031 1087.238281 688.929688 C 1087.535156 690.402344 1088.417969 692.171875 1089.894531 692.46875 C 1091.957031 693.351562 1094.316406 691.878906 1095.203125 690.109375 C 1096.675781 687.160156 1096.382812 682.148438 1093.726562 680.085938 C 1090.777344 677.433594 1088.125 681.558594 1087.535156 684.210938 Z M 1087.535156 684.210938 " fill-opacity="1" fill-rule="nonzero"/><path fill="#171717" d="M 1038.867188 430.105469 C 1037.6875 427.453125 1041.519531 425.09375 1042.703125 427.746094 C 1059.511719 459.585938 1103.164062 459.878906 1117.324219 425.683594 C 1118.503906 422.738281 1123.222656 424.210938 1122.042969 426.863281 C 1107 464.007812 1056.269531 467.25 1038.867188 430.105469 Z M 958.9375 736.980469 C 1036.800781 751.71875 1115.847656 750.539062 1193.714844 736.390625 C 1196.664062 735.800781 1195.484375 731.085938 1192.535156 731.671875 C 1155.078125 738.453125 1117.914062 741.695312 1080.75 741.992188 C 1080.453125 649.132812 1080.75 556.570312 1079.863281 463.710938 C 1101.101562 464.007812 1122.925781 451.625 1132.660156 428.335938 C 1133.839844 425.390625 1129.121094 424.210938 1127.941406 427.160156 C 1110.246094 469.3125 1056.269531 468.722656 1035.328125 429.8125 C 1033.851562 427.160156 1030.3125 429.515625 1031.492188 432.167969 C 1040.636719 451.921875 1057.742188 462.238281 1075.441406 463.710938 C 1074.851562 556.570312 1075.734375 649.429688 1076.03125 742.285156 C 1037.390625 742.285156 999.050781 739.042969 960.117188 733.148438 C 957.460938 732.261719 956.28125 736.390625 958.9375 736.980469 Z M 956.871094 751.128906 C 1036.210938 761.445312 1117.027344 760.859375 1195.777344 745.527344 C 1198.140625 744.9375 1196.957031 741.695312 1194.894531 741.992188 C 1115.257812 753.78125 1036.800781 756.4375 956.871094 746.117188 C 953.625 745.824219 953.625 750.835938 956.871094 751.128906 Z M 1290.164062 1205.988281 C 1146.816406 1264.058594 990.496094 1270.25 845.085938 1215.125 C 842.136719 1213.945312 840.957031 1218.664062 843.90625 1219.839844 C 987.546875 1274.082031 1150.945312 1272.902344 1291.636719 1208.933594 C 1293.113281 1208.050781 1291.933594 1205.398438 1290.164062 1205.988281 Z M 922.65625 1196.257812 C 943.894531 1069.5 963.359375 942.742188 982.828125 815.6875 C 983.121094 812.738281 978.992188 811.5625 978.402344 814.507812 C 957.757812 941.265625 937.109375 1068.027344 917.9375 1195.078125 C 917.644531 1198.027344 922.066406 1199.207031 922.65625 1196.257812 Z M 1077.503906 827.480469 C 1075.441406 943.625 1074.261719 1060.066406 1072.785156 1176.210938 C 1072.785156 1179.457031 1077.503906 1179.457031 1077.800781 1176.210938 C 1079.273438 1060.066406 1081.339844 943.625 1081.929688 827.480469 C 1081.929688 824.53125 1077.503906 824.53125 1077.503906 827.480469 Z M 1156.550781 823.058594 C 1173.066406 937.140625 1191.648438 1050.929688 1209.640625 1164.714844 C 1210.230469 1167.957031 1214.949219 1166.484375 1214.359375 1163.535156 C 1196.367188 1049.75 1179.261719 935.960938 1159.796875 822.46875 C 1159.5 820.109375 1156.257812 820.996094 1156.550781 823.058594 Z M 1156.550781 823.058594 " fill-opacity="1" fill-rule="nonzero"/><g fill="#171717" fill-opacity="1"><g transform="translate(161.183173, 438.749998)"><g><path d="M 29.953125 0 C 28.460938 0 27.578125 -0.695312 27.296875 -2.09375 L 2.65625 -95.34375 C 2.5625 -95.53125 2.515625 -95.765625 2.515625 -96.046875 C 2.515625 -97.347656 3.265625 -98 4.765625 -98 L 20.71875 -98 C 22.113281 -98 22.953125 -97.300781 23.234375 -95.90625 L 36.40625 -40.046875 C 36.5 -39.671875 36.679688 -39.484375 36.953125 -39.484375 C 37.234375 -39.484375 37.421875 -39.671875 37.515625 -40.046875 L 50.125 -95.90625 C 50.40625 -97.300781 51.242188 -98 52.640625 -98 L 68.453125 -98 C 69.953125 -98 70.84375 -97.300781 71.125 -95.90625 L 84.84375 -40.046875 C 84.9375 -39.671875 85.097656 -39.484375 85.328125 -39.484375 C 85.566406 -39.484375 85.726562 -39.671875 85.8125 -40.046875 L 98.421875 -95.90625 C 98.703125 -97.300781 99.539062 -98 100.9375 -98 L 116.203125 -98 C 117.035156 -98 117.613281 -97.738281 117.9375 -97.21875 C 118.269531 -96.707031 118.34375 -96.082031 118.15625 -95.34375 L 95.625 -2.09375 C 95.34375 -0.695312 94.453125 0 92.953125 0 L 77.5625 0 C 76.0625 0 75.175781 -0.695312 74.90625 -2.09375 L 60.90625 -61.59375 C 60.8125 -61.96875 60.625 -62.15625 60.34375 -62.15625 C 60.0625 -62.15625 59.875 -61.96875 59.78125 -61.59375 L 46.765625 -2.09375 C 46.484375 -0.695312 45.640625 0 44.234375 0 Z M 29.953125 0 "/></g></g></g><g fill="#171717" fill-opacity="1"><g transform="translate(281.996418, 438.749998)"><g><path d="M 44.796875 -73.078125 C 52.265625 -73.078125 58.285156 -70.789062 62.859375 -66.21875 C 67.429688 -61.644531 69.71875 -55.4375 69.71875 -47.59375 L 69.71875 -2.375 C 69.71875 -0.789062 68.925781 0 67.34375 0 L 52.359375 0 C 50.773438 0 49.984375 -0.789062 49.984375 -2.375 L 49.984375 -43.546875 C 49.984375 -47.273438 48.953125 -50.304688 46.890625 -52.640625 C 44.835938 -54.972656 42.085938 -56.140625 38.640625 -56.140625 C 35.179688 -56.140625 32.378906 -54.972656 30.234375 -52.640625 C 28.085938 -50.304688 27.015625 -47.273438 27.015625 -43.546875 L 27.015625 -2.375 C 27.015625 -0.789062 26.222656 0 24.640625 0 L 9.65625 0 C 8.070312 0 7.28125 -0.789062 7.28125 -2.375 L 7.28125 -95.625 C 7.28125 -97.207031 8.070312 -98 9.65625 -98 L 24.640625 -98 C 26.222656 -98 27.015625 -97.207031 27.015625 -95.625 L 27.015625 -65.65625 C 27.015625 -65.28125 27.109375 -65.046875 27.296875 -64.953125 C 27.484375 -64.859375 27.671875 -64.953125 27.859375 -65.234375 C 31.679688 -70.460938 37.328125 -73.078125 44.796875 -73.078125 Z M 44.796875 -73.078125 "/></g></g></g><g fill="#171717" fill-opacity="1"><g transform="translate(358.572139, 438.749998)"><g><path d="M 36.125 -73.078125 C 42.1875 -73.078125 47.597656 -72.023438 52.359375 -69.921875 C 57.117188 -67.828125 60.828125 -64.957031 63.484375 -61.3125 C 66.148438 -57.675781 67.484375 -53.617188 67.484375 -49.140625 L 67.484375 -2.375 C 67.484375 -0.789062 66.6875 0 65.09375 0 L 50.125 0 C 48.53125 0 47.734375 -0.789062 47.734375 -2.375 L 47.734375 -5.734375 C 47.734375 -6.109375 47.640625 -6.316406 47.453125 -6.359375 C 47.273438 -6.410156 47.046875 -6.296875 46.765625 -6.015625 C 42.460938 -1.253906 36.066406 1.125 27.578125 1.125 C 20.390625 1.125 14.601562 -0.644531 10.21875 -4.1875 C 5.832031 -7.738281 3.640625 -12.96875 3.640625 -19.875 C 3.640625 -27.0625 6.160156 -32.640625 11.203125 -36.609375 C 16.242188 -40.578125 23.429688 -42.5625 32.765625 -42.5625 L 46.90625 -42.5625 C 47.457031 -42.5625 47.734375 -42.84375 47.734375 -43.40625 L 47.734375 -46.34375 C 47.734375 -49.414062 46.773438 -51.816406 44.859375 -53.546875 C 42.953125 -55.273438 40.179688 -56.140625 36.546875 -56.140625 C 33.742188 -56.140625 31.429688 -55.671875 29.609375 -54.734375 C 27.785156 -53.804688 26.550781 -52.5 25.90625 -50.8125 C 25.34375 -49.507812 24.40625 -48.90625 23.09375 -49 L 7.5625 -50.953125 C 6.8125 -51.046875 6.226562 -51.253906 5.8125 -51.578125 C 5.394531 -51.910156 5.226562 -52.359375 5.3125 -52.921875 C 5.78125 -56.742188 7.390625 -60.195312 10.140625 -63.28125 C 12.898438 -66.363281 16.539062 -68.765625 21.0625 -70.484375 C 25.59375 -72.210938 30.613281 -73.078125 36.125 -73.078125 Z M 33.3125 -13.578125 C 37.332031 -13.578125 40.738281 -14.648438 43.53125 -16.796875 C 46.332031 -18.941406 47.734375 -21.695312 47.734375 -25.0625 L 47.734375 -29.953125 C 47.734375 -30.515625 47.457031 -30.796875 46.90625 -30.796875 L 36.953125 -30.796875 C 32.753906 -30.796875 29.441406 -30.003906 27.015625 -28.421875 C 24.585938 -26.835938 23.375 -24.597656 23.375 -21.703125 C 23.375 -19.179688 24.285156 -17.195312 26.109375 -15.75 C 27.929688 -14.300781 30.332031 -13.578125 33.3125 -13.578125 Z M 33.3125 -13.578125 "/></g></g></g><g fill="#171717" fill-opacity="1"><g transform="translate(432.488013, 438.749998)"><g><path d="M 48.578125 -58.515625 C 48.578125 -56.929688 47.785156 -56.140625 46.203125 -56.140625 L 33.59375 -56.140625 C 33.039062 -56.140625 32.765625 -55.859375 32.765625 -55.296875 L 32.765625 -26.3125 C 32.765625 -23.238281 33.394531 -20.976562 34.65625 -19.53125 C 35.914062 -18.082031 37.941406 -17.359375 40.734375 -17.359375 L 44.65625 -17.359375 C 46.25 -17.359375 47.046875 -16.566406 47.046875 -14.984375 L 47.046875 -2.9375 C 47.046875 -1.445312 46.25 -0.609375 44.65625 -0.421875 C 41.113281 -0.234375 38.546875 -0.140625 36.953125 -0.140625 C 29.210938 -0.140625 23.425781 -1.445312 19.59375 -4.0625 C 15.769531 -6.675781 13.8125 -11.53125 13.71875 -18.625 L 13.71875 -55.296875 C 13.71875 -55.859375 13.4375 -56.140625 12.875 -56.140625 L 5.734375 -56.140625 C 4.148438 -56.140625 3.359375 -56.929688 3.359375 -58.515625 L 3.359375 -69.578125 C 3.359375 -71.160156 4.148438 -71.953125 5.734375 -71.953125 L 12.875 -71.953125 C 13.4375 -71.953125 13.71875 -72.234375 13.71875 -72.796875 L 13.71875 -88.625 C 13.71875 -90.207031 14.507812 -91 16.09375 -91 L 30.375 -91 C 31.96875 -91 32.765625 -90.207031 32.765625 -88.625 L 32.765625 -72.796875 C 32.765625 -72.234375 33.039062 -71.953125 33.59375 -71.953125 L 46.203125 -71.953125 C 47.785156 -71.953125 48.578125 -71.160156 48.578125 -69.578125 Z M 48.578125 -58.515625 "/></g></g></g><g fill="#171717" fill-opacity="1"><g transform="translate(485.685047, 438.749998)"><g/></g></g><g fill="#171717" fill-opacity="1"><g transform="translate(513.683474, 438.749998)"><g><path d="M 18.203125 -78.8125 C 14.648438 -78.8125 11.753906 -79.910156 9.515625 -82.109375 C 7.273438 -84.304688 6.15625 -87.128906 6.15625 -90.578125 C 6.15625 -94.035156 7.273438 -96.859375 9.515625 -99.046875 C 11.753906 -101.242188 14.648438 -102.34375 18.203125 -102.34375 C 21.835938 -102.34375 24.75 -101.269531 26.9375 -99.125 C 29.132812 -96.976562 30.234375 -94.128906 30.234375 -90.578125 C 30.234375 -87.035156 29.132812 -84.1875 26.9375 -82.03125 C 24.75 -79.882812 21.835938 -78.8125 18.203125 -78.8125 Z M 10.78125 0 C 9.195312 0 8.40625 -0.789062 8.40625 -2.375 L 8.40625 -69.578125 C 8.40625 -71.160156 9.195312 -71.953125 10.78125 -71.953125 L 25.765625 -71.953125 C 27.347656 -71.953125 28.140625 -71.160156 28.140625 -69.578125 L 28.140625 -2.375 C 28.140625 -0.789062 27.347656 0 25.765625 0 Z M 10.78125 0 "/></g></g></g><g fill="#171717" fill-opacity="1"><g transform="translate(550.081452, 438.749998)"><g><path d="M 35.984375 0.984375 C 29.722656 0.984375 24.257812 0.0976562 19.59375 -1.671875 C 14.925781 -3.453125 11.332031 -5.925781 8.8125 -9.09375 C 6.300781 -12.269531 5.046875 -15.863281 5.046875 -19.875 L 5.046875 -20.578125 C 5.046875 -22.160156 5.835938 -22.953125 7.421875 -22.953125 L 21.5625 -22.953125 C 23.144531 -22.953125 23.9375 -22.675781 23.9375 -22.125 L 23.9375 -21.140625 C 23.9375 -19.085938 25.054688 -17.335938 27.296875 -15.890625 C 29.535156 -14.441406 32.382812 -13.71875 35.84375 -13.71875 C 39.007812 -13.71875 41.570312 -14.320312 43.53125 -15.53125 C 45.5 -16.75 46.484375 -18.335938 46.484375 -20.296875 C 46.484375 -21.972656 45.640625 -23.234375 43.953125 -24.078125 C 42.273438 -24.921875 39.523438 -25.804688 35.703125 -26.734375 C 31.128906 -27.953125 27.722656 -29.023438 25.484375 -29.953125 C 19.410156 -32.015625 14.597656 -34.535156 11.046875 -37.515625 C 7.503906 -40.503906 5.734375 -44.800781 5.734375 -50.40625 C 5.734375 -57.3125 8.441406 -62.789062 13.859375 -66.84375 C 19.273438 -70.90625 26.367188 -72.9375 35.140625 -72.9375 C 41.109375 -72.9375 46.359375 -71.976562 50.890625 -70.0625 C 55.421875 -68.15625 58.921875 -65.472656 61.390625 -62.015625 C 63.859375 -58.566406 65.09375 -54.648438 65.09375 -50.265625 C 65.09375 -49.796875 64.882812 -49.394531 64.46875 -49.0625 C 64.050781 -48.738281 63.46875 -48.578125 62.71875 -48.578125 L 49 -48.578125 C 47.414062 -48.578125 46.625 -48.859375 46.625 -49.421875 L 46.625 -50.265625 C 46.625 -52.316406 45.59375 -54.039062 43.53125 -55.4375 C 41.476562 -56.84375 38.726562 -57.546875 35.28125 -57.546875 C 32.195312 -57.546875 29.648438 -56.984375 27.640625 -55.859375 C 25.640625 -54.742188 24.640625 -53.203125 24.640625 -51.234375 C 24.640625 -49.367188 25.59375 -47.96875 27.5 -47.03125 C 29.414062 -46.101562 32.566406 -45.125 36.953125 -44.09375 C 39.660156 -43.539062 42.273438 -42.84375 44.796875 -42 C 51.515625 -40.039062 56.785156 -37.519531 60.609375 -34.4375 C 64.441406 -31.351562 66.359375 -26.875 66.359375 -21 C 66.359375 -14.09375 63.601562 -8.703125 58.09375 -4.828125 C 52.59375 -0.953125 45.222656 0.984375 35.984375 0.984375 Z M 35.984375 0.984375 "/></g></g></g><g fill="#171717" fill-opacity="1"><g transform="translate(161.183173, 578.249991)"><g><path d="M 82.453125 -98 C 84.046875 -98 84.75 -97.207031 84.5625 -95.625 L 83.015625 -83.296875 C 82.828125 -81.710938 81.941406 -80.921875 80.359375 -80.921875 L 56.984375 -80.921875 C 56.515625 -80.921875 56.1875 -80.640625 56 -80.078125 L 46.484375 -2.375 C 46.296875 -0.789062 45.40625 0 43.8125 0 L 29.40625 0 C 27.8125 0 27.109375 -0.789062 27.296875 -2.375 L 36.8125 -80.078125 C 37 -80.640625 36.769531 -80.921875 36.125 -80.921875 L 13.296875 -80.921875 C 12.554688 -80.921875 12.019531 -81.128906 11.6875 -81.546875 C 11.363281 -81.972656 11.25 -82.554688 11.34375 -83.296875 L 12.875 -95.625 C 13.0625 -97.207031 13.90625 -98 15.40625 -98 Z M 82.453125 -98 "/></g></g></g><g fill="#171717" fill-opacity="1"><g transform="translate(240.558737, 578.249991)"><g><path d="M 49.703125 -73.078125 C 56.234375 -73.078125 61.410156 -71.207031 65.234375 -67.46875 C 69.066406 -63.738281 70.984375 -58.5625 70.984375 -51.9375 C 70.984375 -51.101562 70.890625 -49.65625 70.703125 -47.59375 L 65.234375 -2.375 C 64.953125 -0.789062 64.066406 0 62.578125 0 L 48.015625 0 C 46.523438 0 45.875 -0.789062 46.0625 -2.375 L 51.09375 -43.546875 C 51.1875 -44.097656 51.234375 -44.84375 51.234375 -45.78125 C 51.234375 -48.863281 50.367188 -51.359375 48.640625 -53.265625 C 46.921875 -55.179688 44.613281 -56.140625 41.71875 -56.140625 C 38.363281 -56.140625 35.492188 -54.972656 33.109375 -52.640625 C 30.734375 -50.304688 29.3125 -47.273438 28.84375 -43.546875 L 23.796875 -2.375 C 23.609375 -0.789062 22.722656 0 21.140625 0 L 6.71875 0 C 5.132812 0 4.4375 -0.789062 4.625 -2.375 L 16.09375 -95.625 C 16.28125 -97.207031 17.125 -98 18.625 -98 L 33.1875 -98 C 34.769531 -98 35.46875 -97.207031 35.28125 -95.625 L 31.5 -65.65625 C 31.5 -64.820312 31.78125 -64.679688 32.34375 -65.234375 C 36.632812 -70.460938 42.421875 -73.078125 49.703125 -73.078125 Z M 49.703125 -73.078125 "/></g></g></g><g fill="#171717" fill-opacity="1"><g transform="translate(314.894575, 578.249991)"><g><path d="M 55.015625 -69.578125 C 55.203125 -71.160156 56.046875 -71.953125 57.546875 -71.953125 L 72.09375 -71.953125 C 73.6875 -71.953125 74.390625 -71.160156 74.203125 -69.578125 L 65.9375 -2.375 C 65.65625 -0.789062 64.769531 0 63.28125 0 L 48.71875 0 C 47.96875 0 47.429688 -0.207031 47.109375 -0.625 C 46.785156 -1.050781 46.671875 -1.632812 46.765625 -2.375 L 47.1875 -6.15625 C 47.269531 -6.53125 47.195312 -6.738281 46.96875 -6.78125 C 46.738281 -6.832031 46.53125 -6.71875 46.34375 -6.4375 C 41.957031 -1.394531 36.445312 1.125 29.8125 1.125 C 23.75 1.125 18.570312 -0.738281 14.28125 -4.46875 C 9.988281 -8.207031 7.28125 -13.203125 6.15625 -19.453125 C 5.59375 -22.160156 5.3125 -24.960938 5.3125 -27.859375 C 5.3125 -29.722656 5.5 -32.523438 5.875 -36.265625 C 6.8125 -43.265625 8.398438 -49.050781 10.640625 -53.625 C 13.441406 -59.59375 17.335938 -64.347656 22.328125 -67.890625 C 27.316406 -71.441406 32.894531 -73.21875 39.0625 -73.21875 C 45.78125 -73.21875 50.632812 -70.929688 53.625 -66.359375 C 53.8125 -66.078125 54.019531 -65.984375 54.25 -66.078125 C 54.476562 -66.171875 54.59375 -66.40625 54.59375 -66.78125 Z M 46.34375 -22.125 C 48.582031 -25.664062 50.03125 -30.285156 50.6875 -35.984375 C 50.957031 -38.128906 51.09375 -40.085938 51.09375 -41.859375 C 51.09375 -45.410156 50.628906 -48.257812 49.703125 -50.40625 C 47.835938 -54.039062 44.988281 -55.859375 41.15625 -55.859375 C 36.957031 -55.859375 33.597656 -54.085938 31.078125 -50.546875 C 28.367188 -46.804688 26.691406 -41.90625 26.046875 -35.84375 C 25.859375 -34.625 25.765625 -32.941406 25.765625 -30.796875 C 25.765625 -27.160156 26.226562 -24.269531 27.15625 -22.125 C 27.90625 -20.164062 29.070312 -18.671875 30.65625 -17.640625 C 32.25 -16.609375 34.164062 -16.09375 36.40625 -16.09375 C 40.320312 -16.09375 43.632812 -18.101562 46.34375 -22.125 Z M 46.34375 -22.125 "/></g></g></g><g fill="#171717" fill-opacity="1"><g transform="translate(390.210359, 578.249991)"><g><path d="M 51.65625 -58.515625 C 51.375 -56.929688 50.488281 -56.140625 49 -56.140625 L 36.8125 -56.140625 C 36.351562 -56.140625 36.03125 -55.859375 35.84375 -55.296875 L 32.34375 -26.3125 C 32.25 -25.757812 32.203125 -24.921875 32.203125 -23.796875 C 32.203125 -19.503906 34.441406 -17.359375 38.921875 -17.359375 L 42.703125 -17.359375 C 44.285156 -17.359375 44.984375 -16.566406 44.796875 -14.984375 L 43.265625 -2.9375 C 43.171875 -2.28125 42.890625 -1.71875 42.421875 -1.25 C 41.953125 -0.789062 41.390625 -0.515625 40.734375 -0.421875 C 37.191406 -0.234375 34.675781 -0.140625 33.1875 -0.140625 C 26.269531 -0.140625 21.109375 -1.1875 17.703125 -3.28125 C 14.296875 -5.382812 12.59375 -9.285156 12.59375 -14.984375 C 12.59375 -15.722656 12.6875 -16.9375 12.875 -18.625 L 17.359375 -55.296875 C 17.546875 -55.859375 17.3125 -56.140625 16.65625 -56.140625 L 9.796875 -56.140625 C 8.210938 -56.140625 7.515625 -56.929688 7.703125 -58.515625 L 9.09375 -69.578125 C 9.28125 -71.160156 10.125 -71.953125 11.625 -71.953125 L 18.625 -71.953125 C 19.175781 -71.953125 19.5 -72.234375 19.59375 -72.796875 L 21.421875 -88.625 C 21.703125 -90.207031 22.585938 -91 24.078125 -91 L 37.9375 -91 C 39.519531 -91 40.175781 -90.207031 39.90625 -88.625 L 37.9375 -72.796875 C 37.9375 -72.234375 38.21875 -71.953125 38.78125 -71.953125 L 50.953125 -71.953125 C 51.703125 -71.953125 52.238281 -71.742188 52.5625 -71.328125 C 52.894531 -70.910156 53.015625 -70.328125 52.921875 -69.578125 Z M 51.65625 -58.515625 "/></g></g></g><g fill="#171717" fill-opacity="1"><g transform="translate(441.858943, 578.249991)"><g><path d="M 26.59375 -31.078125 C 25.007812 -31.078125 24.21875 -31.867188 24.21875 -33.453125 L 24.21875 -37.234375 C 24.21875 -41.898438 25.40625 -45.65625 27.78125 -48.5 C 30.164062 -51.351562 33.597656 -54.367188 38.078125 -57.546875 C 41.722656 -60.054688 44.429688 -62.289062 46.203125 -64.25 C 47.972656 -66.21875 48.859375 -68.601562 48.859375 -71.40625 C 48.859375 -74.382812 47.738281 -76.785156 45.5 -78.609375 C 43.257812 -80.429688 40.320312 -81.34375 36.6875 -81.34375 C 32.757812 -81.34375 29.601562 -80.359375 27.21875 -78.390625 C 24.84375 -76.429688 23.65625 -73.914062 23.65625 -70.84375 L 23.65625 -69.296875 C 23.65625 -67.804688 22.863281 -67.0625 21.28125 -67.0625 L 6.296875 -67.625 C 5.640625 -67.625 5.078125 -67.785156 4.609375 -68.109375 C 4.148438 -68.429688 3.921875 -68.828125 3.921875 -69.296875 L 3.921875 -70.84375 C 3.921875 -76.4375 5.316406 -81.40625 8.109375 -85.75 C 10.910156 -90.09375 14.804688 -93.453125 19.796875 -95.828125 C 24.796875 -98.210938 30.5625 -99.40625 37.09375 -99.40625 C 43.445312 -99.40625 49.023438 -98.257812 53.828125 -95.96875 C 58.640625 -93.6875 62.347656 -90.488281 64.953125 -86.375 C 67.566406 -82.269531 68.875 -77.507812 68.875 -72.09375 C 68.875 -67.988281 68.148438 -64.46875 66.703125 -61.53125 C 65.265625 -58.59375 63.515625 -56.1875 61.453125 -54.3125 C 59.398438 -52.445312 56.789062 -50.394531 53.625 -48.15625 C 50.257812 -45.820312 47.78125 -43.816406 46.1875 -42.140625 C 44.601562 -40.460938 43.8125 -38.410156 43.8125 -35.984375 L 43.8125 -33.453125 C 43.8125 -31.867188 43.019531 -31.078125 41.4375 -31.078125 Z M 34.859375 0.28125 C 31.585938 0.28125 28.785156 -0.8125 26.453125 -3 C 24.117188 -5.195312 22.953125 -7.835938 22.953125 -10.921875 C 22.953125 -14.003906 24.140625 -16.640625 26.515625 -18.828125 C 28.898438 -21.023438 31.726562 -22.125 35 -22.125 C 38.175781 -22.125 40.953125 -21.023438 43.328125 -18.828125 C 45.710938 -16.640625 46.90625 -14.003906 46.90625 -10.921875 C 46.90625 -7.835938 45.710938 -5.195312 43.328125 -3 C 40.953125 -0.8125 38.128906 0.28125 34.859375 0.28125 Z M 34.859375 0.28125 "/></g></g></g><g fill="#ff814b" fill-opacity="1"><g transform="translate(143.259345, 241.906371)"><g><path d="M 43.484375 -14.59375 C 42.078125 -7.164062 39.515625 -1.46875 35.796875 2.5 C 32.085938 6.46875 27.484375 8.453125 21.984375 8.453125 C 16.796875 8.453125 12.15625 6.414062 8.0625 2.34375 C 3.96875 -1.71875 1.597656 -6.5625 0.953125 -12.1875 C 2.878906 -13.851562 5.023438 -15.179688 7.390625 -16.171875 C 9.753906 -17.160156 12.378906 -17.847656 15.265625 -18.234375 C 16.160156 -12.410156 17.039062 -8.570312 17.90625 -6.71875 C 18.769531 -4.863281 19.90625 -3.9375 21.3125 -3.9375 C 23.226562 -3.9375 24.601562 -5.296875 25.4375 -8.015625 C 26.269531 -10.734375 26.6875 -15.035156 26.6875 -20.921875 C 26.6875 -27.578125 26.429688 -35.097656 25.921875 -43.484375 C 25.410156 -51.867188 24.707031 -59.519531 23.8125 -66.4375 C 25.28125 -67.457031 27.195312 -68.253906 29.5625 -68.828125 C 31.9375 -69.410156 34.398438 -69.703125 36.953125 -69.703125 C 38.742188 -69.703125 40.375 -69.601562 41.84375 -69.40625 C 43.320312 -69.21875 44.796875 -68.929688 46.265625 -68.546875 C 46.335938 -66.554688 46.40625 -64.328125 46.46875 -61.859375 C 46.53125 -59.398438 46.5625 -56.796875 46.5625 -54.046875 C 46.5625 -45.472656 46.335938 -38.289062 45.890625 -32.5 C 45.441406 -26.707031 44.640625 -20.738281 43.484375 -14.59375 Z M 43.484375 -14.59375 "/></g></g></g><g fill="#ff814b" fill-opacity="1"><g transform="translate(194.613033, 241.906371)"><g><path d="M 49.53125 -34.375 C 49.53125 -30.332031 48.984375 -24.835938 47.890625 -17.890625 C 46.804688 -10.953125 45.40625 -3.804688 43.6875 3.546875 C 41.4375 3.546875 39.03125 3.398438 36.46875 3.109375 C 33.914062 2.828125 31.421875 2.429688 28.984375 1.921875 C 29.117188 0.828125 29.21875 -0.00390625 29.28125 -0.578125 C 29.34375 -1.148438 29.40625 -1.660156 29.46875 -2.109375 C 28.125 -1.535156 26.648438 -1.085938 25.046875 -0.765625 C 23.453125 -0.441406 21.726562 -0.28125 19.875 -0.28125 C 14.5625 -0.28125 10.300781 -1.609375 7.09375 -4.265625 C 3.894531 -6.921875 2.296875 -10.488281 2.296875 -14.96875 C 2.296875 -19.519531 4.132812 -22.929688 7.8125 -25.203125 C 11.5 -27.472656 17.054688 -28.609375 24.484375 -28.609375 C 26.910156 -28.609375 28.539062 -28.609375 29.375 -28.609375 C 30.207031 -28.609375 30.878906 -28.578125 31.390625 -28.515625 C 31.328125 -34.523438 30.941406 -38.617188 30.234375 -40.796875 C 29.535156 -42.972656 28.382812 -44.0625 26.78125 -44.0625 C 25.25 -44.0625 23.921875 -43.019531 22.796875 -40.9375 C 21.679688 -38.863281 21.09375 -36.226562 21.03125 -33.03125 C 16.925781 -33.03125 13.515625 -33.796875 10.796875 -35.328125 C 8.078125 -36.859375 6.207031 -39.066406 5.1875 -41.953125 C 6.40625 -45.273438 9.15625 -48.117188 13.4375 -50.484375 C 17.726562 -52.859375 22.6875 -54.046875 28.3125 -54.046875 C 35.289062 -54.046875 40.570312 -52.378906 44.15625 -49.046875 C 47.738281 -45.722656 49.53125 -40.832031 49.53125 -34.375 Z M 21.40625 -13.625 C 21.40625 -12.15625 21.789062 -11.019531 22.5625 -10.21875 C 23.332031 -9.425781 24.453125 -9.03125 25.921875 -9.03125 C 26.816406 -9.03125 27.613281 -9.125 28.3125 -9.3125 C 29.019531 -9.5 29.726562 -9.785156 30.4375 -10.171875 C 30.6875 -12.410156 30.859375 -14.347656 30.953125 -15.984375 C 31.054688 -17.617188 31.140625 -19.109375 31.203125 -20.453125 C 27.867188 -20.253906 25.398438 -19.609375 23.796875 -18.515625 C 22.203125 -17.429688 21.40625 -15.800781 21.40625 -13.625 Z M 21.40625 -13.625 "/></g></g></g><g fill="#ff814b" fill-opacity="1"><g transform="translate(247.694516, 241.906371)"><g><path d="M 50.96875 -49.921875 C 48.988281 -42.171875 46.238281 -34.132812 42.71875 -25.8125 C 39.195312 -17.5 35.296875 -9.757812 31.015625 -2.59375 C 29.410156 -1.945312 27.28125 -1.460938 24.625 -1.140625 C 21.96875 -0.828125 18.523438 -0.671875 14.296875 -0.671875 C 12.640625 -9.503906 10.398438 -18.207031 7.578125 -26.78125 C 4.765625 -35.351562 1.40625 -43.800781 -2.5 -52.125 C 0.382812 -53.40625 3.617188 -54.394531 7.203125 -55.09375 C 10.785156 -55.800781 14.5 -56.1875 18.34375 -56.25 C 20 -51.457031 21.515625 -45.75 22.890625 -39.125 C 24.265625 -32.5 25.367188 -25.695312 26.203125 -18.71875 C 27.867188 -23.457031 29.390625 -28.929688 30.765625 -35.140625 C 32.140625 -41.347656 33.242188 -47.519531 34.078125 -53.65625 C 36.890625 -53.46875 39.753906 -53.050781 42.671875 -52.40625 C 45.585938 -51.769531 48.351562 -50.941406 50.96875 -49.921875 Z M 50.96875 -49.921875 "/></g></g></g><g fill="#ff814b" fill-opacity="1"><g transform="translate(298.376288, 241.906371)"><g><path d="M 49.53125 -34.375 C 49.53125 -30.332031 48.984375 -24.835938 47.890625 -17.890625 C 46.804688 -10.953125 45.40625 -3.804688 43.6875 3.546875 C 41.4375 3.546875 39.03125 3.398438 36.46875 3.109375 C 33.914062 2.828125 31.421875 2.429688 28.984375 1.921875 C 29.117188 0.828125 29.21875 -0.00390625 29.28125 -0.578125 C 29.34375 -1.148438 29.40625 -1.660156 29.46875 -2.109375 C 28.125 -1.535156 26.648438 -1.085938 25.046875 -0.765625 C 23.453125 -0.441406 21.726562 -0.28125 19.875 -0.28125 C 14.5625 -0.28125 10.300781 -1.609375 7.09375 -4.265625 C 3.894531 -6.921875 2.296875 -10.488281 2.296875 -14.96875 C 2.296875 -19.519531 4.132812 -22.929688 7.8125 -25.203125 C 11.5 -27.472656 17.054688 -28.609375 24.484375 -28.609375 C 26.910156 -28.609375 28.539062 -28.609375 29.375 -28.609375 C 30.207031 -28.609375 30.878906 -28.578125 31.390625 -28.515625 C 31.328125 -34.523438 30.941406 -38.617188 30.234375 -40.796875 C 29.535156 -42.972656 28.382812 -44.0625 26.78125 -44.0625 C 25.25 -44.0625 23.921875 -43.019531 22.796875 -40.9375 C 21.679688 -38.863281 21.09375 -36.226562 21.03125 -33.03125 C 16.925781 -33.03125 13.515625 -33.796875 10.796875 -35.328125 C 8.078125 -36.859375 6.207031 -39.066406 5.1875 -41.953125 C 6.40625 -45.273438 9.15625 -48.117188 13.4375 -50.484375 C 17.726562 -52.859375 22.6875 -54.046875 28.3125 -54.046875 C 35.289062 -54.046875 40.570312 -52.378906 44.15625 -49.046875 C 47.738281 -45.722656 49.53125 -40.832031 49.53125 -34.375 Z M 21.40625 -13.625 C 21.40625 -12.15625 21.789062 -11.019531 22.5625 -10.21875 C 23.332031 -9.425781 24.453125 -9.03125 25.921875 -9.03125 C 26.816406 -9.03125 27.613281 -9.125 28.3125 -9.3125 C 29.019531 -9.5 29.726562 -9.785156 30.4375 -10.171875 C 30.6875 -12.410156 30.859375 -14.347656 30.953125 -15.984375 C 31.054688 -17.617188 31.140625 -19.109375 31.203125 -20.453125 C 27.867188 -20.253906 25.398438 -19.609375 23.796875 -18.515625 C 22.203125 -17.429688 21.40625 -15.800781 21.40625 -13.625 Z M 21.40625 -13.625 "/></g></g></g><g fill="#ff814b" fill-opacity="1"><g transform="translate(351.457759, 241.906371)"><g><path d="M 46.46875 -32.828125 C 47.9375 -30.785156 49.019531 -28.625 49.71875 -26.34375 C 50.425781 -24.070312 50.78125 -21.628906 50.78125 -19.015625 C 50.78125 -12.421875 48.410156 -6.960938 43.671875 -2.640625 C 38.941406 1.679688 33.117188 3.84375 26.203125 3.84375 C 18.585938 3.84375 12.234375 1.492188 7.140625 -3.203125 C 2.054688 -7.910156 -0.484375 -13.5 -0.484375 -19.96875 C 1.566406 -20.988281 4.046875 -21.867188 6.953125 -22.609375 C 9.867188 -23.347656 12.285156 -23.71875 14.203125 -23.71875 C 14.203125 -18.851562 15.113281 -14.929688 16.9375 -11.953125 C 18.769531 -8.972656 21.253906 -7.484375 24.390625 -7.484375 C 26.628906 -7.484375 28.351562 -8.109375 29.5625 -9.359375 C 30.78125 -10.609375 31.390625 -12.320312 31.390625 -14.5 C 31.390625 -16.351562 30.765625 -18.160156 29.515625 -19.921875 C 28.265625 -21.679688 25.5 -24.191406 21.21875 -27.453125 C 18.019531 -29.890625 15.648438 -31.84375 14.109375 -33.3125 C 12.578125 -34.78125 11.265625 -36.21875 10.171875 -37.625 C 8.640625 -39.800781 7.488281 -42.054688 6.71875 -44.390625 C 5.945312 -46.734375 5.5625 -49.25 5.5625 -51.9375 C 5.5625 -58.332031 7.847656 -63.546875 12.421875 -67.578125 C 17.003906 -71.609375 23.007812 -73.625 30.4375 -73.625 C 37.019531 -73.625 42.3125 -72.039062 46.3125 -68.875 C 50.3125 -65.707031 52.953125 -61.019531 54.234375 -54.8125 C 52.378906 -53.59375 50.269531 -52.644531 47.90625 -51.96875 C 45.539062 -51.300781 42.4375 -50.84375 38.59375 -50.59375 C 38.019531 -54.5625 37.0625 -57.410156 35.71875 -59.140625 C 34.375 -60.867188 32.515625 -61.734375 30.140625 -61.734375 C 28.671875 -61.734375 27.503906 -61.265625 26.640625 -60.328125 C 25.773438 -59.398438 25.34375 -58.171875 25.34375 -56.640625 C 25.34375 -54.523438 25.984375 -52.507812 27.265625 -50.59375 C 28.546875 -48.675781 31.363281 -46.082031 35.71875 -42.8125 C 38.914062 -40.445312 41.25 -38.5625 42.71875 -37.15625 C 44.1875 -35.75 45.4375 -34.304688 46.46875 -32.828125 Z M 46.46875 -32.828125 "/></g></g></g><g fill="#ff814b" fill-opacity="1"><g transform="translate(405.211159, 241.906371)"><g><path d="M 49.0625 -35.71875 C 47.007812 -34.75 44.65625 -34.023438 42 -33.546875 C 39.34375 -33.066406 36.160156 -32.828125 32.453125 -32.828125 C 32.453125 -36.222656 32.144531 -38.734375 31.53125 -40.359375 C 30.925781 -41.992188 29.984375 -42.8125 28.703125 -42.8125 C 26.847656 -42.8125 25.21875 -40.488281 23.8125 -35.84375 C 22.40625 -31.207031 21.703125 -25.976562 21.703125 -20.15625 C 21.703125 -16.445312 22.179688 -13.535156 23.140625 -11.421875 C 24.097656 -9.304688 25.441406 -8.25 27.171875 -8.25 C 28.703125 -8.25 30.265625 -8.875 31.859375 -10.125 C 33.460938 -11.375 35.546875 -13.851562 38.109375 -17.5625 C 39.960938 -17.25 41.785156 -16.484375 43.578125 -15.265625 C 45.367188 -14.046875 46.84375 -12.601562 48 -10.9375 C 47.488281 -9.28125 46.300781 -7.488281 44.4375 -5.5625 C 42.582031 -3.644531 40.378906 -2.046875 37.828125 -0.765625 C 35.773438 0.253906 33.546875 1.035156 31.140625 1.578125 C 28.742188 2.128906 26.234375 2.40625 23.609375 2.40625 C 16.953125 2.40625 11.753906 0.421875 8.015625 -3.546875 C 4.273438 -7.515625 2.40625 -12.828125 2.40625 -19.484375 C 2.40625 -23.390625 3.039062 -27.296875 4.3125 -31.203125 C 5.59375 -35.109375 7.421875 -38.5625 9.796875 -41.5625 C 12.347656 -45.019531 15.351562 -47.644531 18.8125 -49.4375 C 22.269531 -51.226562 26.015625 -52.125 30.046875 -52.125 C 36.066406 -52.125 40.738281 -50.664062 44.0625 -47.75 C 47.394531 -44.84375 49.0625 -40.832031 49.0625 -35.71875 Z M 49.0625 -35.71875 "/></g></g></g><g fill="#ff814b" fill-opacity="1"><g transform="translate(455.221014, 241.906371)"><g><path d="M 24.390625 -19.484375 C 24.515625 -16.347656 24.753906 -13.128906 25.109375 -9.828125 C 25.460938 -6.535156 25.894531 -3.226562 26.40625 0.09375 C 24.800781 0.664062 23.003906 1.046875 21.015625 1.234375 C 19.035156 1.429688 16.863281 1.4375 14.5 1.25 C 13.15625 1.125 12.066406 0.960938 11.234375 0.765625 C 10.398438 0.578125 9.601562 0.351562 8.84375 0.09375 C 7.113281 -7.394531 5.863281 -15.953125 5.09375 -25.578125 C 4.320312 -35.210938 4.222656 -43.675781 4.796875 -50.96875 C 6.210938 -51.414062 7.75 -51.75 9.40625 -51.96875 C 11.070312 -52.195312 12.832031 -52.3125 14.6875 -52.3125 C 16.863281 -52.3125 18.894531 -52.148438 20.78125 -51.828125 C 22.675781 -51.515625 24.359375 -51.070312 25.828125 -50.5 C 25.566406 -49.539062 25.34375 -48.40625 25.15625 -47.09375 C 24.96875 -45.78125 24.804688 -44.320312 24.671875 -42.71875 C 26.273438 -46.363281 28.226562 -49.226562 30.53125 -51.3125 C 32.832031 -53.394531 35.203125 -54.4375 37.640625 -54.4375 C 41.222656 -54.4375 44.066406 -52.945312 46.171875 -49.96875 C 48.285156 -46.988281 49.34375 -42.875 49.34375 -37.625 C 49.34375 -36.726562 49.34375 -36.039062 49.34375 -35.5625 C 49.34375 -35.082031 49.3125 -34.648438 49.25 -34.265625 C 47.269531 -33.566406 44.789062 -33.085938 41.8125 -32.828125 C 38.832031 -32.578125 35.617188 -32.546875 32.171875 -32.734375 C 32.234375 -33.691406 32.28125 -34.347656 32.3125 -34.703125 C 32.34375 -35.054688 32.359375 -35.394531 32.359375 -35.71875 C 32.359375 -37.3125 32.164062 -38.539062 31.78125 -39.40625 C 31.394531 -40.269531 30.816406 -40.703125 30.046875 -40.703125 C 28.835938 -40.703125 27.71875 -38.84375 26.6875 -35.125 C 25.664062 -31.414062 24.898438 -26.203125 24.390625 -19.484375 Z M 24.390625 -19.484375 "/></g></g></g><g fill="#ff814b" fill-opacity="1"><g transform="translate(504.84692, 241.906371)"><g><path d="M 19.484375 -72.578125 C 21.398438 -72.578125 23.191406 -72.414062 24.859375 -72.09375 C 26.523438 -71.769531 27.929688 -71.320312 29.078125 -70.75 C 28.503906 -69.40625 27.863281 -67.4375 27.15625 -64.84375 C 26.457031 -62.25 25.945312 -59.960938 25.625 -57.984375 C 23.445312 -57.597656 21.015625 -57.320312 18.328125 -57.15625 C 15.640625 -57 12.601562 -56.957031 9.21875 -57.03125 C 8.769531 -58.4375 8.429688 -59.84375 8.203125 -61.25 C 7.984375 -62.65625 7.875 -64.03125 7.875 -65.375 C 7.875 -66.394531 7.921875 -67.289062 8.015625 -68.0625 C 8.109375 -68.832031 8.25 -69.535156 8.4375 -70.171875 C 9.914062 -71.003906 11.566406 -71.613281 13.390625 -72 C 15.210938 -72.382812 17.242188 -72.578125 19.484375 -72.578125 Z M 6.140625 -48.390625 C 7.867188 -49.410156 9.882812 -50.175781 12.1875 -50.6875 C 14.488281 -51.195312 16.984375 -51.453125 19.671875 -51.453125 C 20.953125 -51.453125 22.21875 -51.390625 23.46875 -51.265625 C 24.71875 -51.140625 25.914062 -50.976562 27.0625 -50.78125 C 25.65625 -46.625 24.421875 -40 23.359375 -30.90625 C 22.304688 -21.820312 21.59375 -11.875 21.21875 -1.0625 C 19.875 -0.351562 18.160156 0.207031 16.078125 0.625 C 13.992188 1.039062 11.832031 1.25 9.59375 1.25 C 8.632812 1.25 7.800781 1.21875 7.09375 1.15625 C 6.394531 1.09375 5.789062 0.992188 5.28125 0.859375 C 4.3125 -8.285156 3.890625 -17.066406 4.015625 -25.484375 C 4.148438 -33.898438 4.859375 -41.535156 6.140625 -48.390625 Z M 6.140625 -48.390625 "/></g></g></g><g fill="#ff814b" fill-opacity="1"><g transform="translate(534.027361, 241.906371)"><g><path d="M 23.140625 -12.09375 C 23.648438 -11.84375 24.144531 -11.648438 24.625 -11.515625 C 25.101562 -11.390625 25.597656 -11.328125 26.109375 -11.328125 C 28.222656 -11.328125 30 -13.503906 31.4375 -17.859375 C 32.875 -22.210938 33.59375 -27.71875 33.59375 -34.375 C 33.59375 -36.800781 33.289062 -38.570312 32.6875 -39.6875 C 32.082031 -40.8125 31.171875 -41.375 29.953125 -41.375 C 28.671875 -41.375 27.515625 -40.78125 26.484375 -39.59375 C 25.460938 -38.414062 24.601562 -36.675781 23.90625 -34.375 C 23.707031 -31.363281 23.546875 -28.050781 23.421875 -24.4375 C 23.296875 -20.820312 23.203125 -16.707031 23.140625 -12.09375 Z M 23.328125 -1.0625 C 23.453125 2.070312 23.640625 5.351562 23.890625 8.78125 C 24.148438 12.207031 24.503906 16.097656 24.953125 20.453125 C 23.160156 20.960938 20.726562 21.410156 17.65625 21.796875 C 14.59375 22.179688 11.75 22.375 9.125 22.375 C 8.09375 15.070312 7.238281 6.125 6.5625 -4.46875 C 5.894531 -15.0625 5.5625 -24.867188 5.5625 -33.890625 C 5.5625 -37.660156 5.625 -41.050781 5.75 -44.0625 C 5.882812 -47.070312 6.113281 -50.046875 6.4375 -52.984375 C 7.90625 -53.753906 9.914062 -54.363281 12.46875 -54.8125 C 15.03125 -55.257812 17.691406 -55.484375 20.453125 -55.484375 C 21.535156 -55.484375 22.523438 -55.4375 23.421875 -55.34375 C 24.316406 -55.25 25.375 -55.039062 26.59375 -54.71875 C 26.332031 -53.945312 26.101562 -53.035156 25.90625 -51.984375 C 25.71875 -50.929688 25.5 -49.507812 25.25 -47.71875 C 27.101562 -50.144531 29.132812 -51.96875 31.34375 -53.1875 C 33.550781 -54.40625 35.9375 -55.015625 38.5 -55.015625 C 42.914062 -55.015625 46.382812 -53.363281 48.90625 -50.0625 C 51.4375 -46.769531 52.703125 -42.210938 52.703125 -36.390625 C 52.703125 -25.890625 50.222656 -17.359375 45.265625 -10.796875 C 40.304688 -4.234375 33.984375 -0.953125 26.296875 -0.953125 C 25.472656 -0.953125 24.851562 -0.953125 24.4375 -0.953125 C 24.019531 -0.953125 23.648438 -0.988281 23.328125 -1.0625 Z M 23.328125 -1.0625 "/></g></g></g><g fill="#ff814b" fill-opacity="1"><g transform="translate(588.644652, 241.906371)"><g><path d="M 29.65625 -22.265625 C 31.832031 -22.015625 34.054688 -21.441406 36.328125 -20.546875 C 38.609375 -19.648438 40.644531 -18.5 42.4375 -17.09375 C 42.4375 -12.476562 40.992188 -8.570312 38.109375 -5.375 C 35.234375 -2.175781 31.234375 -0.578125 26.109375 -0.578125 C 19.648438 -0.578125 14.644531 -2.863281 11.09375 -7.4375 C 7.539062 -12.007812 5.765625 -18.648438 5.765625 -27.359375 C 5.765625 -29.410156 5.796875 -31.539062 5.859375 -33.75 C 5.921875 -35.957031 6.046875 -38.273438 6.234375 -40.703125 C 4.953125 -40.890625 3.734375 -41.113281 2.578125 -41.375 C 1.429688 -41.632812 0.410156 -41.890625 -0.484375 -42.140625 C -0.484375 -44.191406 -0.289062 -46.144531 0.09375 -48 C 0.476562 -49.851562 1.023438 -51.289062 1.734375 -52.3125 C 2.367188 -52.125 3.148438 -51.914062 4.078125 -51.6875 C 5.003906 -51.46875 6.140625 -51.265625 7.484375 -51.078125 C 7.867188 -53.703125 8.269531 -55.988281 8.6875 -57.9375 C 9.101562 -59.882812 9.535156 -61.628906 9.984375 -63.171875 C 13.828125 -63.171875 17.554688 -62.929688 21.171875 -62.453125 C 24.785156 -61.972656 27.710938 -61.347656 29.953125 -60.578125 C 29.566406 -59.035156 29.148438 -57.320312 28.703125 -55.4375 C 28.253906 -53.550781 27.867188 -51.613281 27.546875 -49.625 C 30.234375 -49.5625 32.804688 -49.578125 35.265625 -49.671875 C 37.734375 -49.773438 39.898438 -49.953125 41.765625 -50.203125 C 41.765625 -48.734375 41.601562 -47.070312 41.28125 -45.21875 C 40.957031 -43.363281 40.507812 -41.664062 39.9375 -40.125 C 38.332031 -39.800781 36.28125 -39.5625 33.78125 -39.40625 C 31.289062 -39.25 28.671875 -39.203125 25.921875 -39.265625 C 25.597656 -36.828125 25.335938 -34.390625 25.140625 -31.953125 C 24.953125 -29.523438 24.859375 -27.226562 24.859375 -25.0625 C 24.859375 -19.675781 25.050781 -16.039062 25.4375 -14.15625 C 25.820312 -12.269531 26.460938 -11.328125 27.359375 -11.328125 C 27.929688 -11.328125 28.441406 -12.300781 28.890625 -14.25 C 29.335938 -16.207031 29.59375 -18.878906 29.65625 -22.265625 Z M 29.65625 -22.265625 "/></g></g></g></svg>