<svg xmlns="http://www.w3.org/2000/svg" xmlns:xlink="http://www.w3.org/1999/xlink" width="1920" zoomAndPan="magnify" viewBox="0 0 1440 809.999993" height="1080" preserveAspectRatio="xMidYMid meet" version="1.0"><defs><g/><clipPath id="4e763233d9"><path d="M 448 174 L 1007.113281 174 L 1007.113281 625 L 448 625 Z M 448 174 " clip-rule="nonzero"/></clipPath><clipPath id="95078f4c40"><path d="M 1077.421875 484.425781 L 1107.421875 484.425781 L 1107.421875 535.425781 L 1077.421875 535.425781 Z M 1077.421875 484.425781 " clip-rule="nonzero"/></clipPath><clipPath id="ab88454fd5"><path d="M 303 419 L 356 419 L 356 471 L 303 471 Z M 303 419 " clip-rule="nonzero"/></clipPath><clipPath id="c0e2ef4337"><path d="M 327.023438 407.308594 L 367.296875 443.277344 L 331.824219 482.992188 L 291.550781 447.023438 Z M 327.023438 407.308594 " clip-rule="nonzero"/></clipPath><clipPath id="9958d73a4e"><path d="M 327.023438 407.308594 L 367.296875 443.277344 L 331.824219 482.992188 L 291.550781 447.023438 Z M 327.023438 407.308594 " clip-rule="nonzero"/></clipPath><clipPath id="d53c59964c"><path d="M 302 418 L 357 418 L 357 472 L 302 472 Z M 302 418 " clip-rule="nonzero"/></clipPath><clipPath id="1d15d9da9a"><path d="M 327.023438 407.308594 L 367.296875 443.277344 L 331.824219 482.992188 L 291.550781 447.023438 Z M 327.023438 407.308594 " clip-rule="nonzero"/></clipPath><clipPath id="658312cbf6"><path d="M 327.023438 407.308594 L 367.296875 443.277344 L 331.824219 482.992188 L 291.550781 447.023438 Z M 327.023438 407.308594 " clip-rule="nonzero"/></clipPath><clipPath id="aebbaa6124"><path d="M 815.816406 221.953125 L 869.066406 221.953125 L 869.066406 275.203125 L 815.816406 275.203125 Z M 815.816406 221.953125 " clip-rule="nonzero"/></clipPath></defs><rect x="-144" width="1728" fill="#ffffff" y="-80.999999" height="971.999992" fill-opacity="1"/><rect x="-144" width="1728" fill="#ffffff" y="-80.999999" height="971.999992" fill-opacity="1"/><rect x="-144" width="1728" fill="#e4c8bf" y="-80.999999" height="971.999992" fill-opacity="1"/><g clip-path="url(#4e763233d9)"><path fill="#dbdad8" d="M 913.339844 491.03125 C 884.871094 489.0625 857.734375 503.910156 836.007812 522.429688 C 814.28125 540.945312 796.144531 563.433594 773.984375 581.421875 C 710.886719 632.628906 614.519531 639.746094 546.507812 595.292969 C 509 570.78125 481.230469 532.863281 465.039062 491.066406 C 434.097656 411.183594 446.609375 315.195312 499.46875 247.804688 C 529.953125 208.921875 574.550781 179.3125 623.738281 174.847656 C 672.921875 170.382812 725.640625 194.65625 747.527344 238.960938 C 750.933594 245.851562 754.371094 253.871094 761.632812 256.378906 C 768.347656 258.699219 775.519531 255.28125 782.03125 252.441406 C 853.863281 221.148438 935.136719 263.9375 961.484375 335.070312 C 969.082031 355.574219 970.089844 378.429688 980.375 397.71875 C 984.492188 405.433594 989.972656 412.332031 994.390625 419.871094 C 998.460938 426.835938 1001.566406 434.203125 1003.710938 441.976562 C 1005.859375 449.75 1006.972656 457.667969 1007.054688 465.734375 C 1007.140625 475.414062 1005.335938 485.839844 998.457031 492.644531 C 992.453125 498.582031 983.636719 500.683594 975.210938 501.160156 C 954.007812 502.359375 934.410156 492.488281 913.339844 491.03125 Z M 913.339844 491.03125 " fill-opacity="1" fill-rule="nonzero"/></g><g fill="#231f20" fill-opacity="1"><g transform="translate(313.962332, 387.83629)"><g><path d="M 56.75 -30.515625 C 60.300781 -30.867188 64.046875 -30.675781 67.984375 -29.9375 C 71.929688 -29.195312 74.769531 -28.179688 76.5 -26.890625 C 75.800781 -16.929688 72.179688 -9.203125 65.640625 -3.703125 C 59.109375 1.796875 50.171875 4.546875 38.828125 4.546875 C 28.097656 4.546875 19.703125 1.210938 13.640625 -5.453125 C 7.578125 -12.117188 4.546875 -21.597656 4.546875 -33.890625 C 4.546875 -49.648438 8.875 -62.941406 17.53125 -73.765625 C 26.1875 -84.585938 37.097656 -90 50.265625 -90 C 58.316406 -90 64.804688 -87.507812 69.734375 -82.53125 C 74.671875 -77.550781 77.53125 -70.601562 78.3125 -61.6875 C 73.726562 -59.695312 69.789062 -58.398438 66.5 -57.796875 C 63.207031 -57.191406 59.050781 -56.890625 54.03125 -56.890625 C 54.03125 -62.515625 53.3125 -66.84375 51.875 -69.875 C 50.445312 -72.90625 48.4375 -74.421875 45.84375 -74.421875 C 42.207031 -74.421875 39.175781 -71.085938 36.75 -64.421875 C 34.332031 -57.753906 33.125 -49.703125 33.125 -40.265625 C 33.125 -31.085938 34.222656 -24.050781 36.421875 -19.15625 C 38.628906 -14.257812 41.769531 -11.8125 45.84375 -11.8125 C 50 -11.8125 53.03125 -13.457031 54.9375 -16.75 C 56.84375 -20.039062 57.445312 -24.628906 56.75 -30.515625 Z M 56.75 -30.515625 "/></g></g></g><g fill="#231f20" fill-opacity="1"><g transform="translate(394.220776, 387.83629)"><g><path d="M 62.859375 -44.421875 C 64.847656 -41.648438 66.316406 -38.726562 67.265625 -35.65625 C 68.222656 -32.582031 68.703125 -29.269531 68.703125 -25.71875 C 68.703125 -16.800781 65.5 -9.421875 59.09375 -3.578125 C 52.6875 2.265625 44.804688 5.1875 35.453125 5.1875 C 25.148438 5.1875 16.554688 2.007812 9.671875 -4.34375 C 2.785156 -10.707031 -0.65625 -18.265625 -0.65625 -27.015625 C 2.113281 -28.398438 5.46875 -29.585938 9.40625 -30.578125 C 13.351562 -31.578125 16.625 -32.078125 19.21875 -32.078125 C 19.21875 -25.492188 20.453125 -20.1875 22.921875 -16.15625 C 25.390625 -12.132812 28.742188 -10.125 32.984375 -10.125 C 36.015625 -10.125 38.351562 -10.96875 40 -12.65625 C 41.644531 -14.351562 42.46875 -16.671875 42.46875 -19.609375 C 42.46875 -22.117188 41.625 -24.5625 39.9375 -26.9375 C 38.25 -29.320312 34.503906 -32.722656 28.703125 -37.140625 C 24.367188 -40.429688 21.160156 -43.070312 19.078125 -45.0625 C 17.003906 -47.050781 15.234375 -49 13.765625 -50.90625 C 11.691406 -53.851562 10.132812 -56.90625 9.09375 -60.0625 C 8.050781 -63.226562 7.53125 -66.628906 7.53125 -70.265625 C 7.53125 -78.921875 10.625 -85.972656 16.8125 -91.421875 C 23.007812 -96.878906 31.128906 -99.609375 41.171875 -99.609375 C 50.085938 -99.609375 57.25 -97.460938 62.65625 -93.171875 C 68.070312 -88.890625 71.644531 -82.550781 73.375 -74.15625 C 70.863281 -72.507812 68.003906 -71.234375 64.796875 -70.328125 C 61.597656 -69.421875 57.398438 -68.789062 52.203125 -68.4375 C 51.429688 -73.8125 50.132812 -77.664062 48.3125 -80 C 46.5 -82.34375 43.988281 -83.515625 40.78125 -83.515625 C 38.789062 -83.515625 37.207031 -82.882812 36.03125 -81.625 C 34.863281 -80.375 34.28125 -78.707031 34.28125 -76.625 C 34.28125 -73.769531 35.144531 -71.039062 36.875 -68.4375 C 38.613281 -65.84375 42.425781 -62.335938 48.3125 -57.921875 C 52.644531 -54.722656 55.804688 -52.171875 57.796875 -50.265625 C 59.785156 -48.359375 61.472656 -46.410156 62.859375 -44.421875 Z M 62.859375 -44.421875 "/></g></g></g><g fill="#231f20" fill-opacity="1"><g transform="translate(466.94687, 387.83629)"><g><path d="M 62.859375 -44.421875 C 64.847656 -41.648438 66.316406 -38.726562 67.265625 -35.65625 C 68.222656 -32.582031 68.703125 -29.269531 68.703125 -25.71875 C 68.703125 -16.800781 65.5 -9.421875 59.09375 -3.578125 C 52.6875 2.265625 44.804688 5.1875 35.453125 5.1875 C 25.148438 5.1875 16.554688 2.007812 9.671875 -4.34375 C 2.785156 -10.707031 -0.65625 -18.265625 -0.65625 -27.015625 C 2.113281 -28.398438 5.46875 -29.585938 9.40625 -30.578125 C 13.351562 -31.578125 16.625 -32.078125 19.21875 -32.078125 C 19.21875 -25.492188 20.453125 -20.1875 22.921875 -16.15625 C 25.390625 -12.132812 28.742188 -10.125 32.984375 -10.125 C 36.015625 -10.125 38.351562 -10.96875 40 -12.65625 C 41.644531 -14.351562 42.46875 -16.671875 42.46875 -19.609375 C 42.46875 -22.117188 41.625 -24.5625 39.9375 -26.9375 C 38.25 -29.320312 34.503906 -32.722656 28.703125 -37.140625 C 24.367188 -40.429688 21.160156 -43.070312 19.078125 -45.0625 C 17.003906 -47.050781 15.234375 -49 13.765625 -50.90625 C 11.691406 -53.851562 10.132812 -56.90625 9.09375 -60.0625 C 8.050781 -63.226562 7.53125 -66.628906 7.53125 -70.265625 C 7.53125 -78.921875 10.625 -85.972656 16.8125 -91.421875 C 23.007812 -96.878906 31.128906 -99.609375 41.171875 -99.609375 C 50.085938 -99.609375 57.25 -97.460938 62.65625 -93.171875 C 68.070312 -88.890625 71.644531 -82.550781 73.375 -74.15625 C 70.863281 -72.507812 68.003906 -71.234375 64.796875 -70.328125 C 61.597656 -69.421875 57.398438 -68.789062 52.203125 -68.4375 C 51.429688 -73.8125 50.132812 -77.664062 48.3125 -80 C 46.5 -82.34375 43.988281 -83.515625 40.78125 -83.515625 C 38.789062 -83.515625 37.207031 -82.882812 36.03125 -81.625 C 34.863281 -80.375 34.28125 -78.707031 34.28125 -76.625 C 34.28125 -73.769531 35.144531 -71.039062 36.875 -68.4375 C 38.613281 -65.84375 42.425781 -62.335938 48.3125 -57.921875 C 52.644531 -54.722656 55.804688 -52.171875 57.796875 -50.265625 C 59.785156 -48.359375 61.472656 -46.410156 62.859375 -44.421875 Z M 62.859375 -44.421875 "/></g></g></g><g fill="#231f20" fill-opacity="1"><g transform="translate(539.672964, 387.83629)"><g/></g></g><g fill="#231f20" fill-opacity="1"><g transform="translate(568.243932, 387.83629)"><g><path d="M 38.703125 8.4375 C 34.804688 9.394531 30.992188 10.085938 27.265625 10.515625 C 23.546875 10.953125 19.347656 11.171875 14.671875 11.171875 C 14.671875 -4.671875 13.957031 -22.875 12.53125 -43.4375 C 11.101562 -64 9.304688 -80.472656 7.140625 -92.859375 C 12.160156 -93.117188 17.179688 -93.507812 22.203125 -94.03125 C 27.222656 -94.550781 32.632812 -95.203125 38.4375 -95.984375 C 42.425781 -96.492188 47.96875 -97.269531 55.0625 -98.3125 C 62.164062 -99.351562 67.0625 -100.085938 69.75 -100.515625 C 70.175781 -99.046875 70.5 -97.378906 70.71875 -95.515625 C 70.9375 -93.660156 71.046875 -91.609375 71.046875 -89.359375 C 71.046875 -87.796875 70.9375 -86.101562 70.71875 -84.28125 C 70.5 -82.46875 70.128906 -80.476562 69.609375 -78.3125 C 61.992188 -77.53125 55.675781 -76.878906 50.65625 -76.359375 C 45.632812 -75.847656 41.953125 -75.503906 39.609375 -75.328125 C 39.785156 -71.691406 39.9375 -68.03125 40.0625 -64.34375 C 40.195312 -60.664062 40.265625 -57.007812 40.265625 -53.375 C 43.984375 -54.238281 47.640625 -54.863281 51.234375 -55.25 C 54.828125 -55.644531 58.441406 -55.84375 62.078125 -55.84375 C 62.859375 -52.988281 63.398438 -49.976562 63.703125 -46.8125 C 64.003906 -43.65625 64.15625 -39.695312 64.15625 -34.9375 C 59.476562 -34.9375 55.210938 -34.847656 51.359375 -34.671875 C 47.515625 -34.503906 43.859375 -34.203125 40.390625 -33.765625 C 40.210938 -25.710938 39.992188 -18.15625 39.734375 -11.09375 C 39.484375 -4.039062 39.140625 2.46875 38.703125 8.4375 Z M 38.703125 8.4375 "/></g></g></g><g fill="#231f20" fill-opacity="1"><g transform="translate(641.359623, 387.83629)"><g><path d="M 66.890625 -10.515625 C 67.578125 -8.265625 68.242188 -5.082031 68.890625 -0.96875 C 69.546875 3.132812 69.875 6.617188 69.875 9.484375 C 61.300781 9.484375 53.09375 9.785156 45.25 10.390625 C 37.414062 10.992188 27.65625 12.117188 15.96875 13.765625 C 13.894531 0.867188 12.054688 -15.46875 10.453125 -35.25 C 8.847656 -55.039062 8.046875 -71.515625 8.046875 -84.671875 C 12.035156 -85.710938 15.953125 -86.492188 19.796875 -87.015625 C 23.648438 -87.535156 27.484375 -87.796875 31.296875 -87.796875 C 32.421875 -87.796875 33.523438 -87.773438 34.609375 -87.734375 C 35.691406 -87.691406 36.835938 -87.582031 38.046875 -87.40625 C 37.359375 -83.070312 36.796875 -77.289062 36.359375 -70.0625 C 35.929688 -62.832031 35.71875 -55.148438 35.71875 -47.015625 C 35.71875 -35.242188 35.867188 -26.5 36.171875 -20.78125 C 36.472656 -15.0625 36.96875 -10.171875 37.65625 -6.109375 C 42.507812 -7.492188 47.507812 -8.570312 52.65625 -9.34375 C 57.8125 -10.125 62.554688 -10.515625 66.890625 -10.515625 Z M 66.890625 -10.515625 "/></g></g></g><g fill="#231f20" fill-opacity="1"><g transform="translate(710.579261, 387.83629)"><g><path d="M 75.203125 1.296875 C 72.691406 2.078125 64.660156 2.984375 51.109375 4.015625 C 37.554688 5.054688 26.234375 5.578125 17.140625 5.578125 C 14.972656 -8.179688 13.003906 -24.238281 11.234375 -42.59375 C 9.460938 -60.945312 8.488281 -76.226562 8.3125 -88.4375 C 21.644531 -90.957031 33.222656 -92.753906 43.046875 -93.828125 C 52.878906 -94.910156 62.515625 -95.453125 71.953125 -95.453125 C 71.953125 -92.253906 71.753906 -88.859375 71.359375 -85.265625 C 70.972656 -81.671875 70.347656 -77.925781 69.484375 -74.03125 C 64.628906 -74.03125 59.601562 -73.941406 54.40625 -73.765625 C 49.21875 -73.597656 43.8125 -73.335938 38.1875 -72.984375 C 38.007812 -71.078125 37.875 -68.890625 37.78125 -66.421875 C 37.695312 -63.960938 37.613281 -60.265625 37.53125 -55.328125 C 41.945312 -56.628906 46.363281 -57.582031 50.78125 -58.1875 C 55.195312 -58.789062 59.695312 -59.09375 64.28125 -59.09375 C 64.976562 -56.0625 65.5 -52.941406 65.84375 -49.734375 C 66.1875 -46.535156 66.359375 -42.769531 66.359375 -38.4375 C 61.429688 -38.4375 56.539062 -38.285156 51.6875 -37.984375 C 46.84375 -37.679688 42.125 -37.269531 37.53125 -36.75 C 37.613281 -32.851562 37.742188 -29.039062 37.921875 -25.3125 C 38.097656 -21.59375 38.359375 -18.046875 38.703125 -14.671875 C 41.210938 -14.671875 46.492188 -15.164062 54.546875 -16.15625 C 62.597656 -17.15625 68.660156 -18.046875 72.734375 -18.828125 C 73.421875 -17.015625 74.003906 -14.050781 74.484375 -9.9375 C 74.960938 -5.820312 75.203125 -2.078125 75.203125 1.296875 Z M 75.203125 1.296875 "/></g></g></g><g fill="#231f20" fill-opacity="1"><g transform="translate(789.668882, 387.83629)"><g><path d="M 80.65625 -5.1875 C 78.925781 -3.289062 76.4375 -1.257812 73.1875 0.90625 C 69.9375 3.070312 66.273438 5.191406 62.203125 7.265625 C 57.179688 -2.941406 53.195312 -10.878906 50.25 -16.546875 C 47.3125 -22.222656 44.546875 -27.398438 41.953125 -32.078125 C 37.097656 -26.109375 32.398438 -20.585938 27.859375 -15.515625 C 23.316406 -10.453125 18.359375 -5.191406 12.984375 0.265625 C 10.816406 -1.117188 8.390625 -3.085938 5.703125 -5.640625 C 3.023438 -8.203125 0.953125 -10.519531 -0.515625 -12.59375 C 11.597656 -27.226562 19.128906 -36.40625 22.078125 -40.125 C 25.023438 -43.851562 27.835938 -47.535156 30.515625 -51.171875 C 26.015625 -58.179688 21.46875 -64.738281 16.875 -70.84375 C 12.289062 -76.945312 7.53125 -82.726562 2.59375 -88.1875 C 6.144531 -91.300781 10.109375 -94.195312 14.484375 -96.875 C 18.859375 -99.5625 23.035156 -101.644531 27.015625 -103.125 C 30.734375 -98.007812 34.320312 -92.851562 37.78125 -87.65625 C 41.25 -82.46875 44.628906 -77.234375 47.921875 -71.953125 C 51.390625 -77.054688 54.507812 -81.898438 57.28125 -86.484375 C 60.050781 -91.078125 62.644531 -95.628906 65.0625 -100.140625 C 68.351562 -98.578125 71.644531 -96.410156 74.9375 -93.640625 C 78.226562 -90.867188 80.910156 -87.96875 82.984375 -84.9375 C 79.953125 -80.257812 76.53125 -75.363281 72.71875 -70.25 C 68.914062 -65.144531 64.375 -59.257812 59.09375 -52.59375 C 63.164062 -45.0625 66.972656 -37.378906 70.515625 -29.546875 C 74.066406 -21.710938 77.445312 -13.59375 80.65625 -5.1875 Z M 80.65625 -5.1875 "/></g></g></g><g fill="#231f20" fill-opacity="1"><g transform="translate(873.95324, 387.83629)"><g><path d="M 80.90625 -34.671875 C 80.90625 -24.203125 76.898438 -15.375 68.890625 -8.1875 C 60.890625 -1 51.085938 2.59375 39.484375 2.59375 C 35.242188 2.59375 30.9375 1.941406 26.5625 0.640625 C 22.1875 -0.648438 17.878906 -2.59375 13.640625 -5.1875 C 12.515625 -15.144531 11.671875 -25.445312 11.109375 -36.09375 C 10.546875 -46.75 10.265625 -58.007812 10.265625 -69.875 C 10.265625 -75.070312 10.285156 -78.96875 10.328125 -81.5625 C 10.367188 -84.15625 10.429688 -86.578125 10.515625 -88.828125 C 15.453125 -91.253906 20.601562 -93.117188 25.96875 -94.421875 C 31.34375 -95.722656 36.671875 -96.375 41.953125 -96.375 C 52.515625 -96.375 60.566406 -94.53125 66.109375 -90.84375 C 71.648438 -87.164062 74.421875 -81.863281 74.421875 -74.9375 C 74.421875 -70.695312 73.488281 -66.863281 71.625 -63.4375 C 69.757812 -60.019531 67.007812 -57.054688 63.375 -54.546875 C 68.914062 -52.898438 73.222656 -50.320312 76.296875 -46.8125 C 79.367188 -43.3125 80.90625 -39.265625 80.90625 -34.671875 Z M 49.09375 -71.296875 C 49.09375 -74.765625 48.140625 -77.363281 46.234375 -79.09375 C 44.328125 -80.820312 41.515625 -81.6875 37.796875 -81.6875 L 37.40625 -81.6875 C 36.96875 -76.84375 36.597656 -72.234375 36.296875 -67.859375 C 35.992188 -63.484375 35.753906 -59.304688 35.578125 -55.328125 C 39.992188 -56.273438 43.347656 -58.132812 45.640625 -60.90625 C 47.941406 -63.675781 49.09375 -67.140625 49.09375 -71.296875 Z M 35.203125 -14.8125 C 36.410156 -14.195312 37.53125 -13.738281 38.5625 -13.4375 C 39.601562 -13.132812 40.644531 -12.984375 41.6875 -12.984375 C 45.15625 -12.984375 48.1875 -14.671875 50.78125 -18.046875 C 53.375 -21.429688 54.671875 -25.242188 54.671875 -29.484375 C 54.671875 -33.035156 53.65625 -35.738281 51.625 -37.59375 C 49.59375 -39.457031 46.628906 -40.390625 42.734375 -40.390625 C 41.609375 -40.390625 40.4375 -40.257812 39.21875 -40 C 38.007812 -39.738281 36.671875 -39.304688 35.203125 -38.703125 C 35.109375 -37.492188 35.0625 -36.21875 35.0625 -34.875 C 35.0625 -33.53125 35.0625 -31.472656 35.0625 -28.703125 C 35.0625 -24.804688 35.0625 -21.90625 35.0625 -20 C 35.0625 -18.09375 35.109375 -16.363281 35.203125 -14.8125 Z M 35.203125 -14.8125 "/></g></g></g><g fill="#231f20" fill-opacity="1"><g transform="translate(957.458384, 387.83629)"><g><path d="M 47.796875 -95.203125 C 58.179688 -95.203125 66.207031 -91.800781 71.875 -85 C 77.550781 -78.207031 80.390625 -68.578125 80.390625 -56.109375 C 80.390625 -49.347656 79.476562 -42.484375 77.65625 -35.515625 C 75.84375 -28.546875 73.332031 -22.378906 70.125 -17.015625 C 66.144531 -10.609375 61.296875 -5.738281 55.578125 -2.40625 C 49.867188 0.925781 43.421875 2.59375 36.234375 2.59375 C 25.847656 2.59375 17.753906 -1.40625 11.953125 -9.40625 C 6.148438 -17.414062 3.25 -28.265625 3.25 -41.953125 C 3.25 -57.617188 7.359375 -70.410156 15.578125 -80.328125 C 23.804688 -90.242188 34.546875 -95.203125 47.796875 -95.203125 Z M 41.6875 -14.28125 C 45.582031 -14.28125 48.484375 -16.960938 50.390625 -22.328125 C 52.296875 -27.703125 53.25 -36.582031 53.25 -48.96875 C 53.25 -59.613281 52.40625 -67.164062 50.71875 -71.625 C 49.03125 -76.082031 46.191406 -78.3125 42.203125 -78.3125 C 38.222656 -78.3125 35.171875 -75.453125 33.046875 -69.734375 C 30.929688 -64.023438 29.875 -55.976562 29.875 -45.59375 C 29.875 -35.71875 30.890625 -28.03125 32.921875 -22.53125 C 34.953125 -17.03125 37.875 -14.28125 41.6875 -14.28125 Z M 41.6875 -14.28125 "/></g></g></g><g fill="#231f20" fill-opacity="1"><g transform="translate(1041.742742, 387.83629)"><g><path d="M 80.65625 -5.1875 C 78.925781 -3.289062 76.4375 -1.257812 73.1875 0.90625 C 69.9375 3.070312 66.273438 5.191406 62.203125 7.265625 C 57.179688 -2.941406 53.195312 -10.878906 50.25 -16.546875 C 47.3125 -22.222656 44.546875 -27.398438 41.953125 -32.078125 C 37.097656 -26.109375 32.398438 -20.585938 27.859375 -15.515625 C 23.316406 -10.453125 18.359375 -5.191406 12.984375 0.265625 C 10.816406 -1.117188 8.390625 -3.085938 5.703125 -5.640625 C 3.023438 -8.203125 0.953125 -10.519531 -0.515625 -12.59375 C 11.597656 -27.226562 19.128906 -36.40625 22.078125 -40.125 C 25.023438 -43.851562 27.835938 -47.535156 30.515625 -51.171875 C 26.015625 -58.179688 21.46875 -64.738281 16.875 -70.84375 C 12.289062 -76.945312 7.53125 -82.726562 2.59375 -88.1875 C 6.144531 -91.300781 10.109375 -94.195312 14.484375 -96.875 C 18.859375 -99.5625 23.035156 -101.644531 27.015625 -103.125 C 30.734375 -98.007812 34.320312 -92.851562 37.78125 -87.65625 C 41.25 -82.46875 44.628906 -77.234375 47.921875 -71.953125 C 51.390625 -77.054688 54.507812 -81.898438 57.28125 -86.484375 C 60.050781 -91.078125 62.644531 -95.628906 65.0625 -100.140625 C 68.351562 -98.578125 71.644531 -96.410156 74.9375 -93.640625 C 78.226562 -90.867188 80.910156 -87.96875 82.984375 -84.9375 C 79.953125 -80.257812 76.53125 -75.363281 72.71875 -70.25 C 68.914062 -65.144531 64.375 -59.257812 59.09375 -52.59375 C 63.164062 -45.0625 66.972656 -37.378906 70.515625 -29.546875 C 74.066406 -21.710938 77.445312 -13.59375 80.65625 -5.1875 Z M 80.65625 -5.1875 "/></g></g></g><path fill="#33679a" d="M 1078.515625 508.398438 L 1092.554688 485.449219 L 1106.332031 508.398438 L 1092.421875 534.398438 Z M 1078.515625 508.398438 " fill-opacity="1" fill-rule="nonzero"/><g clip-path="url(#95078f4c40)"><path fill="#231f20" d="M 1092.421875 535.425781 C 1092.019531 535.425781 1091.722656 535.246094 1091.53125 534.886719 L 1077.625 508.890625 C 1077.4375 508.539062 1077.445312 508.195312 1077.652344 507.859375 L 1091.695312 484.910156 C 1091.890625 484.585938 1092.179688 484.425781 1092.554688 484.425781 L 1092.558594 484.425781 C 1092.9375 484.425781 1093.222656 484.589844 1093.421875 484.917969 L 1107.195312 507.867188 C 1107.398438 508.203125 1107.40625 508.542969 1107.222656 508.890625 L 1093.3125 534.886719 C 1093.121094 535.246094 1092.824219 535.425781 1092.421875 535.425781 Z M 1079.6875 508.433594 L 1092.421875 532.242188 L 1105.164062 508.429688 L 1092.546875 487.414062 Z M 1079.6875 508.433594 " fill-opacity="1" fill-rule="nonzero"/></g><g clip-path="url(#ab88454fd5)"><g clip-path="url(#c0e2ef4337)"><g clip-path="url(#9958d73a4e)"><path fill="#b91646" d="M 338.628906 434.832031 L 353 432.234375 L 342.886719 442.742188 L 355.605469 449.996094 L 341.074219 451.523438 L 346.183594 465.230469 L 334.035156 457.058594 L 329.148438 470.808594 L 325.0625 456.765625 L 312.464844 464.125 L 318.359375 450.777344 L 303.945312 448.300781 L 317.058594 441.898438 L 307.570312 430.742188 L 321.769531 434.277344 L 321.648438 419.667969 L 330.285156 431.488281 L 339.589844 420.257812 Z M 338.628906 434.832031 " fill-opacity="1" fill-rule="nonzero"/></g></g></g><g clip-path="url(#d53c59964c)"><g clip-path="url(#1d15d9da9a)"><g clip-path="url(#658312cbf6)"><path fill="#000000" d="M 311.765625 464.90625 C 311.597656 464.753906 311.488281 464.566406 311.4375 464.34375 C 311.390625 464.121094 311.414062 463.90625 311.503906 463.695312 L 316.855469 451.585938 L 303.769531 449.335938 C 303.546875 449.296875 303.355469 449.195312 303.195312 449.03125 C 303.035156 448.867188 302.9375 448.675781 302.90625 448.449219 C 302.871094 448.222656 302.910156 448.011719 303.015625 447.808594 C 303.121094 447.609375 303.277344 447.457031 303.480469 447.359375 L 315.382812 441.546875 L 306.773438 431.421875 C 306.625 431.25 306.542969 431.046875 306.523438 430.820312 C 306.507812 430.59375 306.558594 430.382812 306.675781 430.191406 C 306.796875 429.996094 306.960938 429.855469 307.171875 429.773438 C 307.382812 429.6875 307.601562 429.671875 307.820312 429.726562 L 320.707031 432.933594 L 320.597656 419.671875 C 320.597656 419.445312 320.660156 419.238281 320.792969 419.054688 C 320.925781 418.867188 321.101562 418.742188 321.320312 418.667969 C 321.535156 418.597656 321.75 418.597656 321.96875 418.667969 C 322.1875 418.738281 322.363281 418.867188 322.496094 419.050781 L 330.335938 429.78125 L 338.78125 419.585938 C 338.925781 419.410156 339.109375 419.296875 339.328125 419.242188 C 339.550781 419.183594 339.765625 419.199219 339.976562 419.285156 C 340.191406 419.371094 340.355469 419.507812 340.476562 419.699219 C 340.597656 419.894531 340.652344 420.105469 340.636719 420.332031 L 339.761719 433.558594 L 352.808594 431.203125 C 353.035156 431.160156 353.25 431.191406 353.453125 431.289062 C 353.660156 431.390625 353.816406 431.539062 353.925781 431.742188 C 354.03125 431.941406 354.070312 432.152344 354.039062 432.378906 C 354.011719 432.605469 353.914062 432.800781 353.757812 432.964844 L 344.578125 442.503906 L 356.121094 449.082031 C 356.320312 449.195312 356.464844 449.355469 356.558594 449.566406 C 356.652344 449.773438 356.675781 449.988281 356.628906 450.210938 C 356.585938 450.433594 356.476562 450.621094 356.308594 450.773438 C 356.140625 450.925781 355.941406 451.015625 355.714844 451.039062 L 342.527344 452.425781 L 347.167969 464.867188 C 347.246094 465.082031 347.257812 465.296875 347.195312 465.515625 C 347.132812 465.734375 347.015625 465.914062 346.835938 466.054688 C 346.65625 466.195312 346.453125 466.269531 346.226562 466.28125 C 345.996094 466.289062 345.789062 466.226562 345.601562 466.101562 L 334.574219 458.683594 L 330.136719 471.167969 C 330.0625 471.378906 329.929688 471.550781 329.742188 471.679688 C 329.554688 471.808594 329.347656 471.867188 329.117188 471.859375 C 328.890625 471.851562 328.6875 471.777344 328.507812 471.640625 C 328.328125 471.5 328.203125 471.320312 328.140625 471.101562 L 324.433594 458.351562 L 312.996094 465.03125 C 312.800781 465.144531 312.589844 465.191406 312.363281 465.167969 C 312.136719 465.144531 311.9375 465.058594 311.765625 464.90625 Z M 319.058594 449.996094 C 319.226562 450.148438 319.335938 450.335938 319.382812 450.558594 C 319.433594 450.78125 319.410156 450.996094 319.320312 451.203125 L 314.738281 461.578125 L 324.53125 455.859375 C 324.671875 455.777344 324.824219 455.730469 324.984375 455.71875 C 325.144531 455.707031 325.300781 455.730469 325.453125 455.792969 C 325.601562 455.851562 325.734375 455.941406 325.84375 456.0625 C 325.953125 456.183594 326.027344 456.320312 326.074219 456.476562 L 329.246094 467.394531 L 333.046875 456.707031 C 333.101562 456.554688 333.183594 456.421875 333.300781 456.308594 C 333.417969 456.195312 333.550781 456.113281 333.703125 456.0625 C 333.859375 456.011719 334.015625 456 334.175781 456.019531 C 334.335938 456.042969 334.484375 456.101562 334.617188 456.191406 L 344.0625 462.542969 L 340.089844 451.886719 C 340.035156 451.734375 340.011719 451.578125 340.027344 451.417969 C 340.042969 451.253906 340.09375 451.105469 340.179688 450.96875 C 340.265625 450.832031 340.375 450.71875 340.511719 450.632812 C 340.648438 450.546875 340.796875 450.496094 340.960938 450.480469 L 352.257812 449.292969 L 342.371094 443.65625 C 342.230469 443.574219 342.113281 443.46875 342.019531 443.332031 C 341.929688 443.199219 341.871094 443.054688 341.847656 442.890625 C 341.824219 442.730469 341.839844 442.574219 341.886719 442.421875 C 341.9375 442.265625 342.019531 442.132812 342.128906 442.015625 L 349.992188 433.84375 L 338.816406 435.863281 C 338.660156 435.886719 338.503906 435.875 338.351562 435.828125 C 338.199219 435.78125 338.0625 435.703125 337.945312 435.597656 C 337.824219 435.492188 337.734375 435.363281 337.667969 435.21875 C 337.605469 435.070312 337.574219 434.917969 337.578125 434.757812 L 338.328125 423.429688 L 331.09375 432.160156 C 330.992188 432.285156 330.867188 432.378906 330.71875 432.445312 C 330.570312 432.511719 330.417969 432.542969 330.253906 432.539062 C 330.09375 432.53125 329.941406 432.492188 329.796875 432.417969 C 329.65625 432.339844 329.535156 432.238281 329.4375 432.105469 L 322.726562 422.917969 L 322.816406 434.273438 C 322.816406 434.4375 322.785156 434.589844 322.714844 434.734375 C 322.644531 434.882812 322.546875 435.003906 322.417969 435.105469 C 322.292969 435.203125 322.148438 435.273438 321.992188 435.304688 C 321.832031 435.339844 321.675781 435.335938 321.515625 435.296875 L 310.484375 432.546875 L 317.855469 441.21875 C 317.960938 441.34375 318.035156 441.480469 318.074219 441.640625 C 318.113281 441.796875 318.117188 441.953125 318.085938 442.113281 C 318.054688 442.269531 317.988281 442.414062 317.886719 442.542969 C 317.789062 442.667969 317.667969 442.769531 317.519531 442.839844 L 307.328125 447.816406 L 318.53125 449.742188 C 318.730469 449.777344 318.90625 449.863281 319.058594 449.996094 Z M 319.058594 449.996094 " fill-opacity="1" fill-rule="nonzero"/></g></g></g><path fill="#f9c041" d="M 867.980469 248.578125 C 867.980469 249.417969 867.9375 250.25 867.855469 251.082031 C 867.773438 251.914062 867.652344 252.742188 867.488281 253.5625 C 867.328125 254.382812 867.125 255.191406 866.878906 255.992188 C 866.636719 256.792969 866.355469 257.582031 866.035156 258.351562 C 865.714844 259.125 865.359375 259.878906 864.964844 260.617188 C 864.570312 261.355469 864.140625 262.074219 863.675781 262.769531 C 863.210938 263.464844 862.714844 264.132812 862.183594 264.78125 C 861.652344 265.425781 861.089844 266.046875 860.5 266.636719 C 859.910156 267.230469 859.289062 267.789062 858.644531 268.320312 C 857.996094 268.851562 857.324219 269.347656 856.628906 269.8125 C 855.933594 270.277344 855.21875 270.707031 854.480469 271.101562 C 853.742188 271.496094 852.988281 271.855469 852.214844 272.175781 C 851.441406 272.492188 850.65625 272.777344 849.855469 273.019531 C 849.054688 273.261719 848.246094 273.464844 847.425781 273.628906 C 846.605469 273.789062 845.777344 273.914062 844.945312 273.996094 C 844.113281 274.078125 843.277344 274.117188 842.441406 274.117188 C 841.605469 274.117188 840.769531 274.078125 839.9375 273.996094 C 839.105469 273.914062 838.28125 273.789062 837.460938 273.628906 C 836.640625 273.464844 835.828125 273.261719 835.027344 273.019531 C 834.226562 272.777344 833.441406 272.492188 832.667969 272.175781 C 831.894531 271.855469 831.140625 271.496094 830.402344 271.101562 C 829.664062 270.707031 828.949219 270.277344 828.253906 269.8125 C 827.558594 269.347656 826.886719 268.851562 826.242188 268.320312 C 825.59375 267.789062 824.976562 267.230469 824.382812 266.636719 C 823.792969 266.046875 823.230469 265.425781 822.699219 264.78125 C 822.171875 264.132812 821.671875 263.464844 821.207031 262.769531 C 820.742188 262.074219 820.3125 261.355469 819.917969 260.617188 C 819.523438 259.878906 819.167969 259.125 818.847656 258.351562 C 818.527344 257.582031 818.246094 256.792969 818.003906 255.992188 C 817.761719 255.191406 817.558594 254.382812 817.394531 253.5625 C 817.230469 252.742188 817.109375 251.914062 817.027344 251.082031 C 816.945312 250.25 816.902344 249.417969 816.902344 248.578125 C 816.902344 247.742188 816.945312 246.910156 817.027344 246.078125 C 817.109375 245.246094 817.230469 244.417969 817.394531 243.597656 C 817.558594 242.777344 817.761719 241.964844 818.003906 241.167969 C 818.246094 240.367188 818.527344 239.578125 818.847656 238.808594 C 819.167969 238.035156 819.523438 237.277344 819.917969 236.542969 C 820.3125 235.804688 820.742188 235.085938 821.207031 234.390625 C 821.671875 233.695312 822.171875 233.023438 822.699219 232.378906 C 823.230469 231.730469 823.792969 231.113281 824.382812 230.519531 C 824.976562 229.929688 825.59375 229.367188 826.242188 228.839844 C 826.886719 228.308594 827.558594 227.808594 828.253906 227.34375 C 828.949219 226.878906 829.664062 226.453125 830.402344 226.058594 C 831.140625 225.664062 831.894531 225.304688 832.667969 224.984375 C 833.441406 224.664062 834.226562 224.382812 835.027344 224.140625 C 835.828125 223.898438 836.640625 223.695312 837.460938 223.53125 C 838.28125 223.367188 839.105469 223.246094 839.9375 223.164062 C 840.769531 223.082031 841.605469 223.042969 842.441406 223.042969 C 843.277344 223.042969 844.113281 223.082031 844.945312 223.164062 C 845.777344 223.246094 846.605469 223.367188 847.425781 223.53125 C 848.246094 223.695312 849.054688 223.898438 849.855469 224.140625 C 850.65625 224.382812 851.441406 224.664062 852.214844 224.984375 C 852.988281 225.304688 853.742188 225.664062 854.480469 226.058594 C 855.21875 226.453125 855.933594 226.878906 856.628906 227.34375 C 857.324219 227.808594 857.996094 228.308594 858.644531 228.839844 C 859.289062 229.367188 859.910156 229.929688 860.5 230.519531 C 861.089844 231.113281 861.652344 231.730469 862.183594 232.378906 C 862.714844 233.023438 863.210938 233.695312 863.675781 234.390625 C 864.140625 235.085938 864.570312 235.804688 864.964844 236.542969 C 865.359375 237.277344 865.714844 238.035156 866.035156 238.808594 C 866.355469 239.578125 866.636719 240.367188 866.878906 241.167969 C 867.125 241.964844 867.328125 242.777344 867.488281 243.597656 C 867.652344 244.417969 867.773438 245.246094 867.855469 246.078125 C 867.9375 246.910156 867.980469 247.742188 867.980469 248.578125 Z M 867.980469 248.578125 " fill-opacity="1" fill-rule="nonzero"/><g clip-path="url(#aebbaa6124)"><path fill="#231f20" d="M 842.441406 275.203125 C 841.570312 275.203125 840.699219 275.160156 839.832031 275.078125 C 838.964844 274.992188 838.101562 274.863281 837.246094 274.691406 C 836.390625 274.523438 835.546875 274.3125 834.714844 274.058594 C 833.878906 273.804688 833.058594 273.511719 832.253906 273.179688 C 831.449219 272.84375 830.660156 272.472656 829.890625 272.0625 C 829.121094 271.648438 828.375 271.203125 827.648438 270.71875 C 826.925781 270.234375 826.226562 269.714844 825.550781 269.160156 C 824.878906 268.609375 824.230469 268.023438 823.617188 267.40625 C 823 266.789062 822.414062 266.144531 821.859375 265.46875 C 821.308594 264.796875 820.789062 264.097656 820.304688 263.371094 C 819.820312 262.648438 819.371094 261.898438 818.960938 261.128906 C 818.550781 260.363281 818.175781 259.574219 817.84375 258.769531 C 817.511719 257.964844 817.214844 257.144531 816.964844 256.308594 C 816.710938 255.472656 816.5 254.628906 816.328125 253.773438 C 816.160156 252.917969 816.03125 252.058594 815.945312 251.191406 C 815.859375 250.320312 815.816406 249.453125 815.816406 248.578125 C 815.816406 247.707031 815.859375 246.835938 815.945312 245.96875 C 816.03125 245.101562 816.160156 244.242188 816.328125 243.386719 C 816.5 242.53125 816.710938 241.683594 816.964844 240.851562 C 817.214844 240.015625 817.511719 239.195312 817.84375 238.390625 C 818.175781 237.585938 818.550781 236.796875 818.960938 236.027344 C 819.371094 235.261719 819.820312 234.511719 820.304688 233.789062 C 820.789062 233.0625 821.308594 232.363281 821.859375 231.6875 C 822.414062 231.015625 823 230.371094 823.617188 229.753906 C 824.230469 229.136719 824.878906 228.550781 825.550781 228 C 826.226562 227.445312 826.925781 226.925781 827.648438 226.441406 C 828.375 225.957031 829.121094 225.507812 829.890625 225.097656 C 830.660156 224.6875 831.449219 224.316406 832.253906 223.980469 C 833.058594 223.648438 833.878906 223.355469 834.714844 223.101562 C 835.546875 222.847656 836.390625 222.636719 837.246094 222.464844 C 838.101562 222.296875 838.964844 222.167969 839.832031 222.082031 C 840.699219 221.996094 841.570312 221.953125 842.441406 221.953125 C 843.3125 221.953125 844.183594 221.996094 845.050781 222.082031 C 845.917969 222.167969 846.78125 222.296875 847.636719 222.464844 C 848.492188 222.636719 849.335938 222.847656 850.171875 223.101562 C 851.003906 223.355469 851.824219 223.648438 852.632812 223.980469 C 853.4375 224.316406 854.222656 224.6875 854.992188 225.097656 C 855.761719 225.507812 856.507812 225.957031 857.234375 226.441406 C 857.960938 226.925781 858.660156 227.445312 859.332031 228 C 860.007812 228.550781 860.652344 229.136719 861.269531 229.753906 C 861.886719 230.371094 862.46875 231.015625 863.023438 231.6875 C 863.578125 232.363281 864.09375 233.0625 864.578125 233.789062 C 865.0625 234.511719 865.511719 235.261719 865.921875 236.027344 C 866.335938 236.796875 866.707031 237.585938 867.039062 238.390625 C 867.375 239.195312 867.667969 240.015625 867.921875 240.851562 C 868.171875 241.683594 868.386719 242.53125 868.554688 243.386719 C 868.726562 244.242188 868.851562 245.101562 868.9375 245.96875 C 869.023438 246.835938 869.066406 247.707031 869.066406 248.578125 C 869.066406 249.453125 869.023438 250.320312 868.9375 251.1875 C 868.851562 252.054688 868.722656 252.917969 868.550781 253.773438 C 868.378906 254.625 868.167969 255.472656 867.914062 256.304688 C 867.660156 257.140625 867.367188 257.957031 867.03125 258.765625 C 866.699219 259.570312 866.324219 260.355469 865.914062 261.125 C 865.503906 261.894531 865.054688 262.640625 864.570312 263.363281 C 864.085938 264.089844 863.566406 264.789062 863.015625 265.460938 C 862.460938 266.136719 861.875 266.78125 861.261719 267.398438 C 860.644531 268.015625 860 268.597656 859.324219 269.152344 C 858.652344 269.707031 857.953125 270.222656 857.226562 270.707031 C 856.503906 271.191406 855.753906 271.640625 854.988281 272.050781 C 854.21875 272.464844 853.429688 272.835938 852.625 273.171875 C 851.820312 273.503906 851 273.796875 850.167969 274.050781 C 849.332031 274.304688 848.488281 274.515625 847.632812 274.6875 C 846.78125 274.859375 845.917969 274.988281 845.050781 275.074219 C 844.183594 275.160156 843.3125 275.203125 842.441406 275.203125 Z M 842.441406 224.128906 C 841.640625 224.128906 840.84375 224.167969 840.046875 224.246094 C 839.25 224.324219 838.457031 224.441406 837.671875 224.597656 C 836.886719 224.753906 836.109375 224.949219 835.34375 225.179688 C 834.578125 225.414062 833.824219 225.683594 833.085938 225.988281 C 832.34375 226.296875 831.621094 226.636719 830.914062 227.015625 C 830.210938 227.394531 829.523438 227.804688 828.859375 228.25 C 828.191406 228.695312 827.550781 229.171875 826.929688 229.679688 C 826.3125 230.1875 825.71875 230.722656 825.152344 231.289062 C 824.585938 231.855469 824.046875 232.449219 823.539062 233.066406 C 823.03125 233.6875 822.554688 234.328125 822.113281 234.996094 C 821.667969 235.660156 821.253906 236.347656 820.878906 237.054688 C 820.5 237.757812 820.160156 238.484375 819.851562 239.222656 C 819.546875 239.960938 819.277344 240.714844 819.042969 241.480469 C 818.8125 242.25 818.617188 243.023438 818.460938 243.808594 C 818.304688 244.59375 818.1875 245.386719 818.109375 246.183594 C 818.03125 246.980469 817.992188 247.777344 817.992188 248.578125 C 817.992188 249.378906 818.03125 250.179688 818.109375 250.976562 C 818.1875 251.773438 818.304688 252.566406 818.460938 253.351562 C 818.617188 254.136719 818.8125 254.910156 819.042969 255.675781 C 819.277344 256.445312 819.546875 257.195312 819.851562 257.9375 C 820.160156 258.675781 820.5 259.398438 820.878906 260.105469 C 821.253906 260.8125 821.667969 261.5 822.113281 262.164062 C 822.554688 262.832031 823.03125 263.472656 823.539062 264.089844 C 824.046875 264.710938 824.585938 265.304688 825.152344 265.871094 C 825.71875 266.4375 826.3125 266.972656 826.929688 267.480469 C 827.550781 267.988281 828.191406 268.464844 828.859375 268.910156 C 829.523438 269.355469 830.210938 269.765625 830.914062 270.144531 C 831.621094 270.523438 832.34375 270.863281 833.085938 271.171875 C 833.824219 271.476562 834.578125 271.746094 835.34375 271.976562 C 836.109375 272.210938 836.886719 272.40625 837.671875 272.5625 C 838.457031 272.71875 839.25 272.835938 840.046875 272.914062 C 840.84375 272.992188 841.640625 273.03125 842.441406 273.03125 C 843.242188 273.03125 844.042969 272.992188 844.839844 272.914062 C 845.636719 272.835938 846.425781 272.71875 847.210938 272.5625 C 847.996094 272.40625 848.773438 272.210938 849.539062 271.976562 C 850.304688 271.746094 851.058594 271.476562 851.800781 271.171875 C 852.539062 270.863281 853.261719 270.523438 853.96875 270.144531 C 854.675781 269.765625 855.359375 269.355469 856.027344 268.910156 C 856.691406 268.464844 857.335938 267.988281 857.953125 267.480469 C 858.574219 266.972656 859.164062 266.4375 859.730469 265.871094 C 860.296875 265.304688 860.835938 264.710938 861.34375 264.089844 C 861.851562 263.472656 862.328125 262.832031 862.773438 262.164062 C 863.21875 261.5 863.628906 260.8125 864.007812 260.105469 C 864.382812 259.398438 864.726562 258.675781 865.03125 257.9375 C 865.339844 257.195312 865.609375 256.445312 865.839844 255.675781 C 866.074219 254.910156 866.265625 254.136719 866.421875 253.351562 C 866.578125 252.566406 866.699219 251.773438 866.777344 250.976562 C 866.855469 250.179688 866.894531 249.378906 866.894531 248.578125 C 866.894531 247.777344 866.851562 246.980469 866.773438 246.183594 C 866.695312 245.386719 866.574219 244.597656 866.417969 243.8125 C 866.261719 243.027344 866.066406 242.25 865.835938 241.484375 C 865.601562 240.71875 865.332031 239.964844 865.023438 239.226562 C 864.71875 238.488281 864.375 237.765625 864 237.058594 C 863.621094 236.351562 863.210938 235.667969 862.765625 235 C 862.320312 234.335938 861.84375 233.695312 861.335938 233.074219 C 860.828125 232.457031 860.289062 231.863281 859.722656 231.296875 C 859.15625 230.730469 858.566406 230.195312 857.945312 229.6875 C 857.328125 229.179688 856.6875 228.703125 856.019531 228.257812 C 855.355469 227.8125 854.667969 227.402344 853.964844 227.023438 C 853.257812 226.644531 852.535156 226.304688 851.796875 225.996094 C 851.054688 225.691406 850.304688 225.421875 849.535156 225.1875 C 848.769531 224.953125 847.996094 224.757812 847.210938 224.601562 C 846.425781 224.445312 845.632812 224.328125 844.835938 224.25 C 844.042969 224.167969 843.242188 224.128906 842.441406 224.128906 Z M 842.441406 224.128906 " fill-opacity="1" fill-rule="nonzero"/></g><path fill="#231f20" d="M 842.433594 260.101562 C 841.777344 260.101562 841.125 260.054688 840.480469 259.953125 C 839.832031 259.851562 839.195312 259.699219 838.574219 259.5 C 837.949219 259.296875 837.34375 259.046875 836.761719 258.753906 C 836.175781 258.457031 835.617188 258.117188 835.085938 257.734375 C 834.554688 257.351562 834.058594 256.929688 833.59375 256.464844 C 833.128906 256.003906 832.703125 255.507812 832.316406 254.980469 C 831.929688 254.453125 831.585938 253.898438 831.285156 253.316406 C 830.984375 252.730469 830.730469 252.128906 830.527344 251.507812 C 830.480469 251.371094 830.464844 251.230469 830.472656 251.085938 C 830.484375 250.941406 830.523438 250.808594 830.585938 250.679688 C 830.652344 250.550781 830.738281 250.4375 830.847656 250.34375 C 830.957031 250.25 831.078125 250.179688 831.214844 250.132812 C 831.351562 250.089844 831.492188 250.070312 831.636719 250.082031 C 831.78125 250.09375 831.917969 250.128906 832.046875 250.195312 C 832.175781 250.257812 832.289062 250.347656 832.382812 250.457031 C 832.476562 250.566406 832.546875 250.6875 832.589844 250.824219 C 832.933594 251.859375 833.429688 252.820312 834.078125 253.699219 C 834.722656 254.578125 835.488281 255.335938 836.375 255.976562 C 837.261719 256.613281 838.222656 257.097656 839.261719 257.433594 C 840.304688 257.765625 841.367188 257.933594 842.460938 257.929688 C 843.550781 257.925781 844.617188 257.753906 845.65625 257.417969 C 846.691406 257.078125 847.652344 256.585938 848.535156 255.945312 C 849.417969 255.300781 850.179688 254.539062 850.824219 253.65625 C 851.464844 252.773438 851.957031 251.8125 852.292969 250.777344 C 852.335938 250.632812 852.402344 250.503906 852.492188 250.386719 C 852.585938 250.273438 852.699219 250.179688 852.828125 250.109375 C 852.957031 250.042969 853.097656 250 853.246094 249.988281 C 853.390625 249.972656 853.535156 249.988281 853.675781 250.035156 C 853.816406 250.082031 853.945312 250.152344 854.054688 250.25 C 854.167969 250.347656 854.253906 250.464844 854.320312 250.597656 C 854.382812 250.730469 854.417969 250.871094 854.425781 251.019531 C 854.433594 251.167969 854.410156 251.308594 854.359375 251.449219 C 854.15625 252.074219 853.90625 252.679688 853.605469 253.265625 C 853.308594 253.851562 852.964844 254.410156 852.578125 254.945312 C 852.191406 255.476562 851.765625 255.976562 851.300781 256.441406 C 850.835938 256.90625 850.335938 257.332031 849.804688 257.71875 C 849.273438 258.105469 848.714844 258.445312 848.125 258.742188 C 847.539062 259.042969 846.933594 259.292969 846.308594 259.496094 C 845.683594 259.699219 845.042969 259.851562 844.394531 259.953125 C 843.746094 260.054688 843.089844 260.105469 842.433594 260.101562 Z M 842.433594 260.101562 " fill-opacity="1" fill-rule="nonzero"/><path fill="#231f20" d="M 836.027344 242.371094 C 836.027344 242.644531 835.972656 242.90625 835.867188 243.160156 C 835.765625 243.410156 835.617188 243.632812 835.421875 243.828125 C 835.230469 244.019531 835.007812 244.167969 834.757812 244.273438 C 834.503906 244.375 834.242188 244.429688 833.96875 244.429688 C 833.695312 244.429688 833.433594 244.375 833.183594 244.273438 C 832.929688 244.167969 832.707031 244.019531 832.515625 243.828125 C 832.324219 243.632812 832.175781 243.410156 832.070312 243.160156 C 831.964844 242.90625 831.914062 242.644531 831.914062 242.371094 C 831.914062 242.101562 831.964844 241.839844 832.070312 241.585938 C 832.175781 241.335938 832.324219 241.113281 832.515625 240.917969 C 832.707031 240.726562 832.929688 240.578125 833.183594 240.472656 C 833.433594 240.367188 833.695312 240.316406 833.96875 240.316406 C 834.242188 240.316406 834.503906 240.367188 834.757812 240.472656 C 835.007812 240.578125 835.230469 240.726562 835.421875 240.917969 C 835.617188 241.113281 835.765625 241.335938 835.867188 241.585938 C 835.972656 241.839844 836.027344 242.101562 836.027344 242.371094 Z M 836.027344 242.371094 " fill-opacity="1" fill-rule="nonzero"/><path fill="#231f20" d="M 852.871094 242.371094 C 852.871094 242.644531 852.816406 242.90625 852.714844 243.160156 C 852.609375 243.410156 852.460938 243.632812 852.269531 243.828125 C 852.074219 244.019531 851.851562 244.167969 851.601562 244.273438 C 851.347656 244.375 851.085938 244.429688 850.8125 244.429688 C 850.542969 244.429688 850.277344 244.375 850.027344 244.273438 C 849.773438 244.167969 849.550781 244.019531 849.359375 243.828125 C 849.167969 243.632812 849.019531 243.410156 848.914062 243.160156 C 848.808594 242.90625 848.757812 242.644531 848.757812 242.371094 C 848.757812 242.101562 848.808594 241.839844 848.914062 241.585938 C 849.019531 241.335938 849.167969 241.113281 849.359375 240.917969 C 849.550781 240.726562 849.773438 240.578125 850.027344 240.472656 C 850.277344 240.367188 850.542969 240.316406 850.8125 240.316406 C 851.085938 240.316406 851.347656 240.367188 851.601562 240.472656 C 851.851562 240.578125 852.074219 240.726562 852.269531 240.917969 C 852.460938 241.113281 852.609375 241.335938 852.714844 241.585938 C 852.816406 241.839844 852.871094 242.101562 852.871094 242.371094 Z M 852.871094 242.371094 " fill-opacity="1" fill-rule="nonzero"/><path fill="#231f20" d="M 1270.457031 101.65625 L 1279.46875 101.65625 C 1279.667969 101.65625 1279.859375 101.691406 1280.042969 101.769531 C 1280.226562 101.84375 1280.386719 101.953125 1280.527344 102.09375 C 1280.671875 102.234375 1280.777344 102.398438 1280.855469 102.582031 C 1280.929688 102.765625 1280.96875 102.957031 1280.96875 103.15625 C 1280.96875 103.355469 1280.929688 103.546875 1280.855469 103.730469 C 1280.777344 103.914062 1280.671875 104.074219 1280.527344 104.214844 C 1280.386719 104.355469 1280.226562 104.464844 1280.042969 104.539062 C 1279.859375 104.617188 1279.667969 104.65625 1279.46875 104.65625 L 1270.457031 104.65625 C 1270.257812 104.65625 1270.066406 104.617188 1269.882812 104.539062 C 1269.699219 104.464844 1269.535156 104.355469 1269.394531 104.214844 C 1269.253906 104.074219 1269.144531 103.914062 1269.070312 103.730469 C 1268.992188 103.546875 1268.953125 103.355469 1268.953125 103.15625 C 1268.953125 102.957031 1268.992188 102.765625 1269.070312 102.582031 C 1269.144531 102.398438 1269.253906 102.234375 1269.394531 102.09375 C 1269.535156 101.953125 1269.699219 101.84375 1269.882812 101.769531 C 1270.066406 101.691406 1270.257812 101.65625 1270.457031 101.65625 Z M 1285.472656 101.65625 L 1294.484375 101.65625 C 1294.683594 101.65625 1294.875 101.691406 1295.058594 101.769531 C 1295.242188 101.84375 1295.40625 101.953125 1295.546875 102.09375 C 1295.6875 102.234375 1295.796875 102.398438 1295.871094 102.582031 C 1295.949219 102.765625 1295.988281 102.957031 1295.988281 103.15625 C 1295.988281 103.355469 1295.949219 103.546875 1295.871094 103.730469 C 1295.796875 103.914062 1295.6875 104.074219 1295.546875 104.214844 C 1295.40625 104.355469 1295.242188 104.464844 1295.058594 104.539062 C 1294.875 104.617188 1294.683594 104.65625 1294.484375 104.65625 L 1285.472656 104.65625 C 1285.273438 104.65625 1285.082031 104.617188 1284.898438 104.539062 C 1284.714844 104.464844 1284.554688 104.355469 1284.414062 104.214844 C 1284.273438 104.074219 1284.164062 103.914062 1284.085938 103.730469 C 1284.011719 103.546875 1283.972656 103.355469 1283.972656 103.15625 C 1283.972656 102.957031 1284.011719 102.765625 1284.085938 102.582031 C 1284.164062 102.398438 1284.273438 102.234375 1284.414062 102.09375 C 1284.554688 101.953125 1284.714844 101.84375 1284.898438 101.769531 C 1285.082031 101.691406 1285.273438 101.65625 1285.472656 101.65625 Z M 1300.492188 101.65625 L 1309.503906 101.65625 C 1309.703125 101.65625 1309.894531 101.691406 1310.078125 101.769531 C 1310.261719 101.84375 1310.425781 101.953125 1310.566406 102.09375 C 1310.707031 102.234375 1310.8125 102.398438 1310.890625 102.582031 C 1310.96875 102.765625 1311.003906 102.957031 1311.003906 103.15625 C 1311.003906 103.355469 1310.96875 103.546875 1310.890625 103.730469 C 1310.8125 103.914062 1310.707031 104.074219 1310.566406 104.214844 C 1310.425781 104.355469 1310.261719 104.464844 1310.078125 104.539062 C 1309.894531 104.617188 1309.703125 104.65625 1309.503906 104.65625 L 1300.492188 104.65625 C 1300.292969 104.65625 1300.101562 104.617188 1299.917969 104.539062 C 1299.734375 104.464844 1299.570312 104.355469 1299.429688 104.214844 C 1299.289062 104.074219 1299.179688 103.914062 1299.105469 103.730469 C 1299.027344 103.546875 1298.992188 103.355469 1298.992188 103.15625 C 1298.992188 102.957031 1299.027344 102.765625 1299.105469 102.582031 C 1299.179688 102.398438 1299.289062 102.234375 1299.429688 102.09375 C 1299.570312 101.953125 1299.734375 101.84375 1299.917969 101.769531 C 1300.101562 101.691406 1300.292969 101.65625 1300.492188 101.65625 Z M 1315.511719 101.65625 L 1324.519531 101.65625 C 1324.71875 101.65625 1324.910156 101.691406 1325.097656 101.769531 C 1325.28125 101.84375 1325.441406 101.953125 1325.582031 102.09375 C 1325.722656 102.234375 1325.832031 102.398438 1325.910156 102.582031 C 1325.984375 102.765625 1326.023438 102.957031 1326.023438 103.15625 C 1326.023438 103.355469 1325.984375 103.546875 1325.910156 103.730469 C 1325.832031 103.914062 1325.722656 104.074219 1325.582031 104.214844 C 1325.441406 104.355469 1325.28125 104.464844 1325.097656 104.539062 C 1324.910156 104.617188 1324.71875 104.65625 1324.519531 104.65625 L 1315.511719 104.65625 C 1315.3125 104.65625 1315.121094 104.617188 1314.9375 104.539062 C 1314.75 104.464844 1314.589844 104.355469 1314.449219 104.214844 C 1314.308594 104.074219 1314.199219 103.914062 1314.121094 103.730469 C 1314.046875 103.546875 1314.007812 103.355469 1314.007812 103.15625 C 1314.007812 102.957031 1314.046875 102.765625 1314.121094 102.582031 C 1314.199219 102.398438 1314.308594 102.234375 1314.449219 102.09375 C 1314.589844 101.953125 1314.75 101.84375 1314.9375 101.769531 C 1315.121094 101.691406 1315.3125 101.65625 1315.511719 101.65625 Z M 1330.527344 101.65625 L 1339.539062 101.65625 C 1339.738281 101.65625 1339.929688 101.691406 1340.113281 101.769531 C 1340.296875 101.84375 1340.460938 101.953125 1340.601562 102.09375 C 1340.742188 102.234375 1340.851562 102.398438 1340.925781 102.582031 C 1341.003906 102.765625 1341.039062 102.957031 1341.039062 103.15625 C 1341.039062 103.355469 1341.003906 103.546875 1340.925781 103.730469 C 1340.851562 103.914062 1340.742188 104.074219 1340.601562 104.214844 C 1340.460938 104.355469 1340.296875 104.464844 1340.113281 104.539062 C 1339.929688 104.617188 1339.738281 104.65625 1339.539062 104.65625 L 1330.527344 104.65625 C 1330.328125 104.65625 1330.136719 104.617188 1329.953125 104.539062 C 1329.769531 104.464844 1329.605469 104.355469 1329.464844 104.214844 C 1329.324219 104.074219 1329.21875 103.914062 1329.140625 103.730469 C 1329.066406 103.546875 1329.027344 103.355469 1329.027344 103.15625 C 1329.027344 102.957031 1329.066406 102.765625 1329.140625 102.582031 C 1329.21875 102.398438 1329.324219 102.234375 1329.464844 102.09375 C 1329.605469 101.953125 1329.769531 101.84375 1329.953125 101.769531 C 1330.136719 101.691406 1330.328125 101.65625 1330.527344 101.65625 Z M 1345.546875 101.65625 L 1348.453125 101.65625 C 1348.652344 101.65625 1348.84375 101.691406 1349.027344 101.769531 C 1349.210938 101.84375 1349.375 101.953125 1349.515625 102.09375 C 1349.65625 102.234375 1349.761719 102.398438 1349.839844 102.582031 C 1349.914062 102.765625 1349.953125 102.957031 1349.953125 103.15625 C 1349.953125 103.355469 1349.914062 103.546875 1349.839844 103.730469 C 1349.761719 103.914062 1349.65625 104.074219 1349.515625 104.214844 C 1349.375 104.355469 1349.210938 104.464844 1349.027344 104.539062 C 1348.84375 104.617188 1348.652344 104.65625 1348.453125 104.65625 L 1345.546875 104.65625 C 1345.347656 104.65625 1345.15625 104.617188 1344.972656 104.539062 C 1344.789062 104.464844 1344.625 104.355469 1344.484375 104.214844 C 1344.34375 104.074219 1344.234375 103.914062 1344.160156 103.730469 C 1344.082031 103.546875 1344.042969 103.355469 1344.042969 103.15625 C 1344.042969 102.957031 1344.082031 102.765625 1344.160156 102.582031 C 1344.234375 102.398438 1344.34375 102.234375 1344.484375 102.09375 C 1344.625 101.953125 1344.789062 101.84375 1344.972656 101.769531 C 1345.15625 101.691406 1345.347656 101.65625 1345.546875 101.65625 Z M 1345.546875 101.65625 " fill-opacity="1" fill-rule="nonzero"/><path stroke-linecap="round" transform="matrix(3.003579, 0, 0, 3, 1357.463026, 103.155022)" fill-opacity="1" fill="#231f20" fill-rule="nonzero" stroke-linejoin="round" d="M -2.500317 -1.499591 L -0.500099 0.00040933 L -2.500317 1.500409 Z M -2.500317 -1.499591 " stroke="#231f20" stroke-width="1" stroke-opacity="1" stroke-miterlimit="4"/></svg>