<svg xmlns="http://www.w3.org/2000/svg" xmlns:xlink="http://www.w3.org/1999/xlink" width="1920" zoomAndPan="magnify" viewBox="0 0 1440 809.999993" height="1080" preserveAspectRatio="xMidYMid meet" version="1.0"><defs><g/><clipPath id="66324e732e"><path d="M 0 203 L 468 203 L 468 810 L 0 810 Z M 0 203 " clip-rule="nonzero"/></clipPath><clipPath id="b8b2792834"><path d="M -561.585938 338.417969 L 109.171875 50.988281 L 496.75 955.441406 L -174.007812 1242.875 Z M -561.585938 338.417969 " clip-rule="nonzero"/></clipPath><clipPath id="ad52e44210"><path d="M -561.585938 338.417969 L 109.171875 50.988281 L 496.75 955.441406 L -174.007812 1242.875 Z M -561.585938 338.417969 " clip-rule="nonzero"/></clipPath><clipPath id="c0f0921a42"><path d="M -561.585938 338.417969 L 109.171875 50.988281 L 496.75 955.441406 L -174.007812 1242.875 Z M -561.585938 338.417969 " clip-rule="nonzero"/></clipPath><clipPath id="3dd84f98a7"><path d="M 143 631.203125 L 506 631.203125 L 506 662 L 143 662 Z M 143 631.203125 " clip-rule="nonzero"/></clipPath></defs><rect x="-144" width="1728" fill="#ffffff" y="-80.999999" height="971.999992" fill-opacity="1"/><rect x="-144" width="1728" fill="#ffffff" y="-80.999999" height="971.999992" fill-opacity="1"/><rect x="-144" width="1728" fill="#f6f2ef" y="-80.999999" height="971.999992" fill-opacity="1"/><g clip-path="url(#66324e732e)"><g clip-path="url(#b8b2792834)"><g clip-path="url(#ad52e44210)"><g clip-path="url(#c0f0921a42)"><path fill="#d3b094" d="M -172.421875 1212.480469 C -172.421875 1212.480469 -127.117188 1215.410156 57.425781 1139.882812 C 241.964844 1064.351562 362.203125 1001.96875 406.722656 977.253906 C 451.246094 952.535156 467.296875 938.347656 467.296875 938.347656 C 467.296875 938.347656 293.8125 481.867188 236.109375 398.84375 C 178.402344 315.820312 64.65625 187.273438 -114.898438 205.746094 C -294.453125 224.21875 -310.601562 281.046875 -362.929688 381.570312 C -415.261719 482.09375 -307.390625 931.609375 -249.558594 1057.804688 C -191.722656 1184 -172.421875 1212.480469 -172.421875 1212.480469 Z M -172.421875 1212.480469 " fill-opacity="1" fill-rule="nonzero"/></g></g></g></g><path fill="#e19251" d="M 1215.597656 -302.414062 C 1299.941406 -339.898438 1589.339844 -256.804688 1648.566406 -156.589844 C 1707.796875 -56.375 1712.421875 12.101562 1675.933594 112.441406 C 1639.445312 212.78125 1548.726562 285.628906 1457.386719 299.25 C 1366.042969 312.871094 1233.839844 340.238281 1151.742188 240.023438 C 1069.648438 139.808594 1037.785156 130.558594 1033.285156 89.574219 C 1028.789062 48.589844 1005.921875 -78.992188 1065.148438 -170.207031 C 1124.378906 -261.425781 1133.5 -265.925781 1215.597656 -302.414062 Z M 1215.597656 -302.414062 " fill-opacity="1" fill-rule="nonzero"/><path fill="#e8985d" d="M 1201.476562 -143.46875 C 1261.828125 -170.332031 1469.007812 -110.855469 1511.492188 -39.128906 C 1553.976562 32.59375 1557.226562 81.578125 1531.109375 153.425781 C 1504.992188 225.277344 1440.015625 277.382812 1374.539062 287.128906 C 1309.0625 296.875 1214.472656 316.496094 1155.742188 244.769531 C 1097.011719 173.046875 1074.269531 166.421875 1071.023438 137.058594 C 1067.773438 107.691406 1051.402344 16.351562 1093.890625 -48.875 C 1136.375 -114.105469 1142.746094 -117.351562 1201.476562 -143.46875 Z M 1201.476562 -143.46875 " fill-opacity="1" fill-rule="nonzero"/><g fill="#191919" fill-opacity="1"><g transform="translate(330.686, 354.329095)"><g><path d="M 0.796875 0 L 24.5625 -54.234375 L 25.75 -54.234375 L 49.515625 0 L 40.796875 0 L 34.796875 -14.390625 L 11.03125 -14.390625 L 5.125 0 Z M 12.234375 -17.4375 L 33.515625 -17.4375 L 22.953125 -43.34375 Z M 12.234375 -17.4375 "/></g></g></g><g fill="#191919" fill-opacity="1"><g transform="translate(380.993993, 354.329095)"><g><path d="M 18.234375 0.953125 C 13.597656 0.953125 9.742188 -0.628906 6.671875 -3.796875 C 3.609375 -6.972656 2.078125 -11.46875 2.078125 -17.28125 C 2.078125 -23.09375 3.71875 -27.847656 7 -31.546875 C 10.28125 -35.253906 14.453125 -37.109375 19.515625 -37.109375 C 22.335938 -37.109375 25.507812 -36.414062 29.03125 -35.03125 L 28.234375 -29.75 C 23.546875 -32.207031 19.519531 -33.4375 16.15625 -33.4375 C 13.382812 -32.050781 11.382812 -29.8125 10.15625 -26.71875 C 8.925781 -23.625 8.3125 -20.582031 8.3125 -17.59375 C 8.3125 -13.539062 9.5 -10.164062 11.875 -7.46875 C 14.25 -4.78125 17.085938 -3.4375 20.390625 -3.4375 C 23.703125 -3.4375 26.742188 -4.15625 29.515625 -5.59375 L 29.515625 -2.796875 C 25.671875 -0.296875 21.910156 0.953125 18.234375 0.953125 Z M 18.234375 0.953125 "/></g></g></g><g fill="#191919" fill-opacity="1"><g transform="translate(413.466255, 354.329095)"><g><path d="M 25.109375 -36.953125 C 27.566406 -36.953125 29.753906 -36.046875 31.671875 -34.234375 C 33.585938 -32.421875 34.546875 -29.300781 34.546875 -24.875 L 34.546875 0 L 27.828125 0 L 27.828125 -24.078125 C 27.828125 -26.691406 27.359375 -28.648438 26.421875 -29.953125 C 25.492188 -31.253906 23.707031 -31.90625 21.0625 -31.90625 C 18.425781 -31.90625 15.671875 -30.492188 12.796875 -27.671875 L 12.796875 0 L 6.078125 0 L 6.078125 -54.625 L 12.5625 -54.625 L 12.5625 -31.03125 C 16.769531 -34.976562 20.953125 -36.953125 25.109375 -36.953125 Z M 25.109375 -36.953125 "/></g></g></g><g fill="#191919" fill-opacity="1"><g transform="translate(453.69666, 354.329095)"><g><path d="M 6 0 L 6 -36.15625 L 12.640625 -36.15625 L 12.640625 0 Z M 5.203125 -47.3125 C 5.203125 -48.457031 5.585938 -49.429688 6.359375 -50.234375 C 7.128906 -51.035156 8.085938 -51.4375 9.234375 -51.4375 C 10.378906 -51.4375 11.363281 -51.035156 12.1875 -50.234375 C 13.019531 -49.429688 13.4375 -48.46875 13.4375 -47.34375 C 13.4375 -46.226562 13.019531 -45.242188 12.1875 -44.390625 C 11.363281 -43.535156 10.390625 -43.109375 9.265625 -43.109375 C 8.148438 -43.109375 7.191406 -43.519531 6.390625 -44.34375 C 5.597656 -45.175781 5.203125 -46.164062 5.203125 -47.3125 Z M 5.203125 -47.3125 "/></g></g></g><g fill="#191919" fill-opacity="1"><g transform="translate(472.332211, 354.329095)"><g><path d="M 8.390625 -19.671875 C 8.390625 -13.910156 9.679688 -9.765625 12.265625 -7.234375 C 14.859375 -4.703125 18.007812 -3.4375 21.71875 -3.4375 C 25.425781 -3.4375 28.851562 -4.15625 32 -5.59375 L 32 -2.796875 C 27.625 -0.296875 23.4375 0.953125 19.4375 0.953125 C 14.257812 0.953125 10.070312 -0.617188 6.875 -3.765625 C 3.675781 -6.910156 2.078125 -11.46875 2.078125 -17.4375 C 2.078125 -23.40625 3.847656 -28.175781 7.390625 -31.75 C 10.941406 -35.320312 15.222656 -37.109375 20.234375 -37.109375 C 24.128906 -37.109375 27.378906 -35.578125 29.984375 -32.515625 C 32.597656 -29.453125 33.90625 -25.171875 33.90625 -19.671875 Z M 16.15625 -33.359375 C 14.289062 -32.453125 12.691406 -31 11.359375 -29 C 10.023438 -27 9.144531 -24.691406 8.71875 -22.078125 L 27.4375 -22.078125 C 27.269531 -24.316406 26.75 -26.234375 25.875 -27.828125 C 25 -29.429688 23.945312 -30.609375 22.71875 -31.359375 C 20.53125 -32.691406 18.34375 -33.359375 16.15625 -33.359375 Z M 16.15625 -33.359375 "/></g></g></g><g fill="#191919" fill-opacity="1"><g transform="translate(509.843257, 354.329095)"><g><path d="M 17.671875 1.046875 L 16.484375 1.046875 L 0.796875 -36.15625 L 7.84375 -36.15625 L 18.875 -8.15625 L 29.359375 -36.15625 L 32.390625 -36.15625 Z M 17.671875 1.046875 "/></g></g></g><g fill="#191919" fill-opacity="1"><g transform="translate(543.035342, 354.329095)"><g><path d="M 6 0 L 6 -36.15625 L 12.640625 -36.15625 L 12.640625 0 Z M 5.203125 -47.3125 C 5.203125 -48.457031 5.585938 -49.429688 6.359375 -50.234375 C 7.128906 -51.035156 8.085938 -51.4375 9.234375 -51.4375 C 10.378906 -51.4375 11.363281 -51.035156 12.1875 -50.234375 C 13.019531 -49.429688 13.4375 -48.46875 13.4375 -47.34375 C 13.4375 -46.226562 13.019531 -45.242188 12.1875 -44.390625 C 11.363281 -43.535156 10.390625 -43.109375 9.265625 -43.109375 C 8.148438 -43.109375 7.191406 -43.519531 6.390625 -44.34375 C 5.597656 -45.175781 5.203125 -46.164062 5.203125 -47.3125 Z M 5.203125 -47.3125 "/></g></g></g><g fill="#191919" fill-opacity="1"><g transform="translate(561.670892, 354.329095)"><g><path d="M 12.953125 -31.03125 C 15.191406 -33.164062 17.148438 -34.710938 18.828125 -35.671875 C 20.515625 -36.628906 22.503906 -37.109375 24.796875 -37.109375 C 27.085938 -37.109375 29.207031 -36.203125 31.15625 -34.390625 C 33.101562 -32.578125 34.078125 -29.457031 34.078125 -25.03125 L 34.078125 0 L 27.28125 0 L 27.28125 -24.234375 C 27.28125 -26.847656 26.8125 -28.804688 25.875 -30.109375 C 24.9375 -31.421875 23.332031 -32.078125 21.0625 -32.078125 C 18.800781 -32.078125 16.179688 -30.582031 13.203125 -27.59375 L 13.203125 0 L 6.40625 0 L 6.40625 -25.109375 C 6.40625 -28.734375 5.039062 -31.640625 2.3125 -33.828125 L 6.40625 -36.875 Z M 12.953125 -31.03125 "/></g></g></g><g fill="#191919" fill-opacity="1"><g transform="translate(601.661351, 354.329095)"><g><path d="M 10.5625 -7.1875 C 10.5625 -6.175781 11.316406 -5.484375 12.828125 -5.109375 C 14.347656 -4.742188 17.269531 -4.5625 21.59375 -4.5625 C 25.914062 -4.5625 29.378906 -4.078125 31.984375 -3.109375 C 34.597656 -2.148438 35.90625 -0.34375 35.90625 2.3125 C 35.90625 6.257812 33.972656 9.816406 30.109375 12.984375 C 26.242188 16.160156 21.515625 17.75 15.921875 17.75 C 11.867188 17.75 8.546875 16.988281 5.953125 15.46875 C 3.367188 13.957031 2.078125 11.785156 2.078125 8.953125 C 2.078125 4.953125 4.265625 1.992188 8.640625 0.078125 C 6.179688 -0.828125 4.953125 -2.519531 4.953125 -5 C 4.953125 -7.476562 6.875 -10.1875 10.71875 -13.125 C 6.71875 -15.195312 4.71875 -18.59375 4.71875 -23.3125 C 4.71875 -28.03125 6.195312 -31.507812 9.15625 -33.75 C 12.113281 -35.988281 15.429688 -37.109375 19.109375 -37.109375 C 21.722656 -37.109375 24.234375 -36.390625 26.640625 -34.953125 L 33.671875 -36.953125 L 35.265625 -33.515625 L 30.3125 -31.03125 C 31.320312 -29.269531 31.828125 -27.21875 31.828125 -24.875 C 31.828125 -22.53125 31.359375 -20.460938 30.421875 -18.671875 C 29.492188 -16.890625 28.285156 -15.519531 26.796875 -14.5625 C 23.804688 -12.632812 20.578125 -11.671875 17.109375 -11.671875 C 16.578125 -11.671875 15.832031 -11.726562 14.875 -11.84375 C 13.96875 -11.570312 13.019531 -10.984375 12.03125 -10.078125 C 11.050781 -9.171875 10.5625 -8.207031 10.5625 -7.1875 Z M 25.515625 -24.15625 C 25.515625 -26.925781 24.78125 -29.335938 23.3125 -31.390625 C 21.84375 -33.441406 20.03125 -34.46875 17.875 -34.46875 C 15.71875 -34.46875 14 -33.535156 12.71875 -31.671875 C 11.4375 -29.804688 10.796875 -27.394531 10.796875 -24.4375 C 10.796875 -21.476562 11.515625 -19.023438 12.953125 -17.078125 C 14.390625 -15.128906 16.125 -14.15625 18.15625 -14.15625 C 23.0625 -14.15625 25.515625 -17.488281 25.515625 -24.15625 Z M 17.203125 14.078125 C 21.617188 14.078125 25.375 12.847656 28.46875 10.390625 C 31.5625 7.941406 33.109375 5.492188 33.109375 3.046875 C 30.390625 1.921875 26.585938 1.359375 21.703125 1.359375 C 16.828125 1.359375 13.457031 1.195312 11.59375 0.875 C 9.25 2.851562 8.078125 4.960938 8.078125 7.203125 C 8.078125 11.785156 11.117188 14.078125 17.203125 14.078125 Z M 17.203125 14.078125 "/></g></g></g><g fill="#191919" fill-opacity="1"><g transform="translate(640.852009, 354.329095)"><g/></g></g><g fill="#191919" fill-opacity="1"><g transform="translate(660.84723, 354.329095)"><g><path d="M 0.796875 0 L 24.5625 -54.234375 L 25.75 -54.234375 L 49.515625 0 L 40.796875 0 L 34.796875 -14.390625 L 11.03125 -14.390625 L 5.125 0 Z M 12.234375 -17.4375 L 33.515625 -17.4375 L 22.953125 -43.34375 Z M 12.234375 -17.4375 "/></g></g></g><g fill="#191919" fill-opacity="1"><g transform="translate(711.155224, 354.329095)"><g><path d="M 18.234375 0.953125 C 13.597656 0.953125 9.742188 -0.628906 6.671875 -3.796875 C 3.609375 -6.972656 2.078125 -11.46875 2.078125 -17.28125 C 2.078125 -23.09375 3.71875 -27.847656 7 -31.546875 C 10.28125 -35.253906 14.453125 -37.109375 19.515625 -37.109375 C 22.335938 -37.109375 25.507812 -36.414062 29.03125 -35.03125 L 28.234375 -29.75 C 23.546875 -32.207031 19.519531 -33.4375 16.15625 -33.4375 C 13.382812 -32.050781 11.382812 -29.8125 10.15625 -26.71875 C 8.925781 -23.625 8.3125 -20.582031 8.3125 -17.59375 C 8.3125 -13.539062 9.5 -10.164062 11.875 -7.46875 C 14.25 -4.78125 17.085938 -3.4375 20.390625 -3.4375 C 23.703125 -3.4375 26.742188 -4.15625 29.515625 -5.59375 L 29.515625 -2.796875 C 25.671875 -0.296875 21.910156 0.953125 18.234375 0.953125 Z M 18.234375 0.953125 "/></g></g></g><g fill="#191919" fill-opacity="1"><g transform="translate(743.627485, 354.329095)"><g><path d="M 18.234375 0.953125 C 13.597656 0.953125 9.742188 -0.628906 6.671875 -3.796875 C 3.609375 -6.972656 2.078125 -11.46875 2.078125 -17.28125 C 2.078125 -23.09375 3.71875 -27.847656 7 -31.546875 C 10.28125 -35.253906 14.453125 -37.109375 19.515625 -37.109375 C 22.335938 -37.109375 25.507812 -36.414062 29.03125 -35.03125 L 28.234375 -29.75 C 23.546875 -32.207031 19.519531 -33.4375 16.15625 -33.4375 C 13.382812 -32.050781 11.382812 -29.8125 10.15625 -26.71875 C 8.925781 -23.625 8.3125 -20.582031 8.3125 -17.59375 C 8.3125 -13.539062 9.5 -10.164062 11.875 -7.46875 C 14.25 -4.78125 17.085938 -3.4375 20.390625 -3.4375 C 23.703125 -3.4375 26.742188 -4.15625 29.515625 -5.59375 L 29.515625 -2.796875 C 25.671875 -0.296875 21.910156 0.953125 18.234375 0.953125 Z M 18.234375 0.953125 "/></g></g></g><g fill="#191919" fill-opacity="1"><g transform="translate(776.099747, 354.329095)"><g><path d="M 8.390625 -19.671875 C 8.390625 -13.910156 9.679688 -9.765625 12.265625 -7.234375 C 14.859375 -4.703125 18.007812 -3.4375 21.71875 -3.4375 C 25.425781 -3.4375 28.851562 -4.15625 32 -5.59375 L 32 -2.796875 C 27.625 -0.296875 23.4375 0.953125 19.4375 0.953125 C 14.257812 0.953125 10.070312 -0.617188 6.875 -3.765625 C 3.675781 -6.910156 2.078125 -11.46875 2.078125 -17.4375 C 2.078125 -23.40625 3.847656 -28.175781 7.390625 -31.75 C 10.941406 -35.320312 15.222656 -37.109375 20.234375 -37.109375 C 24.128906 -37.109375 27.378906 -35.578125 29.984375 -32.515625 C 32.597656 -29.453125 33.90625 -25.171875 33.90625 -19.671875 Z M 16.15625 -33.359375 C 14.289062 -32.453125 12.691406 -31 11.359375 -29 C 10.023438 -27 9.144531 -24.691406 8.71875 -22.078125 L 27.4375 -22.078125 C 27.269531 -24.316406 26.75 -26.234375 25.875 -27.828125 C 25 -29.429688 23.945312 -30.609375 22.71875 -31.359375 C 20.53125 -32.691406 18.34375 -33.359375 16.15625 -33.359375 Z M 16.15625 -33.359375 "/></g></g></g><g fill="#191919" fill-opacity="1"><g transform="translate(813.610793, 354.329095)"><g><path d="M 13.515625 -33.75 C 12.128906 -33.75 10.992188 -33.226562 10.109375 -32.1875 C 9.234375 -31.15625 8.796875 -29.984375 8.796875 -28.671875 C 8.796875 -27.367188 9.421875 -26.113281 10.671875 -24.90625 C 11.929688 -23.707031 13.453125 -22.640625 15.234375 -21.703125 C 17.023438 -20.773438 18.800781 -19.804688 20.5625 -18.796875 C 22.320312 -17.785156 23.828125 -16.476562 25.078125 -14.875 C 26.328125 -13.28125 26.953125 -11.492188 26.953125 -9.515625 C 26.953125 -6.523438 25.75 -4.03125 23.34375 -2.03125 C 20.945312 -0.0390625 17.679688 0.953125 13.546875 0.953125 C 9.421875 0.953125 5.648438 -0.00390625 2.234375 -1.921875 L 2.234375 -4.953125 C 5.859375 -3.140625 9.140625 -2.234375 12.078125 -2.234375 C 15.015625 -2.234375 17.144531 -2.820312 18.46875 -4 C 19.800781 -5.175781 20.46875 -6.519531 20.46875 -8.03125 C 20.46875 -9.550781 19.867188 -10.910156 18.671875 -12.109375 C 17.472656 -13.316406 16.003906 -14.375 14.265625 -15.28125 C 12.535156 -16.1875 10.816406 -17.144531 9.109375 -18.15625 C 7.410156 -19.164062 5.957031 -20.46875 4.75 -22.0625 C 3.550781 -23.664062 2.953125 -25.601562 2.953125 -27.875 C 2.953125 -30.144531 3.875 -32.25 5.71875 -34.1875 C 7.5625 -36.132812 10.398438 -37.109375 14.234375 -37.109375 C 18.078125 -37.109375 21.757812 -36.414062 25.28125 -35.03125 L 24.46875 -29.75 C 20.53125 -31.882812 16.878906 -33.21875 13.515625 -33.75 Z M 13.515625 -33.75 "/></g></g></g><g fill="#191919" fill-opacity="1"><g transform="translate(843.363678, 354.329095)"><g><path d="M 13.515625 -33.75 C 12.128906 -33.75 10.992188 -33.226562 10.109375 -32.1875 C 9.234375 -31.15625 8.796875 -29.984375 8.796875 -28.671875 C 8.796875 -27.367188 9.421875 -26.113281 10.671875 -24.90625 C 11.929688 -23.707031 13.453125 -22.640625 15.234375 -21.703125 C 17.023438 -20.773438 18.800781 -19.804688 20.5625 -18.796875 C 22.320312 -17.785156 23.828125 -16.476562 25.078125 -14.875 C 26.328125 -13.28125 26.953125 -11.492188 26.953125 -9.515625 C 26.953125 -6.523438 25.75 -4.03125 23.34375 -2.03125 C 20.945312 -0.0390625 17.679688 0.953125 13.546875 0.953125 C 9.421875 0.953125 5.648438 -0.00390625 2.234375 -1.921875 L 2.234375 -4.953125 C 5.859375 -3.140625 9.140625 -2.234375 12.078125 -2.234375 C 15.015625 -2.234375 17.144531 -2.820312 18.46875 -4 C 19.800781 -5.175781 20.46875 -6.519531 20.46875 -8.03125 C 20.46875 -9.550781 19.867188 -10.910156 18.671875 -12.109375 C 17.472656 -13.316406 16.003906 -14.375 14.265625 -15.28125 C 12.535156 -16.1875 10.816406 -17.144531 9.109375 -18.15625 C 7.410156 -19.164062 5.957031 -20.46875 4.75 -22.0625 C 3.550781 -23.664062 2.953125 -25.601562 2.953125 -27.875 C 2.953125 -30.144531 3.875 -32.25 5.71875 -34.1875 C 7.5625 -36.132812 10.398438 -37.109375 14.234375 -37.109375 C 18.078125 -37.109375 21.757812 -36.414062 25.28125 -35.03125 L 24.46875 -29.75 C 20.53125 -31.882812 16.878906 -33.21875 13.515625 -33.75 Z M 13.515625 -33.75 "/></g></g></g><g fill="#191919" fill-opacity="1"><g transform="translate(873.116563, 354.329095)"><g><path d="M 6 0 L 6 -36.15625 L 12.640625 -36.15625 L 12.640625 0 Z M 5.203125 -47.3125 C 5.203125 -48.457031 5.585938 -49.429688 6.359375 -50.234375 C 7.128906 -51.035156 8.085938 -51.4375 9.234375 -51.4375 C 10.378906 -51.4375 11.363281 -51.035156 12.1875 -50.234375 C 13.019531 -49.429688 13.4375 -48.46875 13.4375 -47.34375 C 13.4375 -46.226562 13.019531 -45.242188 12.1875 -44.390625 C 11.363281 -43.535156 10.390625 -43.109375 9.265625 -43.109375 C 8.148438 -43.109375 7.191406 -43.519531 6.390625 -44.34375 C 5.597656 -45.175781 5.203125 -46.164062 5.203125 -47.3125 Z M 5.203125 -47.3125 "/></g></g></g><g fill="#191919" fill-opacity="1"><g transform="translate(891.75213, 354.329095)"><g><path d="M 12.234375 -31.109375 C 15.648438 -35.003906 19.394531 -36.953125 23.46875 -36.953125 C 27.550781 -36.953125 30.882812 -35.320312 33.46875 -32.0625 C 36.0625 -28.8125 37.359375 -24.265625 37.359375 -18.421875 C 37.359375 -12.585938 35.421875 -7.882812 31.546875 -4.3125 C 27.679688 -0.738281 22.976562 1.046875 17.4375 1.046875 C 13.28125 1.046875 9.304688 0.00390625 5.515625 -2.078125 L 5.515625 -54.625 L 12.234375 -54.625 Z M 12.234375 -27.359375 L 12.234375 -4.484375 C 14.953125 -3.035156 17.773438 -2.3125 20.703125 -2.3125 C 23.640625 -2.3125 26 -3.75 27.78125 -6.625 C 29.570312 -9.507812 30.46875 -13.082031 30.46875 -17.34375 C 30.46875 -21.613281 29.585938 -25.03125 27.828125 -27.59375 C 26.066406 -30.15625 23.859375 -31.863281 21.203125 -32.71875 C 19.753906 -32.601562 18.296875 -32.144531 16.828125 -31.34375 C 15.367188 -30.550781 14.238281 -29.765625 13.4375 -28.984375 C 12.632812 -28.210938 12.234375 -27.671875 12.234375 -27.359375 Z M 12.234375 -27.359375 "/></g></g></g><g fill="#191919" fill-opacity="1"><g transform="translate(931.742572, 354.329095)"><g><path d="M 6 0 L 6 -36.15625 L 12.640625 -36.15625 L 12.640625 0 Z M 5.203125 -47.3125 C 5.203125 -48.457031 5.585938 -49.429688 6.359375 -50.234375 C 7.128906 -51.035156 8.085938 -51.4375 9.234375 -51.4375 C 10.378906 -51.4375 11.363281 -51.035156 12.1875 -50.234375 C 13.019531 -49.429688 13.4375 -48.46875 13.4375 -47.34375 C 13.4375 -46.226562 13.019531 -45.242188 12.1875 -44.390625 C 11.363281 -43.535156 10.390625 -43.109375 9.265625 -43.109375 C 8.148438 -43.109375 7.191406 -43.519531 6.390625 -44.34375 C 5.597656 -45.175781 5.203125 -46.164062 5.203125 -47.3125 Z M 5.203125 -47.3125 "/></g></g></g><g fill="#191919" fill-opacity="1"><g transform="translate(950.378139, 354.329095)"><g><path d="M 12.71875 -54.625 L 12.71875 0 L 6 0 L 6 -54.625 Z M 12.71875 -54.625 "/></g></g></g><g fill="#191919" fill-opacity="1"><g transform="translate(969.093665, 354.329095)"><g><path d="M 14 -7.03125 C 14 -5.4375 14.316406 -4.238281 14.953125 -3.4375 C 15.597656 -2.632812 16.664062 -2.234375 18.15625 -2.234375 C 19.644531 -2.234375 21.429688 -2.632812 23.515625 -3.4375 L 23.515625 -1.203125 C 20.421875 0.234375 17.644531 0.953125 15.1875 0.953125 C 12.738281 0.953125 10.804688 0.273438 9.390625 -1.078125 C 7.984375 -2.441406 7.28125 -4.5625 7.28125 -7.4375 L 7.28125 -33.28125 L 0.796875 -34.546875 L 0.796875 -36.15625 L 7.28125 -36.15625 L 7.28125 -39.03125 L 14 -43.90625 L 14 -36.15625 L 23.515625 -36.15625 L 23.515625 -33.28125 L 14 -33.28125 Z M 14 -7.03125 "/></g></g></g><g fill="#191919" fill-opacity="1"><g transform="translate(995.4074, 354.329095)"><g><path d="M 30.546875 -36.15625 L 33.59375 -36.15625 L 19.921875 1.203125 C 18.160156 6.109375 15.519531 10.050781 12 13.03125 C 8.476562 16.019531 4.613281 17.539062 0.40625 17.59375 L 1.203125 13.59375 C 8.398438 13.332031 14 8.664062 18 -0.40625 L 1.765625 -36.15625 L 8.875 -36.15625 L 21.109375 -9.03125 Z M 30.546875 -36.15625 "/></g></g></g><g fill="#191919" fill-opacity="1"><g transform="translate(1030.678996, 354.329095)"><g/></g></g><g fill="#191919" fill-opacity="1"><g transform="translate(1050.674218, 354.329095)"><g><path d="M 6 0 L 6 -36.15625 L 12.640625 -36.15625 L 12.640625 0 Z M 5.203125 -47.3125 C 5.203125 -48.457031 5.585938 -49.429688 6.359375 -50.234375 C 7.128906 -51.035156 8.085938 -51.4375 9.234375 -51.4375 C 10.378906 -51.4375 11.363281 -51.035156 12.1875 -50.234375 C 13.019531 -49.429688 13.4375 -48.46875 13.4375 -47.34375 C 13.4375 -46.226562 13.019531 -45.242188 12.1875 -44.390625 C 11.363281 -43.535156 10.390625 -43.109375 9.265625 -43.109375 C 8.148438 -43.109375 7.191406 -43.519531 6.390625 -44.34375 C 5.597656 -45.175781 5.203125 -46.164062 5.203125 -47.3125 Z M 5.203125 -47.3125 "/></g></g></g><g fill="#191919" fill-opacity="1"><g transform="translate(1069.309784, 354.329095)"><g><path d="M 12.953125 -31.03125 C 15.191406 -33.164062 17.148438 -34.710938 18.828125 -35.671875 C 20.515625 -36.628906 22.503906 -37.109375 24.796875 -37.109375 C 27.085938 -37.109375 29.207031 -36.203125 31.15625 -34.390625 C 33.101562 -32.578125 34.078125 -29.457031 34.078125 -25.03125 L 34.078125 0 L 27.28125 0 L 27.28125 -24.234375 C 27.28125 -26.847656 26.8125 -28.804688 25.875 -30.109375 C 24.9375 -31.421875 23.332031 -32.078125 21.0625 -32.078125 C 18.800781 -32.078125 16.179688 -30.582031 13.203125 -27.59375 L 13.203125 0 L 6.40625 0 L 6.40625 -25.109375 C 6.40625 -28.734375 5.039062 -31.640625 2.3125 -33.828125 L 6.40625 -36.875 Z M 12.953125 -31.03125 "/></g></g></g><g fill="#191919" fill-opacity="1"><g transform="translate(574.992466, 441.738442)"><g><path d="M 14 -7.03125 C 14 -5.4375 14.316406 -4.238281 14.953125 -3.4375 C 15.597656 -2.632812 16.664062 -2.234375 18.15625 -2.234375 C 19.644531 -2.234375 21.429688 -2.632812 23.515625 -3.4375 L 23.515625 -1.203125 C 20.421875 0.234375 17.644531 0.953125 15.1875 0.953125 C 12.738281 0.953125 10.804688 0.273438 9.390625 -1.078125 C 7.984375 -2.441406 7.28125 -4.5625 7.28125 -7.4375 L 7.28125 -33.28125 L 0.796875 -34.546875 L 0.796875 -36.15625 L 7.28125 -36.15625 L 7.28125 -39.03125 L 14 -43.90625 L 14 -36.15625 L 23.515625 -36.15625 L 23.515625 -33.28125 L 14 -33.28125 Z M 14 -7.03125 "/></g></g></g><g fill="#191919" fill-opacity="1"><g transform="translate(601.306183, 441.738442)"><g><path d="M 25.109375 -36.953125 C 27.566406 -36.953125 29.753906 -36.046875 31.671875 -34.234375 C 33.585938 -32.421875 34.546875 -29.300781 34.546875 -24.875 L 34.546875 0 L 27.828125 0 L 27.828125 -24.078125 C 27.828125 -26.691406 27.359375 -28.648438 26.421875 -29.953125 C 25.492188 -31.253906 23.707031 -31.90625 21.0625 -31.90625 C 18.425781 -31.90625 15.671875 -30.492188 12.796875 -27.671875 L 12.796875 0 L 6.078125 0 L 6.078125 -54.625 L 12.5625 -54.625 L 12.5625 -31.03125 C 16.769531 -34.976562 20.953125 -36.953125 25.109375 -36.953125 Z M 25.109375 -36.953125 "/></g></g></g><g fill="#191919" fill-opacity="1"><g transform="translate(641.536589, 441.738442)"><g><path d="M 8.390625 -19.671875 C 8.390625 -13.910156 9.679688 -9.765625 12.265625 -7.234375 C 14.859375 -4.703125 18.007812 -3.4375 21.71875 -3.4375 C 25.425781 -3.4375 28.851562 -4.15625 32 -5.59375 L 32 -2.796875 C 27.625 -0.296875 23.4375 0.953125 19.4375 0.953125 C 14.257812 0.953125 10.070312 -0.617188 6.875 -3.765625 C 3.675781 -6.910156 2.078125 -11.46875 2.078125 -17.4375 C 2.078125 -23.40625 3.847656 -28.175781 7.390625 -31.75 C 10.941406 -35.320312 15.222656 -37.109375 20.234375 -37.109375 C 24.128906 -37.109375 27.378906 -35.578125 29.984375 -32.515625 C 32.597656 -29.453125 33.90625 -25.171875 33.90625 -19.671875 Z M 16.15625 -33.359375 C 14.289062 -32.453125 12.691406 -31 11.359375 -29 C 10.023438 -27 9.144531 -24.691406 8.71875 -22.078125 L 27.4375 -22.078125 C 27.269531 -24.316406 26.75 -26.234375 25.875 -27.828125 C 25 -29.429688 23.945312 -30.609375 22.71875 -31.359375 C 20.53125 -32.691406 18.34375 -33.359375 16.15625 -33.359375 Z M 16.15625 -33.359375 "/></g></g></g><g fill="#191919" fill-opacity="1"><g transform="translate(679.047636, 441.738442)"><g/></g></g><g fill="#191919" fill-opacity="1"><g transform="translate(699.042874, 441.738442)"><g><path d="M 63.671875 -52.953125 L 67.671875 -52.953125 L 47.828125 1.203125 L 46.546875 1.203125 L 34.3125 -31.59375 L 22.3125 1.203125 L 21.03125 1.203125 L 0.796875 -52.953125 L 9.515625 -52.953125 L 23.59375 -9.59375 L 32.546875 -36.3125 L 26.3125 -52.953125 L 35.03125 -52.953125 L 49.109375 -9.59375 Z M 63.671875 -52.953125 "/></g></g></g><g fill="#191919" fill-opacity="1"><g transform="translate(767.506539, 441.738442)"><g><path d="M 8.390625 -19.671875 C 8.390625 -13.910156 9.679688 -9.765625 12.265625 -7.234375 C 14.859375 -4.703125 18.007812 -3.4375 21.71875 -3.4375 C 25.425781 -3.4375 28.851562 -4.15625 32 -5.59375 L 32 -2.796875 C 27.625 -0.296875 23.4375 0.953125 19.4375 0.953125 C 14.257812 0.953125 10.070312 -0.617188 6.875 -3.765625 C 3.675781 -6.910156 2.078125 -11.46875 2.078125 -17.4375 C 2.078125 -23.40625 3.847656 -28.175781 7.390625 -31.75 C 10.941406 -35.320312 15.222656 -37.109375 20.234375 -37.109375 C 24.128906 -37.109375 27.378906 -35.578125 29.984375 -32.515625 C 32.597656 -29.453125 33.90625 -25.171875 33.90625 -19.671875 Z M 16.15625 -33.359375 C 14.289062 -32.453125 12.691406 -31 11.359375 -29 C 10.023438 -27 9.144531 -24.691406 8.71875 -22.078125 L 27.4375 -22.078125 C 27.269531 -24.316406 26.75 -26.234375 25.875 -27.828125 C 25 -29.429688 23.945312 -30.609375 22.71875 -31.359375 C 20.53125 -32.691406 18.34375 -33.359375 16.15625 -33.359375 Z M 16.15625 -33.359375 "/></g></g></g><g fill="#191919" fill-opacity="1"><g transform="translate(805.017586, 441.738442)"><g><path d="M 12.234375 -31.109375 C 15.648438 -35.003906 19.394531 -36.953125 23.46875 -36.953125 C 27.550781 -36.953125 30.882812 -35.320312 33.46875 -32.0625 C 36.0625 -28.8125 37.359375 -24.265625 37.359375 -18.421875 C 37.359375 -12.585938 35.421875 -7.882812 31.546875 -4.3125 C 27.679688 -0.738281 22.976562 1.046875 17.4375 1.046875 C 13.28125 1.046875 9.304688 0.00390625 5.515625 -2.078125 L 5.515625 -54.625 L 12.234375 -54.625 Z M 12.234375 -27.359375 L 12.234375 -4.484375 C 14.953125 -3.035156 17.773438 -2.3125 20.703125 -2.3125 C 23.640625 -2.3125 26 -3.75 27.78125 -6.625 C 29.570312 -9.507812 30.46875 -13.082031 30.46875 -17.34375 C 30.46875 -21.613281 29.585938 -25.03125 27.828125 -27.59375 C 26.066406 -30.15625 23.859375 -31.863281 21.203125 -32.71875 C 19.753906 -32.601562 18.296875 -32.144531 16.828125 -31.34375 C 15.367188 -30.550781 14.238281 -29.765625 13.4375 -28.984375 C 12.632812 -28.210938 12.234375 -27.671875 12.234375 -27.359375 Z M 12.234375 -27.359375 "/></g></g></g><g fill="#191919" fill-opacity="1"><g transform="translate(719.997378, 514.839339)"><g/></g></g><path fill="#a5593c" d="M 1348.402344 235.675781 C 1369.890625 226.128906 1443.621094 247.292969 1458.710938 272.816406 C 1473.800781 298.339844 1474.980469 315.78125 1465.683594 341.335938 C 1456.386719 366.890625 1433.273438 385.445312 1410.003906 388.914062 C 1386.730469 392.382812 1353.046875 399.351562 1332.132812 373.828125 C 1311.214844 348.304688 1303.097656 345.949219 1301.953125 335.511719 C 1300.804688 325.074219 1294.980469 292.578125 1310.070312 269.347656 C 1325.160156 246.113281 1327.484375 244.96875 1348.402344 235.675781 Z M 1348.402344 235.675781 " fill-opacity="1" fill-rule="nonzero"/><g clip-path="url(#3dd84f98a7)"><path fill="#687a61" d="M 147.855469 644.429688 C 144.816406 647.28125 143.148438 651.300781 143.4375 655.464844 C 143.730469 662.703125 145.613281 660.800781 145.613281 660.800781 C 145.613281 660.800781 175.300781 662.703125 223.675781 658.242188 C 272.050781 653.785156 301.089844 651.375 317.964844 649.472656 C 334.835938 647.574219 356.707031 644.429688 369.160156 644.429688 C 381.617188 644.429688 503.710938 642.53125 503.710938 642.53125 L 505.523438 635.585938 L 505.523438 631.492188 C 505.523438 631.492188 446.867188 631.203125 395.015625 633.394531 C 343.164062 635.585938 147.855469 644.429688 147.855469 644.429688 Z M 147.855469 644.429688 " fill-opacity="1" fill-rule="nonzero"/></g></svg>